<?xml version="1.0" encoding="utf-8"?>
<!-- Generator: Adobe Illustrator 16.0.0, SVG Export Plug-In . SVG Version: 6.00 Build 0)  -->
<!DOCTYPE svg PUBLIC "-//W3C//DTD SVG 1.1//EN" "http://www.w3.org/Graphics/SVG/1.1/DTD/svg11.dtd">
<svg version="1.1" id="Layer_1" xmlns="http://www.w3.org/2000/svg" xmlns:xlink="http://www.w3.org/1999/xlink" x="0px" y="0px"
	 width="48px" height="48px" viewBox="0 0 48 48" enable-background="new 0 0 48 48" xml:space="preserve">
<g>
	<path d="M14,44.084c0,1.599-1.296,2.896-2.896,2.896H6.896C5.296,46.979,4,45.683,4,44.084V18.875c0-1.599,1.296-2.896,2.896-2.896
		h4.209c1.599,0,2.896,1.296,2.896,2.896V44.084z"/>
	<path d="M29,44.084c0,1.599-1.296,2.896-2.896,2.896h-4.209c-1.599,0-2.896-1.296-2.896-2.896V3.916
		c0-1.599,1.296-2.896,2.896-2.896h4.209C27.704,1.021,29,2.317,29,3.916V44.084z"/>
	<path d="M44,44.084c0,1.599-1.296,2.896-2.896,2.896h-4.209c-1.599,0-2.896-1.296-2.896-2.896V11c0-1.599,1.296-2.896,2.896-2.896
		h4.209C42.704,8.104,44,9.401,44,11V44.084z"/>
</g>
</svg>
