<?xml version="1.0" encoding="utf-8"?>
<!-- Generator: Adobe Illustrator 18.1.0, SVG Export Plug-In . SVG Version: 6.00 Build 0)  -->
<svg version="1.1" id="Capa_1" xmlns="http://www.w3.org/2000/svg" xmlns:xlink="http://www.w3.org/1999/xlink" x="0px" y="0px"
	 width="1000px" height="1000px" viewBox="0 0 1000 1000" enable-background="new 0 0 1000 1000" xml:space="preserve">
<path d="M844.2,174.6H155.8c-25.9,0-46.9,21-46.9,46.9v408.9c0,25.9,21,46.9,46.9,46.9h112.5v50.6c0,25.9,21,46.9,46.9,46.9h13.1
	v3.8c0,25.9,21,46.9,46.9,46.9h249.5c25.9,0,46.9-21,46.9-46.9v-3.8h13.1c25.9,0,46.9-21,46.9-46.9v-50.6h112.5
	c25.9,0,46.9-21,46.9-46.9V221.4C891.1,195.5,870.1,174.6,844.2,174.6z M299.3,340.7h-63.8V224.3h63.8V340.7z M415.6,340.7h-63.8
	V224.3h63.8V340.7z M531.9,340.7h-63.8V224.3h63.8V340.7z M648.2,340.7h-63.8V224.3h63.8V340.7z M764.5,340.7h-63.8V224.3h63.8
	V340.7z"/>
</svg>
