<?xml version="1.0" encoding="utf-8"?>
<!-- Generator: Adobe Illustrator 16.0.0, SVG Export Plug-In . SVG Version: 6.00 Build 0)  -->
<!DOCTYPE svg PUBLIC "-//W3C//DTD SVG 1.1//EN" "http://www.w3.org/Graphics/SVG/1.1/DTD/svg11.dtd">
<svg version="1.1" id="Layer_1" xmlns="http://www.w3.org/2000/svg" xmlns:xlink="http://www.w3.org/1999/xlink" x="0px" y="0px"
	 width="48px" height="48px" viewBox="0 0 48 48" enable-background="new 0 0 48 48" xml:space="preserve">
<g>
	<path d="M30.705,16.744h-13.41c-0.155,0-0.28,0.126-0.28,0.28v13.411c0,0.154,0.125,0.279,0.28,0.279h13.41
		c0.155,0,0.28-0.125,0.28-0.279V17.024C30.985,16.87,30.86,16.744,30.705,16.744z"/>
	<path d="M44.147,26.307c1.427,0,2.583-1.15,2.583-2.577s-1.156-2.577-2.583-2.577H40.1v-2.092h4.047
		c1.427,0,2.583-1.15,2.583-2.577s-1.156-2.578-2.583-2.578h-4.046c-0.247-3.353-2.924-6.029-6.276-6.276V3.583
		C33.824,2.156,32.673,1,31.247,1s-2.577,1.156-2.577,2.583V7.63h-2.092V3.583C26.578,2.156,25.427,1,24,1s-2.578,1.156-2.578,2.583
		V7.63h-2.092V3.583C19.331,2.156,18.18,1,16.753,1s-2.578,1.156-2.578,2.583v4.046c-3.353,0.247-6.029,2.924-6.276,6.276H3.853
		c-1.427,0-2.583,1.151-2.583,2.578s1.156,2.577,2.583,2.577H7.9v2.092H3.853c-1.427,0-2.583,1.15-2.583,2.577
		s1.156,2.577,2.583,2.577H7.9v2.093H3.853c-1.427,0-2.583,1.15-2.583,2.577s1.156,2.577,2.583,2.577h4.046
		c0.247,3.353,2.924,6.029,6.276,6.276v4.047c0,1.426,1.151,2.582,2.578,2.582s2.577-1.156,2.577-2.582v-4.048h2.092v4.048
		c0,1.426,1.151,2.582,2.578,2.582s2.578-1.156,2.578-2.582v-4.048h2.092v4.048c0,1.426,1.15,2.582,2.577,2.582
		s2.578-1.156,2.578-2.582V39.83c3.353-0.247,6.029-2.924,6.276-6.276h4.046c1.427,0,2.583-1.15,2.583-2.577
		s-1.156-2.577-2.583-2.577H40.1v-2.093H44.147z M35.094,30.436c0,2.433-1.956,4.389-4.389,4.389h-13.41
		c-2.434,0-4.389-1.956-4.389-4.389V17.024c0-2.433,1.956-4.389,4.389-4.389h13.41c2.434,0,4.389,1.956,4.389,4.389V30.436z"/>
</g>
</svg>
