<?xml version="1.0" encoding="utf-8"?>

<!-- The icon can be used freely in both personal and commercial projects with no attribution required, but always appreciated. 
You may NOT sub-license, resell, rent, redistribute or otherwise transfer the icon without express written permission from iconmonstr.com -->

<!DOCTYPE svg PUBLIC "-//W3C//DTD SVG 1.1//EN" "http://www.w3.org/Graphics/SVG/1.1/DTD/svg11.dtd">
<svg version="1.1" xmlns="http://www.w3.org/2000/svg" xmlns:xlink="http://www.w3.org/1999/xlink" x="0px" y="0px"
	 width="512px" height="512px" viewBox="0 0 512 512" enable-background="new 0 0 512 512" xml:space="preserve">
<path id="network-4-icon" d="M278.591,388.31h-45.182v33.8h-33.888v0.464v39.536h112.957v-39.536v-0.464h-33.888V388.31z
	 M418.083,422.109h-83.014v40h83.014V422.109z M176.931,422.109H93.917v40h83.014V422.109z M270.613,160.109
	c-0.055-0.095,0.254-1.062,0.522-0.971c0.173,0.056,0.11,0.141,0.323,0.158c0.21,0.018,0.334-0.229,0.553-0.19
	c0.343,0.061,0.578,0.378,0.941,0.388c0.273,0.007,0.436-0.264,0.697-0.286c0.191-0.019,0.362,0.105,0.553,0.062
	c0.201-0.047,0.355-0.179,0.526-0.279c0.335-0.198,0.291-0.024,0.677-0.064c0.121-0.015,0.224-0.083,0.341-0.105
	c0.024-0.004,0.051-0.005,0.077-0.003c0.173,0.019,0.241,0.124,0.201,0.327c-0.082,0.448-0.443,0.781-0.501,1.237
	c-0.038,0.299,0.347,0.465,0.247,0.784c-0.244,0.802-0.475,0.845-0.63,0.871c-0.22,0.038-0.374-0.033-0.466-0.078
	c-0.274-0.131-0.465-0.383-0.726-0.54c-0.138-0.084-0.3-0.108-0.447-0.17c-0.452-0.193-1.767-1.101-2.175-1.073
	c-0.146,0.007-0.265,0.117-0.409,0.105c-0.005-0.001-0.013-0.001-0.019-0.001C270.827,160.276,270.699,160.255,270.613,160.109z
	 M243.196,120.971c0,0,0,0-0.001,0.001c-0.029,0.039-0.055,0.08-0.076,0.121c-0.041,0.082-0.015,0.183,0.062,0.234
	c0.078,0.051,0.18,0.036,0.239-0.035c0.072-0.084,0.165-0.195,0.285-0.338c0.113-0.136,0.152-0.184,0.318-0.256
	c0.131-0.056,0.265-0.107,0.399-0.152c0.052-0.017,0.108-0.007,0.151,0.026c0.043,0.032,0.067,0.083,0.066,0.137
	c-0.014,0.311,0.091,0.646-0.222,0.89c-0.179,0.141-0.318,0.25-0.425,0.34c-0.104,0.088-0.133,0.238-0.069,0.359
	c0.065,0.121,0.205,0.18,0.337,0.142c0,0,0,0,0.016,0.011c0.012,0.009,0.021,0.021,0.023,0.036c0.088,0.367,0.099,0.366,0.584,0.074
	c0.016-0.009,0.033-0.012,0.051-0.007c0.008,0.002,0.016,0.008,0.02,0.015c0.066,0.129,0.173,0.231,0.303,0.295
	c0.182,0.087,0.316,0.254,0.359,0.458c0.002,0.012,0.005,0.024,0.008,0.038c0.004,0.012,0.007,0.024,0.011,0.035
	c0.165,0.506,0.032,1.06-0.345,1.436c-0.377,0.375-0.932,0.505-1.437,0.337h-0.001c-0.085-0.028-0.178,0.003-0.229,0.076
	c-0.05,0.074-0.045,0.171,0.011,0.239c0.05,0.062,0.108,0.119,0.106,0.205c-0.008,0.314-0.404,0.197-0.525,0.405
	c-0.002,0.003-0.004,0.004-0.005,0.006c-0.008,0.015-0.013,0.032-0.015,0.051c-0.004,0.04,0.012,0.081,0.042,0.107
	c0.03,0.027,0.071,0.038,0.111,0.029c0.182-0.04,0.328-0.193,0.52-0.208c0.36-0.024,0.089,0.882-0.03,1.015
	c-0.132,0.147-1.046,0.472-1.335,0.512c-0.186,0.028-0.31,0.045-0.371,0.112c-0.058,0.066-0.096,0.445,0.161,0.569
	c0.39,0.187,0.754-0.154,1.142-0.055l0.001,0c0.366,0.096,0.698,0.293,0.958,0.568c0.021,0.024,0.05,0.039,0.077,0.049
	c0.125,0.05,0.266,0.048,0.391-0.005c0.03-0.013,0.061-0.031,0.085-0.054c0.103-0.09,0.21-0.121,0.32-0.125
	c0.083-0.003,0.16,0.049,0.187,0.129c0.027,0.08,0,0.168-0.069,0.217c-0.282,0.202-0.566,0.408-0.96,0.362
	c-0.211-0.024-0.424-0.025-0.634-0.003c-0.646,0.069-1.257,0.356-1.726,0.826c-0.156,0.156-0.322,0.322-0.472,0.476
	c-0.08,0.083-0.087,0.212-0.015,0.302c0.071,0.09,0.199,0.112,0.297,0.053c0.068-0.042,0.143-0.086,0.226-0.138
	c0.276-0.17,0.784-0.378,1.062,0.155c0.003,0,0.008,0.001,0.012,0.003c0.041,0.012,0.085,0.004,0.119-0.021
	c0.375-0.281,0.562-0.804,1.11-0.851c0.389-0.03,0.678,0.351,1.077,0.267c0.446-0.093,0.816-0.436,1.302-0.41
	c0.179,0.01,0.671,0.141,0.719,0.169c0.135,0.083,0.135,0.083,0.861,0.095c0.306,0.005,0.527,0.253,0.816,0.299
	c0.353,0.054,0.675-0.155,1.021-0.125c0.002,0,0.002,0,0.004,0c0.003,0,0.003,0,0.003,0c0.009,0,1.048-0.198,1.027-0.626
	c0-0.009-0.005-0.017-0.012-0.021c-0.005-0.003-0.009-0.006-0.013-0.008c-0.365-0.216-0.607-0.592-0.656-1.012
	c-0.004-0.033,0.016-0.063,0.047-0.072c0.033-0.01,0.07-0.003,0.1,0.02c0.021,0.017,0.044,0.034,0.062,0.046
	c0.113,0.076,0.182,0.086,0.224,0.058c0.248-0.18,0.514-0.348,0.781-0.496c0.144-0.08,0.229-0.241,0.31-0.555
	c0.022-0.097,0.116-0.592-0.514-0.944c-0.004-0.002-0.009-0.004-0.013-0.007c-0.052-0.029-1.221-0.631-1.553-0.449
	c-0.221,0.117-0.221,0.117-0.627-0.093c-0.014-0.06,0.008-0.122,0.057-0.159c0.462-0.357,0.461-0.362,0.451-0.463
	c-0.017-0.223-0.133-0.381-0.266-0.528c-0.117-0.127-0.129-0.318-0.03-0.459c0.003-0.002,0.003-0.005,0.005-0.007
	c0.089-0.121-0.375-1.114-0.38-1.121c-0.031-0.034-0.047-0.052-0.11-0.047c-0.194,0.013-0.398,0.018-0.593,0.017
	c-0.024,0-0.056,0.004-0.103,0.012c-0.005,0.001-0.01-0.001-0.012-0.006c-0.011-0.02-0.013-0.042-0.008-0.062
	c0.062-0.243-0.177-0.4-0.198-0.625c-0.022-0.226,0.039-0.448,0.062-0.67c0.019-0.201-0.005-0.429-0.069-0.648
	c-0.234-0.804-0.196-1.653,0.09-2.421c0.119-0.32,0.285-0.627,0.483-0.903c0.461-0.641-1.608-0.559-1.999-0.534
	c-0.031,0.002-0.061-0.013-0.076-0.039c-0.015-0.025-0.014-0.059,0.002-0.086c0.101-0.151,0.114-0.348,0.256-0.479
	c0.188-0.181,0.445-0.238,0.662-0.371c0.477-0.298,0.078-0.482-0.097-0.528c-0.415-0.107-0.853-0.163-1.281-0.163
	c-0.163-0.001-0.325,0.022-0.491,0.084c-0.108,0.041-0.234,0.175-0.361,0.352c-0.26,0.362-0.565,0.684-0.914,0.961
	c-0.02,0.014-0.038,0.028-0.056,0.043c-0.098,0.074-0.225,0.088-0.333,0.042c-0.064-0.026-0.137-0.027-0.2,0
	c-0.013,0.005-0.025,0.011-0.038,0.018c-0.119,0.062-0.207,0.155-0.271,0.259c-0.079,0.129-0.062,0.295,0.041,0.407
	c0.103,0.112,0.269,0.14,0.402,0.069c0.001,0.002,0.002,0.004,0.003,0.007c0.019,0.042,0.018,0.09-0.001,0.132
	c-0.078,0.17-0.102,0.357-0.171,0.529c-0.008,0.02-0.023,0.033-0.046,0.036c-0.03,0.005-0.062-0.009-0.08-0.036
	c-0.088-0.136-0.129-0.136-0.19-0.124c-0.005,0.001-0.013,0.003-0.019,0.004c-0.246,0.051-0.419,0.629-0.409,0.794
	c0.004,0.057,0.021,0.097,0.048,0.126C243.448,120.069,243.477,120.591,243.196,120.971z M415,208.889
	c0,87.813-71.187,159-159.001,159c-87.813,0-158.999-71.188-158.999-159c0-87.812,71.186-158.999,158.999-158.999
	C343.813,49.891,415,121.077,415,208.889z M303.047,140.462c-0.008-0.38,0.632-0.371,0.693-0.844
	c0.027-0.216-0.068-0.428-0.248-0.55c-0.229-0.155-0.33-0.109-0.609,0.018c-0.164,0.077-0.352,0.162-0.558,0.16
	c-0.166-0.002-0.307-0.121-0.336-0.283c-0.026-0.146,0.045-0.291,0.171-0.362c0.05-0.027,0.066-0.087,0.042-0.136l-0.001-0.001
	c-0.018-0.036-0.051-0.063-0.09-0.072c-0.439-0.108-0.811-0.172-1.116-0.21c-0.576-0.07-1.166-0.024-1.725,0.131
	c-0.459,0.127-0.484,0.201-0.59,0.505c-0.281,0.792-0.396,1.111-0.5,1.249c-0.384,0.506-0.658,1.076-0.812,1.691
	c-0.059,0.235-0.178,0.439-0.451,0.57c0,0-0.004,0-0.028,0c0,0.004-0.163,1.436-0.15,1.589c0.022,0.326,0.212,0.637,0.099,0.975
	c-0.098,0.291-0.504,0.227-0.604,0.512c-0.002,0.005-0.003,0.01-0.006,0.014c-0.167,0.482,0.038,1.213,0.155,1.704
	c0.01,0.043-0.01,0.089-0.051,0.11c-0.038,0.021-0.087,0.014-0.117-0.02c-0.002-0.001-0.004-0.002-0.004-0.004
	c-0.207-0.198-0.311-0.131-0.359-0.043c-0.037,0.065-0.033,0.144,0.009,0.205c0,0,0.001,0,0.001,0.002l0.591,0.829
	c0.595,0.833,1.397,1.478,2.339,1.877c0.001,0,0.001,0,0.001,0c0.515,0.226,1.007-0.12,1.518-0.063
	c0.565,0.066,1.131-0.032,1.697-0.035c0.193,0,0.583-0.057,0.829-0.163c0.201-0.086,0.22-0.23,0.237-0.397
	c0.002-0.013,0.003-0.028,0.004-0.042c0.011-0.146,0.035-0.165,0.667-0.664c0.453-0.358,1.009-0.551,1.469-0.908
	c0.775-0.607,1.764,0,2.603-0.258c0.192-0.059,2.823,0.93,2.993,1.015c0.004,0.003,0.008,0.004,0.012,0.006
	c0.773,0.323,2.851,0.34,3.346,0.479c0.202,0.055,0.507,0.124,0.801,0.117c0.019-0.009,0.039-0.018,0.058-0.027
	c0.411-0.195,0.671-0.84,1.244-0.551c0.995,0.5,3.802,0.062,3.118-2.259c-0.372-1.261-2.033-1.945-2.531-2.125
	c-1.505-0.544-2.489-1.837-3.813-2.649c-0.583-0.358-1.271-0.038-1.875-0.278c-1.359-0.541-1.359-0.541-1.432-0.932
	c-0.005-0.03,0.007-0.061,0.027-0.09c0.367-0.515,0.641-1.081,0.812-1.689c0.001-0.006,0.003-0.011,0.003-0.017
	c0.064-0.216,0.145-0.322-0.091-0.473c-0.311-0.196-0.907-0.008-0.969-0.517c-0.046-0.405,0.829-0.858,1.187-1.065
	c0.301-0.174,0.428-0.401,0.48-0.546c0.083-0.224-0.192-0.527-0.315-0.51c-0.416,0.048-1.562,0.73-1.727,0.748
	c-0.003,0-0.005,0-0.007,0c-0.052,0.007-0.103,0.023-0.147,0.049c-0.004,0.001,0,0-0.004,0.002l-2.618,1.514
	c-0.003,0.001-0.006,0.004-0.01,0.006c-0.465,0.342-0.721,0.898-0.679,1.474c0.041,0.576,0.375,1.09,0.885,1.361
	c0.216,0.115,0.526,0.175,0.419,0.394c0,0.001-0.001,0.001-0.001,0.001c-0.054,0.108-1.483,1.464-1.632,1.485
	c-0.387,0.044-0.516-0.143-0.548-0.2c-0.013-0.026-0.024-0.05-0.032-0.076c-0.226-0.646-0.74-1.173-1.47-1.393
	C303.152,140.754,303.051,140.617,303.047,140.462z M383.266,208.889c0-13.178-2.258-26.494-4.566-33.532
	c-0.723-2.206-2.395-3.975-4.559-4.813c-2.165-0.839-4.592-0.663-6.612,0.482c-5.099,2.884-4.938,3.25-6.718,3.159
	c-0.813-0.041-4.469,2.391-5.78-0.397c-0.248-0.525-1.531-2.889-3.313,0.372c-0.481,0.883-3.116,0.217-3.988-0.269
	c-2.565-1.433-5.727-4.781-6.504-5.623c-0.002,0.002-0.004,0.002-0.006,0.003c0,0-0.002,0.003-0.004,0.001
	c-0.876-1.015-3.41,0.374-1.547,3.146c6.243,9.305,7.339,9.387,9.105,10.314c0.002,0,0.002,0,0.003-0.001
	c0.834-0.628,0.715-0.823,1.8-0.976c0.671-0.095,1.251-0.516,1.549-1.125c0.003-0.004,0.007-0.011,0.01-0.017
	c0.342-0.702,0.989-1.205,1.754-1.363c0.764-0.157,1.559,0.048,2.15,0.558c0.006,0.006,0.012,0.011,0.018,0.017
	c1.08,0.93,2.474,0.069,3.623,0.617c2.915,1.369,1.803,4.153,1.225,7.449c-0.001,0.009-0.008,0.018-0.014,0.023
	c-0.009,0.005-0.019,0.007-0.027,0.006c-0.27-0.054-0.521,0.155-0.524,0.425c-0.01,1.047,0.66,2.022,0.455,3.089
	c-0.008,0.04-0.032,0.072-0.067,0.09c-0.351,0.173-0.662,0.404-0.931,0.689c-0.833,0.886-0.889,2.004-1.612,3.004
	c-0.68,0.947,0.052,3.062-1.578,3.075c-0.625,0.004-2.708,1.203-3.03,2.573c-0.382,1.625-1.27,3.073-2.546,4.148
	c-0.938,0.789-2.215,1.819-3.974,3.189c-0.837,0.651-4.218,4.3-7.133,4.984c-0.401,0.094-0.818-0.061-1.062-0.391
	c-0.015-0.02-0.028-0.04-0.042-0.061c-1.916-2.977-2.317-6.55-3.826-9.687c-1.779-3.717-6.599-4.7-7.941-8.817
	c-1.133-3.477-1.609-4.941-3.193-5.836c-1.107-0.625-2.031-1.498-2.714-2.569c-1.113-1.747-2.804-4.231-4.192-5.569
	c-0.63-0.608-1.047-1.396-1.191-2.259c-0.064-0.387-0.637-0.358-0.659,0.037c-0.079,1.382,0.177,1.817-0.209,2.11
	c-0.324,0.246-0.723,0.111-1.007-0.183c-0.99-1.022-2.611-2.878-3.02-3.917c-0.001,0.005-0.001,0.011-0.002,0.015
	c-0.105,0.403-0.027,0.833,0.212,1.174c2.145,3.054,12.597,18.147,12.861,19.575c1.741,9.498,9.095,11.773,12.848,15.274
	c0.705,0.658,1.169,1.51,1.351,2.426c0.175,0.875,0.592,1.633,1.247,2.236c0.692,0.64,1.385,0.553,5.305,0.063
	c0.651-0.084,1.073-0.549,1.522-0.965c0.386-0.357,3.568-1.481,3.984-1.744c0.859-0.556-0.209-0.228,1.765-1.165
	c0.772-0.373,1.68-2.698,1.527-0.06c-0.033,0.68,0.347,1.293,0.275,1.978c-0.409,4.005-0.744,4.669-0.974,5.443
	c-0.305,1.023-0.71,2.013-0.965,3.054c-1.2,4.911-3.101,10.146-6.405,14.019c-0.07,0.083-0.144,0.158-0.224,0.233
	c-1.826,1.692-5.158,4.817-7.871,10.133c-1.707,3.345-4.125,6.249-5.908,9.543c-0.6,1.118-0.75,1.397-0.217,2.9
	c0.379,1.071,1.512,6.031,1.687,12.387c0.189,6.93-0.928,8.068-3.147,9.677c-3.554,2.573-5.978,4.328-7.641,5.56
	c-1.951,1.439-3.116,3.71-3.146,6.135c-0.011,0.893-0.221,2.017-0.83,3.371c0.002,0.004,0.004,0.007,0.006,0.012
	c0.128,0.242-4.581,2.599-6.204,4.515c-0.002,0.002-0.002,0.002-0.002,0.003c-0.008,0.046-0.004,0.096,0.011,0.14
	c1.095,3.431-12.788,13.385-15.673,13.362c-2.087-0.015-7.207,0.801-9.648,1.844c-1.644,0.702-6.091-0.808-6.418-1.754
	c-0.05-0.144-0.064-0.402,0.051-0.498c1.088-0.9-2.582-6.206-3.458-6.811c-0.562-0.389-1.63-2.866-2.066-3.484
	c-1.338-1.895,0.964-4.563-0.531-6.45c-0.08-0.1-0.159-0.205-0.233-0.31l-4.324-6.041c-0.673-0.939-2.585-2.051-2.594-3.205
	c0-0.002,0-0.005,0-0.007c-0.012-1.26,2.238-7.337,2.418-7.594c0.206-0.297,0.399-0.617,0.562-0.94
	c0.092-0.181,0.263-0.312,0.598-0.484c1.097-0.561,2.669-1.948,0.871-4.887c-0.104-0.177-0.104,0.597-0.676-3.477
	c-0.374-2.677-3.893-8.74-4.49-9.376c0,0-4.079-1.947-5.949-5.786c0.096-0.22,0.239-0.409,0.426-0.559
	c1.725-1.382,1.416-3.113,1.924-6.839c0.025-0.186,0.059-0.375,0.098-0.558c0.002-0.01,0.004-0.019,0.006-0.029l0.052-0.247
	c0.003-0.008,0.004-0.018,0.007-0.026c0-0.002,0-0.004,0.001-0.005c0.153-0.735,0.349-1.715-0.655-3.234
	c-0.175-0.264-0.482-0.411-0.8-0.379c-0.016,0.001-0.032,0.003-0.049,0.004c-0.55,0.046-1.036-0.356-1.092-0.906
	c-0.002-0.007-0.003-0.014-0.003-0.02c-0.001-0.008-0.006-0.014-0.012-0.017c-0.807-0.329-1.701-0.373-2.536-0.129
	c-1.841,0.538-5.748,1.339-6.187-1.192c-0.59-3.399-2.913-4.142-4.055-4.064c-4.855,0.342-8.967,4.513-13.981,4.175
	c-0.224-0.011-0.508-0.12-0.718-0.199c-4.33-1.634-9.002-1.667-13.404-2.512c-1.493-0.287-3.645-1.014-4.729-2.08l-6.17-6.065
	c-0.4-0.394-0.758-0.83-1.064-1.3c-1.957-3.007-2.686-9.626-3.208-10.81c-0.077-0.172-0.161-0.347-0.249-0.513l-0.531-1.002
	c-0.006-0.012-0.014-0.021-0.021-0.033c0,0-0.001,0-0.002-0.001c-1.437-1.878-1.885-4.342-1.202-6.606l2.438-8.104
	c0.036-0.119,0.071-0.246,0.102-0.367c0.063-0.258,0.116-0.523,0.152-0.783c0.579-4.027-0.19-5.496-0.568-6.219
	c-0.702-1.345-0.702-1.345,2.779-6.196c6.336-8.835,7.424-9.277,8.688-9.786c0,0,0,0,0,0.003c0.005,0,0.008,0.001,0.012,0.002
	c2.757,0.312,7.974-3.048,7.877-4.873c-0.027-0.585-0.095-1.801,0.934-3.424c0.398-0.626,0.902-1.191,1.478-1.658l5.696-4.628
	c1.052-0.854,2.533-0.928,3.664-0.182h0.002c0.77-0.27,1.613-0.237,2.359,0.092c0.975,0.43,1.598,0.131,1.903-0.012
	c3.45-1.654,7.214-2.162,24.7-3.275c0.592-0.038,1.164,0.219,1.528,0.687c0.003,0.005,0.006,0.009,0.01,0.014
	c1.03,1.331,0.261,1.161,1.429,3.126c0.445,0.749,0.008,1.316-1.391,2.726c-0.529,0.535-0.443,1.389-0.271,1.417
	c0.479,0.024,1.616,0.322,2.555,0.812c1.237,0.647,3.2,1.286,4.826,1.756c1.479,0.427,2.796,1.29,3.782,2.47
	c0.641,0.772,9.298,5.942,8.947-1.088c-0.024-0.491,0.457-1.343,1.263-2.001c2.812-2.29,4.876,0.673,5.648,0.849
	c1.241,0.283,1.4,0.283,2.233,0.265c0.007,0,0.016,0,0.021,0c0.004,0,0.008,0,0.013,0c0.771,0.014,1.128,0.898,3.597,0.731
	c4.272-0.289,8.584,0.385,12.84-0.368c0.477-0.084,1.143-0.24,1.516-0.549c4.719-3.899-0.066-8.671,0.667-12.969
	c0.002-0.013-0.002-0.026-0.011-0.035c-0.008-0.01-0.021-0.015-0.033-0.014h-0.002c-1.456,0.114-2.839,0.692-3.946,1.645
	c-0.397,0.341-0.886,0.588-1.555,0.657c-1.179,0.119-2.099-0.648-3.125-1.037c-0.517-0.196-1.094,0.062-1.292,0.578
	c-0.001,0.004-0.002,0.007-0.004,0.011c-0.396,0.959-4.897,0.254-6.242-2c-0.409-0.685-1.025-1.215-1.764-1.515
	c-0.001-0.001-0.004-0.002-0.005-0.002c0.017-0.014,0.032-0.029,0.049-0.044c1.327-1.251-0.702-2.214-0.925-3.186
	c-0.111-0.485,0.143-0.976,0.604-1.165c0.008-0.004,0.018-0.008,0.026-0.011c1.104-0.419,1.604-1.016,1.384-0.854
	c-0.471,0.345-1.022,0.545-1.604,0.579c-0.001,0-0.002,0-0.004,0c-0.309,0.018-0.612-0.053-0.879-0.201
	c-0.652-0.363-1.392-0.552-2.139-0.552c-0.896,0-1.806,0.258-1.989,1.145c-0.034,0.166-0.129,0.311-0.267,0.408h-0.001
	c-0.115,0.082-0.264,0.097-0.393,0.04c-0.228-0.106-0.45-0.079-0.625,0.04c-0.186,0.126-0.288,0.33-0.264,0.609
	c0.068,0.772,2.153,1.565,0.465,2.344l-0.012,0.008c0,0-0.728,0.424-0.791,0.455c-0.695,0.345-1.602-0.42-2.205-0.457
	c-0.196-0.011-0.387,0.072-0.587,0.068c-0.005,0-0.011,0-0.016,0c-0.118-0.002-0.191-0.048-0.219-0.072
	c-0.003-0.003-0.005-0.005-0.009-0.007c-0.059-0.051-0.712-0.632-0.815-0.812c-0.255-0.433-0.28-0.477-0.417-0.622
	c-0.107-0.112-0.299-0.256-0.449-0.363c-0.33-0.234-0.539-0.603-0.568-1.005c0-0.002,0-0.002,0-0.002
	c-0.023-0.313-0.06-0.753-0.117-1.237c-0.129-1.083-0.675-2.068-1.521-2.753c-0.22-0.176-0.494-0.268-0.773-0.256
	c-0.178,0.008-0.356-0.041-0.511-0.143c-0.714-0.475-1.19-0.577-1.19-0.577c-0.002-0.001-0.004-0.004-0.006-0.005l-5.589-4.075
	c-0.32-0.233-0.709-0.347-1.104-0.323c-0.327,0.021-0.505-0.287-0.685-0.561c-0.36-0.549-1.036-0.796-1.665-0.607
	c-0.026,0.008-0.053,0.017-0.077,0.026c-0.396,0.15-0.579,0.625-0.367,1.011c0.118,0.211,0.247,0.418,0.383,0.616l3.251,4.73
	c0.539,0.783,1.434,1.247,2.384,1.237c0.388-0.003,0.716,0.29,0.757,0.676c0.02,0.187,0.127,0.361,0.301,0.461
	c1.549,0.892,3.555,1.021,4.631,2.708c0.011,0.017,0.019,0.035,0.021,0.054c0.001,0.006,0.002,0.011,0.002,0.016
	c0,0.003,0,0.003,0,0.007c0.005,0.126-0.077,0.53-0.145,0.653c-0.113,0.211-0.525,0.303-0.647,0.193
	c-0.087-0.079-0.08-0.264-0.071-0.461c0.003-0.062-0.015-0.14-0.044-0.222c-0.161-0.451-0.498-0.541-0.935-0.728
	c-0.598-0.253-1.287,0.012-1.561,0.602c-0.002,0.006-0.005,0.011-0.007,0.017c-0.009,0.016-0.017,0.034-0.022,0.051
	c-0.259,0.67,0.173,0.874,0.403,0.987c0.362,0.17,0.913,0.434,0.764,1.218c-0.061,0.331-0.427,0.213-0.618,0.356
	c0,0,0.123-0.115-0.525,1.185c-0.228,0.442-0.017,0.547-0.588,0.84c-0.482,0.235-0.71-0.075-0.769-0.176
	c-0.209-0.355,0.08-0.674,0.071-1.018c-0.007-0.155-0.01-0.291,0.438-0.476c0.639-0.269-0.037-1.318-0.42-1.911
	c-0.004-0.006-0.008-0.013-0.012-0.019c-0.784-1.357-0.267-0.258-1.17-1.102c-0.557-0.522-2.019-1.395-2.306-1.751
	c-1.919-2.377-5.064-3.504-6.715-6.155c-0.334-0.538-0.82-0.965-1.395-1.229c-0.376-0.172-0.823-0.296-1.319-0.273
	c-0.476,0.022-2.741,1.316-4.561,2.353c-1.715,0.981-2.953-1.335-4.623-0.671c-1.804,0.717-0.737,3.075-2.266,3.95
	c-1.739,0.995-3.819,1.324-5.354,2.727c-0.062,0.057-0.108,0.142-0.148,0.234c-0.47,1.081-1.29,1.55-1.346,1.819
	c-0.048,0.223-0.067,0.318,0.028,0.63c0.204,0.651-0.001,1.361-0.518,1.806c-0.001,0.001-0.002,0.002-0.003,0.003
	c-0.336,0.295-0.055,1.229-0.361,1.396c-0.568,0.294-1.184-0.027-1.761,0.137c-0.87,0.246-0.913,1.374-1.767,1.635
	c-1.114,0.335-2.191-0.367-3.303-0.123c-2.507,0.546-2.507,0.546-2.601,0.775c-0.089,0.205-0.29,0.549-0.644,0.546
	c-1.301-0.027-0.821-1.657-1.438-2.361c-0.664-0.764-0.849-0.682-1.149-0.555c-0.405,0.176-1.086,0.472-1.295,0.35
	c-0.28-0.172-0.5-0.43-0.825-0.524c-0.222-0.064-0.408-0.217-0.514-0.424c-0.187-0.366,0.279-1.851,0.384-2.278
	c0.063-0.257,0.047-0.528-0.048-0.775c-0.112-0.291-0.388-0.485-0.699-0.493c-0.06-0.001-0.117-0.027-0.158-0.072
	c-0.363-0.4,1.131-1.913,1.546-2.685c0.063-0.119,0.133-0.292,0.183-0.419c1.278-3.27,1.275-4.377,1.014-5.47
	c-0.116-0.482,0.233-0.951,0.729-0.979c0.274-0.014,0.56-0.027,0.795-0.037c0,0,0.001,0,0,0c0.53-0.618,1.414-0.792,2.139-0.424
	c0.986,0.501,2.955,1.214,6.316,1.373c0.814,0.039,1.63,0.21,2.391,0.5c0.712,0.271,1.318-0.351,1.584-0.691
	c0.627-0.801,0.531-1.795,0.656-2.729c0.066-0.494,0.344-0.936,0.76-1.21v-0.001c0.11-0.074,0.166-0.207,0.143-0.338
	c-0.032-0.176-0.176-1.584-0.349-1.599c-0.008,0-0.016-0.001-0.022-0.001c-1.391-0.151-0.948-1.939-1.861-2.518
	c-0.772-0.492-0.74-0.826-2.664-1.034c-0.277-0.029,0.379-1.366,1.495-1.723c0.063-0.021,0.134-0.016,0.195,0.015
	c0.687,0.346,1.454,0.509,2.222,0.472c0.291-0.015,0.56-0.16,0.73-0.396c0.17-0.235,0.225-0.536,0.146-0.816
	c-0.001-0.005-0.002-0.01-0.004-0.014c-0.082-0.292,0.173-0.74,0.501-0.524c0.639,0.419,0.96,0.69,2.073,0.53
	c0.274-0.04,0.499-0.244,0.562-0.515c0.029-0.129,0.112-0.239,0.228-0.304c1.251-0.708,1.78-1.024,2.029-1.31
	c0.593-0.686,1.29-1.256,2.084-1.697c1.132-0.631,1.683-1.041,2.764-2.02c0.464-0.42,1.021-0.713,1.631-0.856
	c0.187-0.044,0.309-0.223,0.28-0.412c-0.006-0.036,0.003-0.073,0.025-0.103c0.204-0.269,0.513-0.44,0.851-0.472
	c0.788-0.074,1.258-0.074,1.589-0.074c0.002-0.003,0.006-0.007,0.008-0.01c0.228-0.262,0.561-0.409,0.907-0.398
	c0.827,0.023,1.911,0.404,1.737-1.86c-0.261-2.036,0.418-4.087,1.837-5.57c0.003-0.001,0.005-0.004,0.007-0.006
	c0.641,0.27,0.499,0.924,0.607,1.614c0.066,0.413-0.061,0.835-0.341,1.145c-0.006,0.004-0.009,0.009-0.013,0.014
	c-2.712,3.008,0.764,2.91,0.857,3.682c0.001,0.004,0.001,0.009,0.002,0.014c0.012,0.129,0.085,0.246,0.195,0.315
	c0.111,0.069,0.246,0.084,0.369,0.04c0.119-0.043,2.798-1.16,2.903-1.093c0.507,0.317,0.122,0.483,0.527,0.854
	c0.003,0.003,0.006,0.006,0.011,0.009c0.606,0.558,1.498,0.673,2.227,0.286c1.539-0.818,3.311-1.089,5.025-0.773
	c0.844,0.155,2.93-1.867,2.544-2.996c0-0.001,0-0.001-0.001-0.001c-0.235-0.688-0.275-1.428-0.117-2.137
	c0.099-0.444-0.083-0.687,0.425-1.021c0.255-0.169,0.578-0.195,0.856-0.07c0.359,0.162,0.776,0.171,1.149,0.013
	c0.493-0.211,0.829-0.68,0.868-1.216c0-0.003,0.001-0.006,0.001-0.01c0.009-0.107-0.045-0.211-0.136-0.268
	c-0.461-0.288-0.722-0.824-0.651-1.375c0.077-0.612,0.542-1.102,1.15-1.21c1.773-0.325,2.095,0.672,3.78-0.829
	c0.102-0.09,0.145-0.23,0.11-0.361c-0.035-0.132-0.14-0.233-0.272-0.262c-0.001,0-0.001,0-0.002,0
	c-1.396-0.304-2.851-0.211-4.197,0.261l-1.627,0.57c-0.003,0.001-0.004,0.001-0.008,0.001c-0.001,0.001-0.004,0.003-0.006,0.004
	c-0.002,0-0.002,0.001-0.004,0.002c-0.274,0.18-0.601,0.261-0.926,0.235c-1.134-0.092-1.85-1.167-2.293-2.354
	c-0.515-1.379-0.34-2.926,0.467-4.156c0.399-0.611,0.6-1.393,1.047-1.964c0.186-0.234,0.254-0.538,0.188-0.829
	c-0.185-0.817-1.603-1.182-2.393-1.005c-1.578,0.353-0.521,2.242-1.154,3.23c-0.363,0.57-1.887,0.974-2.019,1.749
	c-0.331,1.988-0.507,3.036-0.373,3.725c0.287,1.482,0.142,2.999-0.431,4.395c-0.004,0.009-0.007,0.018-0.01,0.027
	c-0.453,1.188,0.475,2.432-0.144,3.612c-0.722,1.373-2.399,0.286-2.788,1.943c-0.16,0.698-1.529-0.33-1.996-0.796
	c-0.049-1.365-0.574-1.992-0.957-3.061c-0.311-0.864-1.014-1.53-1.893-1.792c-2.34-0.697-2.814,1.59-4.883,0.954
	c-1.666-0.513-2.834-2.014-2.922-3.755c-0.088-1.741,0.923-3.353,2.528-4.031c0,0,0.001,0,0.002-0.001
	c5.47-2.299,6.488-4.23,6.854-5.527c0.082-0.292,0.31-0.521,0.603-0.606c0.002,0,0.004-0.001,0.009-0.002
	c0,0,0.001-0.001,0.001-0.002c0.059-0.295,0.209-0.564,0.431-0.767c0.561-0.522,0.942-1.217,1.444-1.792
	c0.553-0.63,1.121-1.604,1.121-1.604v-0.001c0,0,2.835-2.773,5.824-3.721c1.386-0.434,2.399-0.417,2.731-0.35
	c0.346,0.071,0.856,0.168,1.663,0.324v0.002c-0.043,0.27,0.025,0.545,0.189,0.765c0.38,0.505,1.622,0.381,3.119,1.073
	c1.734,0.804,3.816,0.564,5.689,0.954c0.762,0.159,1.278,0.872,1.188,1.646c-0.091,0.773-0.756,1.35-1.534,1.33
	c-0.541-0.015-1.028,0.318-1.213,0.825c-0.185,0.507-0.023,1.076,0.399,1.411c0.668,0.529,1.431,0.948,2.233,1.232
	c0.943,0.332,2.473,0.574,1.806-0.163c0,0-0.001,0,0,0c-0.238-0.264-0.576-0.415-0.93-0.417c-1.296-0.005-0.89-1.194-0.188-0.877
	c0.771,0.35,2.926,0.582,1.43-0.859c-0.184-0.179-0.203-0.468-0.044-0.667c0.248-0.314,0.449-0.665,0.597-1.036
	c0.31-0.793,0.25-0.538,1.266-0.229c0.174,0.053,0.355,0.019,0.495-0.08c0.286-0.2,0.669-0.355,0.39-0.566
	c-0.236-0.181,0.249-0.595,0.422-0.537c0.294,0.101,0.619,0.006,0.814-0.237c0.151-0.19,0.197-0.44,0.133-0.666
	c-0.172-0.582,0.305-2.157,1.137-2.465c0.202-0.074,0.422-0.081,0.629-0.018c0-0.001,0.001-0.001,0.001-0.003
	c0.172-0.16,0.377-0.285,0.597-0.365c0.372-0.137,1.006-0.41,1.454-0.797c0.457-0.396,1.08-0.549,1.669-0.406
	c0.005,0.001,0.012,0,0.016-0.005c0.184-0.202,0.177-0.513-0.016-0.707c-0.35-0.35-1.541-0.958-1.365-1.42
	c0.057-0.151,0.795-0.33,0.896-0.96c0.068-0.433-0.173-0.855-0.581-1.016c-12.323-4.839-25.585-7.803-39.439-8.562
	c-2.551,1.579-5.104,3.339-7.401,5.243c-8.389,6.95-21.638,9.827-21.338,9.056c-1.266,0.016-1.601-0.328-1.601-0.328
	c-0.413,0.105-0.779,0.341-1.124,0.098c-0.003-0.001-0.006-0.003-0.008-0.005c0.014-0.166-0.062-0.324-0.198-0.417
	c-0.442-0.299-1.31,0.403-3.409,1.469c-0.008,0.003-0.017,0.008-0.023,0.012c-0.039,0.02-0.079,0.04-0.116,0.06
	c-0.886,0.47-1.879,0.581-2.55,0.592c-0.484,0.008-0.955,0.101-1.406,0.28c-0.069,0.026-0.146,0.001-0.185-0.061
	c-0.153-0.249,0.613-0.528,0.888-0.633c0.252-0.098,0.133-0.38-0.918,0.221c-0.227,0.129-0.495,0.165-0.749,0.1
	c-1.053-0.268-2.315,0.575-3.148,1.27c-0.13,0.108-0.298,0.17-0.499,0.086c-0.291-0.124-0.548-0.08-0.461,0.371
	c0.098,0.484-2.676,1.711-2.725,1.502c-0.055-0.151-0.212-0.239-0.367-0.206c-0.364,0.077-0.804,0.372-1.046,0.829
	c-0.444,0.839-1.648,0.98-2.239,1.471c-0.607,0.505-1.511,1.008-1.511,1.008c-0.332,0.384-0.558,0.599-0.91,0.613
	c-0.346,0.015-0.547-0.591-0.394-0.824c0.092-0.14,0.758-0.794,0.598-0.828c-0.066-0.013-0.123-0.055-0.154-0.115
	c-0.113-0.217,0.407-0.446,0.273-0.712c-0.09-0.178-1.094-0.236-1.172-0.327c-0.059-0.066-0.071-0.161-0.032-0.24
	c0.623-1.268,0.705-1.349,1.552-2.187c-0.003-0.005-0.007-0.009-0.009-0.014c-0.089-0.131-0.089-0.305,0.001-0.436
	c0.475-0.69,2.045-2.756,3.875-3.005c0.485-0.069,0.172-0.169,0.172-0.169c-0.458-0.18-1.041-0.309-0.708-0.671
	c0.65-0.708,1.646-1.649,2.76-2.204c0.533-0.265,1.032-0.588,1.491-0.968c0.455-0.375,1.984-1.04,3.64-1.115
	c0.002,0,0.004-0.001,0.007-0.001c1.38-0.089,5.03-2.575,5.06-2.609c-0.001-0.001-0.002-0.001-0.004-0.003
	c-0.112-0.107,0.058-0.478,0.023-0.668c-0.015-0.079,0.024-0.158,0.096-0.196c0.358-0.189,0.774-0.259,1.146-0.422
	c0.05-0.021,0.084-0.066,0.093-0.121c0.02-0.139-0.14-0.23-0.272-0.181c-0.755,0.281-1.072,0.397-1.248,0.45
	c-0.097,0.029-0.199-0.014-0.247-0.101c-0.048-0.087-0.027-0.196,0.048-0.261c0.867-0.749,2.034-0.76,3.064-1.116
	c0.447-0.155,0.45-1.108-0.486-0.954c-4.607,0.759-8.794,2.13-13.166,3.576c0,0.003,0.002,0.006,0.003,0.009
	c0.03,0.129-0.882,0.565-0.993,0.678c-0.058,0.056-0.08,0.14-0.058,0.217c0.001,0.004,0.002,0.01,0.004,0.015
	c0.056,0.005,0.073,0.074,0.03,0.106c-0.173,0.13-0.502-0.003-0.602,0.184c-0.117,0.223,0.3,0.136,0.379,0.291
	c0.06,0.117,0.038,0.258-0.052,0.351c-0.001,0.001-0.002,0.001-0.002,0.003c-0.136,0.139-0.818,0.438-0.923,0.313
	c-0.096-0.118-0.114-0.22-0.249-0.134c-0.488,0.315-0.797,0.503-1.078,0.553c-0.985,0.171-2.237,0.698-2.237,0.698
	c0.148-0.127,0.615-0.568,0.694-0.734c0.269-0.544,0.562-0.714,0.889-0.802c0.235-0.061,0.272-0.393-0.784,0.008
	c-0.952,0.359-1.832,0.912-2.571,1.611c-0.622,0.585-1.356,1.222-1.884,1.496c0.1-0.17,0.025-0.214-0.046-0.178
	c-0.062,0.032-0.562,0.485-0.763,0.431c-0.632-0.17,0.192-0.528,0.192-1.155c0.065-0.105,0.149-0.188,0.241-0.266
	c-0.002,0-0.003,0-0.004,0.002c-0.719,0.306-1.367,0.767-1.895,1.342c-0.426,0.464-0.774,1.019-1.232,0.567
	c-0.219-0.214-0.549-0.275-0.83-0.143c-1.756,0.82-3.488,1.682-5.199,2.579c-0.182,0.095-0.353,0.209-0.51,0.341
	c-0.117,0.1-0.196,0.24-0.217,0.393c-0.027,0.183-0.338,0.584-0.453,0.777c-0.053,0.087-0.051,0.196,0.004,0.282
	c0.157,0.241,0.68,0.065,0.955-0.025c0.392-0.129,0.82,0.031,1.032,0.384c0.206,0.345,0.153,0.786-0.128,1.072
	c-0.232,0.238-0.458,0.502-0.658,0.768c-0.421,0.561-0.814,1.148-1.417,1.528c-0.368,0.232-0.72,0.498-1.043,0.787
	c-3.297,2.956-3.404,8.336-5.83,9.419c-0.005,0.003-0.011,0.006-0.017,0.007c-1.86,0.826-2.51,0.113-4.738,0.944
	c-0.434,0.163-0.84,0.045-1.249-0.063c-0.347-0.093-0.628-0.344-0.761-0.678c0,0,0-0.001,0-0.001
	c-0.489-1.241-1.892-1.852-3.134-1.364c-0.208,0.083-0.427,0.118-0.671,0.054c-0.004-0.001-0.008-0.004-0.012-0.008
	c-0.001-0.001-0.003-0.003-0.006-0.004c-0.407,0.118-3.019,0.95-2.833,1.318c0.001,0.002,4.599-1.403,3.564,1.08
	c-0.001,0.001-0.005,0.001-0.007,0.003c-0.172,0.049-0.312,0.17-0.389,0.332c-0.111,0.235-0.246,0.369-0.629,0.457
	c-0.439,0.101-0.902-0.022-1.232-0.328c-0.004-0.003-0.008-0.004-0.01-0.004c-0.234,0.039-0.337,0.618-0.243,0.777
	c0.121,0.206,0.729,0.205,0.1,0.592c-0.37,0.226-0.868,0.347-1.035,0.751c-0.196,0.476-0.438,0.932-0.726,1.36
	c-0.298,0.447,0.353,0.59-0.155,1.001c-0.606,0.491-2.694,0.018-3.423,0.155c-0.001,0-1.256,0.122-2.012,0.386
	c-0.755,0.265-2.117,0.604-2.867,1.512c-1.293,1.563-1.181,1.891-2.691,1.47c-0.086-0.024-0.178,0.001-0.239,0.066
	c-15.396,16.336-26.515,36.745-31.579,59.438c-0.003,0.019-0.008,0.038-0.013,0.057c-0.334,1.446-0.714,3.215-1.272,6.531
	c-0.013,0.078-0.012,0.156,0.004,0.234c0.076,0.37,0.149,0.466,0.621,0.466c1.119,0,2.078,0.792,2.283,1.892
	c0.053,0.316,0.242,0.538,0.498,0.642c0.249,0.102,0.531,0.082,0.797-0.105c0.17-0.121,1.125,0.711,1.187,1.728
	c0.033,0.549,0.244,1.177,0.352,1.719c0.13,0.654-0.042,1.331-0.468,1.844c-0.066,0.08-0.09,0.186-0.064,0.286
	c0.537,2.092,2.96,11.001,3.461,11.463c0.289-0.055,0.526,0.041,0.686,0.22c4.896,5.521,10.424,14.532,10.266,17.356
	c-1.104,2.069-0.986,1.962-0.07,3.084c1.705,2.095,1.676,2.195,1.029,4.349c0,0,0.002-0.001,0.002-0.001
	c0.377-0.612,1.046-0.983,1.765-0.983c0.72,0.001,1.386,0.373,1.765,0.985c0.28,0.455,0.562,0.908,0.944,1.25
	c1.009,0.905,1.53,2.234,1.406,3.583c0,0.004,1.552,0.016,3.702,1.633c2.724,2.048,12.34,13.059,12.717,16.077
	c0.168,1.344-0.383,2.662-1.071,3.828c-0.794,1.343-3.359,4.132-3.796,5.636c-0.216,0.746-1.412,1.085-1.403,1.53
	c0.013,0.609,0.198,1.881,1.077,4.392c0.262,0.741,0.867,6.24,0.567,8.459c-0.177,1.298-0.173,1.531,0.146,2.96
	c0.103,0.445-1.016,1.721-1.787,1.169c-0.968-0.69-1.773-0.588-1.874-0.386c-0.001,0.002-0.001,0.003-0.002,0.004
	c-1.334,2.188-6.137,2.578-5.068,4.908c0.316,0.688,0.637,1.377,0.911,2.076c0.324,0.824,0.503,1.709,0.53,2.593
	c0.009,0.381,1.336,3.184,2.394,4.29c23.171,24.231,55.812,39.329,91.986,39.329C326.287,336.155,383.266,279.176,383.266,208.889z
	 M237.188,127.782c0.528-0.229,1.021-0.546,1.582-0.697c0.004-0.001,0.012-0.003,0.016-0.004c0.772-0.212,1.447-0.003,1.68-0.295
	c0.227-0.29,0.615-0.815,0.798-1.236c0.087-0.209-0.134-0.505,0.144-0.655c0.31-0.169,0.037-0.497,0.119-0.736
	c0.214-0.636,0.355-0.653,0.608-0.688c0.245-0.036,0.474-0.066,0.558-0.198c0.399-0.591-1.014-2.288-1.896-2.061
	c-0.918,0.236-1.656,1.574-1.963,1.556c-0.389-0.021-0.567-0.033-0.828,0.172c-0.201,0.155-0.227,0.412-0.376,0.597
	c-0.174,0.226-0.407,0.402-0.586,0.626c-0.149,0.184-0.204,0.346,0.006,0.536c0.155,0.136,0.24,0.212-0.216,0.802
	c-0.378,0.486-1,0.744-1.263,1.341c-0.093,0.217-0.081,0.647-0.05,0.819C235.64,128.284,236.605,128.034,237.188,127.782z"/>
</svg>
