<svg xmlns="http://www.w3.org/2000/svg" xmlns:xlink="http://www.w3.org/1999/xlink" version="1.1" id="Layer_1" x="0px" y="0px" viewBox="5.0 -10.0 100.0 135.0" enable-background="new 0 0 100 100" xml:space="preserve" height="100px" width="100px">
<path d="M87.5,13.3H12.7C7.9,13.3,4,17.2,4,22v56.1c0,4.8,3.9,8.7,8.7,8.7h74.8c4.8,0,8.7-3.9,8.7-8.7V22  C96.2,17.2,92.3,13.3,87.5,13.3z M41.9,37.6v-7c0-0.7,0.6-1.2,1.2-1.2h0.1c0.7,0,1.2,0.6,1.2,1.2v7c0,0.7-0.6,1.2-1.2,1.2h-0.1  C42.5,38.9,41.9,38.3,41.9,37.6z M48.8,37.6v-7c0-0.7,0.6-1.2,1.2-1.2h0.1c0.7,0,1.2,0.6,1.2,1.2v7c0,0.7-0.6,1.2-1.2,1.2h-0.1  C49.4,38.9,48.8,38.3,48.8,37.6z M55.7,37.6v-7c0-0.7,0.6-1.2,1.2-1.2h0.1c0.7,0,1.2,0.6,1.2,1.2v7c0,0.7-0.6,1.2-1.2,1.2H57  C56.3,38.9,55.7,38.3,55.7,37.6z M91.5,78.1c0,2.2-1.8,4-4,4H61.9v-3.8c0-0.5,0.4-1,1-1h6.8c0.5,0,1-0.4,1-1v-3.8c0-0.5,0.4-1,1-1  h14.1c0.5,0,1-0.4,1-1V25.1c0-0.5-0.4-1-1-1H14.6c-0.5,0-1,0.4-1,1v45.6c0,0.5,0.4,1,1,1h14.1c0.5,0,1,0.4,1,1v3.8c0,0.5,0.4,1,1,1  h6.8c0.5,0,1,0.4,1,1v3.8H12.7c-2.2,0-4-1.8-4-4V22c0-2.2,1.8-4,4-4h74.8c2.2,0,4,1.8,4,4V78.1z M62.6,37.6v-7  c0-0.7,0.6-1.2,1.2-1.2H64c0.7,0,1.2,0.6,1.2,1.2v7c0,0.7-0.6,1.2-1.2,1.2h-0.1C63.2,38.9,62.6,38.3,62.6,37.6z M69.5,37.6v-7  c0-0.7,0.6-1.2,1.2-1.2h0.1c0.7,0,1.2,0.6,1.2,1.2v7c0,0.7-0.6,1.2-1.2,1.2h-0.1C70.1,38.9,69.5,38.3,69.5,37.6z M37.6,30.6v7  c0,0.7-0.6,1.2-1.2,1.2h-0.1c-0.7,0-1.2-0.6-1.2-1.2v-7c0-0.7,0.6-1.2,1.2-1.2h0.1C37.1,29.4,37.6,30,37.6,30.6z M30.7,30.6v7  c0,0.7-0.6,1.2-1.2,1.2h-0.1c-0.7,0-1.2-0.6-1.2-1.2v-7c0-0.7,0.6-1.2,1.2-1.2h0.1C30.2,29.4,30.7,30,30.7,30.6z"/>
</svg>