<svg xmlns="http://www.w3.org/2000/svg" xmlns:xlink="http://www.w3.org/1999/xlink" xmlns:sketch="http://www.bohemiancoding.com/sketch/ns" width="100px" height="100px" viewBox="5.0 -10.0 100.0 135.0" version="1.1">
    <!-- Generator: Sketch 3.0.2 (7799) - http://www.bohemiancoding.com/sketch -->
    <title>pie_chart_6</title>
    <description>Created with Sketch.</description>
    <defs/>
    <g id="Statistics" stroke="none" stroke-width="1" fill="none" fill-rule="evenodd" sketch:type="MSPage">
        <path d="M72.9822896,76.3979211 C66.8336927,81.7554588 58.7957479,85 50,85 C40.9011062,85 32.6131511,81.5279583 26.3887544,75.8364943 L34.1783487,68.0469 C38.4024723,71.7531439 43.9388455,74 50,74 C55.7575534,74 61.0415809,71.9725951 65.1771183,68.5927498 L72.9822896,76.3979211 Z M75.8441228,73.6029001 C81.5310606,67.3794416 85,59.0948279 85,50 C85,30.6700338 69.3299662,15 50,15 C40.9051721,15 32.6205584,18.4689394 26.3970999,24.1558772 L34.1868592,31.9456365 C38.4099072,28.2438399 43.9429151,26 50,26 C63.254834,26 74,36.745166 74,50 C74,56.0570849 71.7561601,61.5900928 68.0543635,65.8131408 L75.8441228,73.6029001 Z M23.6020789,27.0177104 C18.2445412,33.1663073 15,41.2042521 15,50 C15,58.7916775 18.2415389,66.8262531 23.5946423,72.9737522 L31.4000682,65.1683263 C28.024533,61.0340931 26,55.753474 26,50 C26,44.2424466 28.0274049,38.9584191 31.4072502,34.8228817 L23.6020789,27.0177104 Z M47.9999931,11.050396 L47.9999846,0.0392695779 C21.9763572,1.06298696 1.06298644,21.976358 0.0392695407,47.9999855 L0.0392689711,48 L11.0503956,48 C12.0580034,28.0527616 28.0527556,12.0580072 47.9999931,11.050396 L47.9999931,11.050396 Z M52,11.0503956 L52,0.0392689711 L52.0000154,0.0392695779 C78.6870747,1.08908504 100,23.0555923 100,50 C100,76.9444077 78.6870747,98.910915 52.0000154,99.9607304 L52,99.960731 L52,88.9496044 C72.6096829,87.9085341 89,70.8683489 89,50 C89,29.1316511 72.6096829,12.0914659 52,11.0503956 L52,11.0503956 Z M47.9999931,88.949604 L47.9999846,99.9607304 C21.9763572,98.937013 1.06298644,78.023642 0.0392695407,52.0000145 L11.050396,52.0000065 C12.0580069,71.9472418 28.0527578,87.9419929 47.9999931,88.949604 L47.9999931,88.949604 Z" id="pie_chart_6" fill="#000000" sketch:type="MSShapeGroup"/>
    </g>
</svg>