<svg xmlns="http://www.w3.org/2000/svg" xmlns:xlink="http://www.w3.org/1999/xlink" version="1.1" id="Your_Icon" x="0px" y="0px" width="100px" height="100px" viewBox="5.0 -10.0 100.0 135.0" enable-background="new 0 0 100 100" xml:space="preserve">
<path d="M81.729,14.505c-0.058-0.081-0.22-0.303-0.242-0.323c-3.382-5.801-17.381-8.479-30.492-8.479  c-13.173,0-27.21,2.698-30.534,8.538c-0.02,0-0.201,0.264-0.281,0.404C3.161,44.354,6.946,63.265,13.11,73.9  c7.189,12.385,21.551,19.798,38.428,19.798c16.938,0,31.923-8.178,39.071-21.35C99.029,56.861,95.867,36.314,81.729,14.505z   M50.995,11.503c16.313,0,24.772,4.008,25.256,5.417c-0.484,1.511-8.943,5.519-25.256,5.519c-16.314,0-24.773-4.008-25.257-5.417  C26.222,15.512,34.68,11.503,50.995,11.503z M85.295,69.47c-6.084,11.217-19.034,18.186-33.757,18.186  c-14.681,0-27.108-6.284-33.191-16.798c-7.03-12.124-5.398-29.242,4.551-48.559c5.459,4.048,17.081,5.942,28.097,5.942  c11.159,0,22.962-1.934,28.318-6.104C89.927,40.325,92.062,57,85.295,69.47z"/>
<path d="M82.149,62.393C82.132,54.67,66.199,51.14,51.385,51.14c-9.019,0-18.475,1.312-24.482,4.112  c-0.534,0.243-1.036,0.486-1.505,0.777c-0.519,0.275-0.988,0.566-1.409,0.875c-0.469,0.34-0.874,0.68-1.247,1.036  c-0.405,0.388-0.761,0.793-1.052,1.229c-0.34,0.471-0.599,0.988-0.761,1.523c-0.195,0.533-0.291,1.101-0.291,1.699h-0.017  c0,11.967,13.812,21.713,30.764,21.713c4.857,0,9.456-0.793,13.535-2.233c0.584-0.179,1.134-0.39,1.685-0.615  c0.534-0.228,1.068-0.454,1.587-0.697c0.518-0.226,1.036-0.485,1.537-0.745c0.503-0.26,0.988-0.533,1.458-0.825  c0.485-0.274,0.939-0.567,1.393-0.89c0.47-0.293,0.922-0.616,1.345-0.939c0.437-0.324,0.856-0.664,1.262-1.021  c0.422-0.355,0.81-0.712,1.198-1.084c0.389-0.389,0.761-0.777,1.101-1.182c0.373-0.405,0.713-0.826,1.037-1.247  c0.34-0.438,0.646-0.891,0.939-1.345c0.307-0.469,0.582-0.955,0.841-1.439c0.26-0.52,0.503-1.037,0.714-1.571  c0.744-1.862,1.149-3.838,1.149-5.878H82.149z M63.739,57.844l7.366,7.383c-0.534,0.178-1.117,0.355-1.732,0.535l-8.29-8.291  C62.006,57.584,62.896,57.713,63.739,57.844z M58.558,57.229l9.002,9.002c-0.6,0.13-1.23,0.275-1.895,0.389l-9.552-9.553  C56.954,57.099,57.764,57.163,58.558,57.229z M53.731,56.969l10.008,10.007c-0.633,0.097-1.297,0.194-1.992,0.29l-10.33-10.329  C52.211,56.937,52.971,56.953,53.731,56.969z M49.167,56.969l10.507,10.509c-0.68,0.081-1.376,0.146-2.104,0.178L46.948,57.033  C47.661,57.001,48.405,56.985,49.167,56.969z M44.811,57.18l10.622,10.621c-0.713,0.032-1.457,0.049-2.218,0.064L42.722,57.373  C43.386,57.293,44.083,57.229,44.811,57.18z M40.666,57.601l10.266,10.282c-0.794,0-1.57-0.018-2.316-0.05l-9.942-9.941  C39.306,57.795,39.97,57.697,40.666,57.601z M36.764,58.265l9.472,9.472c-0.858-0.049-1.667-0.113-2.46-0.178l-8.89-8.889  C35.485,58.523,36.116,58.394,36.764,58.265z M33.088,59.154l8.128,8.129c-0.939-0.113-1.83-0.243-2.672-0.389l-7.189-7.189  C31.89,59.511,32.473,59.332,33.088,59.154z M29.704,60.337l6.007,6.007c-1.133-0.242-2.153-0.518-3.077-0.793l-4.468-4.469  C28.586,60.839,29.105,60.596,29.704,60.337z M26.563,62.474c0.033-0.13,0.13-0.274,0.292-0.421l2.169,2.17  C27.519,63.527,26.692,62.879,26.563,62.474z M72.79,64.611l-6.251-6.25c1.103,0.227,2.104,0.469,3.013,0.729l4.792,4.793  C73.906,64.109,73.389,64.368,72.79,64.611z M75.72,62.976l-2.688-2.687c1.959,0.809,3.027,1.586,3.19,2.072  C76.158,62.539,75.995,62.749,75.72,62.976z"/>
</svg>