<svg xmlns="http://www.w3.org/2000/svg" xmlns:xlink="http://www.w3.org/1999/xlink" version="1.1" id="Layer_1" x="0px" y="0px" width="100px" height="100px" viewBox="5.0 -10.0 100.0 135.0" enable-background="new 0 0 100 100" xml:space="preserve">
<g>
	<path d="M-287,38.378c0.007-0.068,0.021-0.134,0.021-0.204c0-0.638-0.299-1.207-0.764-1.573l-1.642-1.642l-12.338-12.379   c-0.375-0.376-0.88-0.583-1.417-0.588l-27.859,0.015c-1.104,0-1.999,0.896-1.999,2v52c0,1.104,0.896,2,2,2h42   c0.007,0,0.014,0,0.02,0c1.104,0,2-0.896,2-2c0-0.096-0.007-0.191-0.02-0.284L-287,38.378z M-293.828,36.174h-7.338v-7.338   L-293.828,36.174z M-329,74.007V26.006l23.834-0.013v12.181c0,1.104,0.896,2,2,2H-291l0,33.833H-329z"/>
	<path d="M-323.083,51.174h26.167c1.105,0,2-0.896,2-2s-0.895-2-2-2h-26.167c-1.104,0-2,0.896-2,2S-324.188,51.174-323.083,51.174z"/>
	<path d="M-296.917,54.674h-26.167c-1.104,0-2,0.896-2,2s0.896,2,2,2h26.167c1.105,0,2-0.896,2-2S-295.812,54.674-296.917,54.674z"/>
	<path d="M-296.917,62.008h-26.167c-1.104,0-2,0.896-2,2s0.896,2,2,2h26.167c1.105,0,2-0.896,2-2S-295.812,62.008-296.917,62.008z"/>
</g>
<g>
	<path d="M-167,38.377c0.007-0.068,0.021-0.133,0.021-0.203c0-0.638-0.299-1.207-0.764-1.573l-1.642-1.642l-12.338-12.379   c-0.375-0.377-0.853-0.574-1.417-0.588l-27.859,0.015c-1.104,0-1.999,0.896-1.999,2v52c0,1.104,0.896,2,2,2h42   c0.007,0,0.013,0,0.02,0c1.104,0,2-0.896,2-2c0-0.097-0.007-0.191-0.02-0.284L-167,38.377z M-173.828,36.174h-7.338v-7.338   L-173.828,36.174z M-209,74.007V26.006l23.834-0.013v12.181c0,1.104,0.896,2,2,2H-171l0,33.833H-209z"/>
	<path d="M-187.172,56.174l7.838-7.837c0.781-0.781,0.781-2.047,0-2.829c-0.781-0.781-2.047-0.781-2.828,0L-190,53.346l-7.838-7.838   c-0.781-0.781-2.047-0.781-2.828,0c-0.781,0.781-0.781,2.047,0,2.829l7.837,7.837l-7.837,7.837c-0.781,0.781-0.781,2.047,0,2.829   c0.391,0.391,0.902,0.586,1.414,0.586s1.023-0.195,1.414-0.586l7.837-7.837l7.837,7.837c0.391,0.391,0.902,0.586,1.414,0.586   s1.023-0.195,1.414-0.586c0.781-0.781,0.781-2.047,0-2.829L-187.172,56.174z"/>
</g>
<g>
	<path d="M-42.208,57.75H-58.25v-15.5h16.042c1.104,0,2-0.896,2-2s-0.896-2-2-2H-58.25V22.208c0-1.104-0.896-2-2-2s-2,0.896-2,2   V38.25h-15.5V22.208c0-1.104-0.896-2-2-2s-2,0.896-2,2V38.25h-16.042c-1.104,0-2,0.896-2,2s0.896,2,2,2h16.042v15.5h-16.042   c-1.104,0-2,0.896-2,2s0.896,2,2,2h16.042v16.042c0,1.104,0.896,2,2,2s2-0.896,2-2V61.75h15.5v16.042c0,1.104,0.896,2,2,2   s2-0.896,2-2V61.75h16.042c1.104,0,2-0.896,2-2S-41.104,57.75-42.208,57.75z M-77.75,57.75v-15.5h15.5v15.5H-77.75z"/>
	<path d="M-91.367,63.651c-4.205,0-7.625,3.42-7.625,7.625s3.42,7.625,7.625,7.625s7.625-3.42,7.625-7.625   S-87.163,63.651-91.367,63.651z M-91.367,74.901c-1.999,0-3.625-1.626-3.625-3.625s1.626-3.625,3.625-3.625   s3.625,1.626,3.625,3.625S-89.368,74.901-91.367,74.901z"/>
	<path d="M-67.456,50.089l2.387-2.387c0.781-0.781,0.781-2.047,0-2.828c-0.781-0.781-2.047-0.781-2.828,0l-2.387,2.387l-2.387-2.387   c-0.781-0.781-2.047-0.781-2.828,0c-0.781,0.781-0.781,2.047,0,2.828l2.387,2.387l-2.387,2.387c-0.781,0.781-0.781,2.047,0,2.828   c0.39,0.391,0.902,0.586,1.414,0.586s1.024-0.195,1.414-0.586l2.387-2.387l2.387,2.387c0.39,0.391,0.902,0.586,1.414,0.586   s1.024-0.195,1.414-0.586c0.781-0.781,0.781-2.047,0-2.828L-67.456,50.089z"/>
	<path d="M-44.944,44.749c-0.781-0.781-2.047-0.781-2.828,0l-2.387,2.387l-2.387-2.387c-0.781-0.781-2.047-0.781-2.828,0   c-0.781,0.781-0.781,2.047,0,2.828l2.387,2.387l-2.387,2.387c-0.781,0.781-0.781,2.047,0,2.828c0.39,0.391,0.902,0.586,1.414,0.586   s1.024-0.195,1.414-0.586l2.387-2.387l2.387,2.387c0.39,0.391,0.902,0.586,1.414,0.586s1.024-0.195,1.414-0.586   c0.781-0.781,0.781-2.047,0-2.828l-2.387-2.387l2.387-2.387C-44.163,46.796-44.163,45.53-44.944,44.749z"/>
	<path d="M-48.742,36.276c4.205,0,7.625-3.42,7.625-7.625s-3.42-7.625-7.625-7.625s-7.625,3.42-7.625,7.625   S-52.947,36.276-48.742,36.276z M-48.742,25.026c1.999,0,3.625,1.626,3.625,3.625s-1.626,3.625-3.625,3.625   s-3.625-1.626-3.625-3.625S-50.741,25.026-48.742,25.026z"/>
</g>
<path d="M78.966,44.914l-8.688-4.918v-11.33c0-1.104-0.896-2-2-2h-7.334c-1.103,0-1.998,0.893-2,1.995l-0.012,4.909l-7.958-4.519  c-0.612-0.348-1.363-0.348-1.976,0l-15.463,8.79l-12.502,7.077c-0.961,0.544-1.299,1.765-0.755,2.726  c0.368,0.65,1.045,1.015,1.743,1.015c0.333,0,0.672-0.084,0.983-0.26l1.442-0.816v23.75c0,1.104,0.896,2,2,2h47.106  c1.104,0,2-0.896,2-2V47.579l1.442,0.816c0.312,0.176,0.65,0.26,0.983,0.26c0.697,0,1.375-0.365,1.743-1.015  C80.266,46.679,79.927,45.458,78.966,44.914z M66.278,30.667v7.065l-3.351-1.896l0.012-5.169H66.278z M45.75,69.333V51.166h8.5  v18.167H45.75z M71.553,69.333H58.25V49.166c0-1.104-0.896-2-2-2h-12.5c-1.104,0-2,0.896-2,2v20.167H28.447V45.336l6.792-3.861  l14.765-8.357l9.007,5.099l0.833,0.473c0.035,0.022,0.062,0.054,0.098,0.074l4.616,2.603l6.995,3.972V69.333z"/>
<g>
	<path d="M197.912,19.841h-10.5c-1.104,0-2,0.896-2,2s0.896,2,2,2h5.687l-35.067,35.068h-9.692c-1.104,0-2,0.896-2,2s0.896,2,2,2   h8.5v8.5c0,1.104,0.896,2,2,2s2-0.896,2-2v-9.652l35.073-35.073v5.657c0,1.104,0.896,2,2,2s2-0.896,2-2v-10.5   C199.912,20.736,199.016,19.841,197.912,19.841z"/>
	<path d="M152.589,65.659h-10.5c-1.104,0-2,0.896-2,2s0.896,2,2,2h8.5v8.5c0,1.104,0.896,2,2,2s2-0.896,2-2v-10.5   C154.589,66.554,153.693,65.659,152.589,65.659z"/>
</g>
<path d="M314.419,39.546c-1.033-5.128-5.394-9.603-10.368-10.638c-4.889-1.018-10.566-0.081-13.884,3.869  c-3.317-3.95-8.995-4.887-13.884-3.869c-4.975,1.036-9.335,5.51-10.369,10.638c-3.93,19.493,23.047,31.646,23.321,31.764  c0.256,0.11,0.523,0.162,0.786,0.162c0.05,0,0.096-0.018,0.146-0.021c0.049,0.003,0.095,0.021,0.145,0.021  c0.263,0,0.53-0.052,0.787-0.162C291.372,71.192,318.35,59.038,314.419,39.546z M290.168,67.321  c-3.9-1.942-23.274-12.394-20.333-26.985c0.72-3.57,3.843-6.8,7.264-7.512c4.343-0.904,9.481,0.159,11.194,4.564  c0.176,0.475,0.528,0.877,1.013,1.108c0.024,0.012,0.047,0.025,0.072,0.036c0.023,0.01,0.042,0.024,0.066,0.034  c0.06,0.023,0.12,0.032,0.18,0.049c0.047,0.013,0.093,0.028,0.142,0.038c0.073,0.015,0.145,0.022,0.218,0.029  c0.061,0.006,0.121,0.012,0.183,0.012s0.122-0.006,0.182-0.012c0.073-0.006,0.146-0.014,0.219-0.029  c0.048-0.01,0.094-0.024,0.141-0.038c0.06-0.017,0.121-0.026,0.181-0.049c0.024-0.009,0.043-0.024,0.067-0.034  c0.024-0.011,0.047-0.024,0.071-0.036c0.486-0.231,0.838-0.633,1.014-1.109c1.712-4.405,6.85-5.468,11.194-4.564  c3.421,0.712,6.543,3.942,7.263,7.513C313.445,54.951,293.999,65.415,290.168,67.321z"/>
<path d="M429.841,61.431c-1.104,0-2,0.896-2,2v3.452l-4.694-4.694c4.752-4.363,8.888-10.49,7.373-18.005  c-0.846-4.198-4.418-7.861-8.495-8.71c-3.838-0.799-8.267-0.103-11.021,2.838c-2.753-2.94-7.182-3.637-11.02-2.838  c-0.906,0.188-1.785,0.523-2.617,0.965l-3.552-3.583v-7.454c0-1.104-0.896-2-2-2s-2,0.896-2,2v6.269h-6.269c-1.104,0-2,0.896-2,2  s0.896,2,2,2h7.428l3.228,3.257c-1.34,1.488-2.322,3.313-2.713,5.257c-3.145,15.596,18.39,25.391,18.608,25.485  c0.258,0.112,0.528,0.165,0.792,0.165c0.039,0,0.076-0.014,0.114-0.017c0.039,0.002,0.076,0.017,0.115,0.017  c0.269,0,0.542-0.055,0.804-0.169c0.091-0.04,3.934-1.769,8.13-4.914l4.949,4.949h-3.429c-1.104,0-2,0.896-2,2s0.896,2,2,2h8.269  c1.104,0,2-0.896,2-2v-8.269C431.841,62.326,430.946,61.431,429.841,61.431z M411.005,65.664  c-3.387-1.713-17.808-9.713-15.595-20.69c0.535-2.655,2.853-5.056,5.39-5.584c3.249-0.677,7.086,0.097,8.338,3.347  c0.138,0.361,0.378,0.678,0.702,0.91c0.009,0.006,0.018,0.015,0.027,0.021c0.079,0.054,0.165,0.1,0.253,0.143  c0.034,0.017,0.067,0.036,0.102,0.051c0.021,0.009,0.04,0.022,0.062,0.031c0.055,0.021,0.111,0.029,0.166,0.045  c0.052,0.015,0.104,0.032,0.158,0.043c0.07,0.014,0.14,0.021,0.21,0.028c0.062,0.006,0.124,0.012,0.187,0.012  c0.062,0,0.124-0.006,0.186-0.012c0.071-0.007,0.14-0.014,0.21-0.028c0.054-0.011,0.105-0.028,0.158-0.043  c0.056-0.016,0.111-0.024,0.166-0.045c0.022-0.008,0.04-0.022,0.062-0.031c0.035-0.015,0.067-0.035,0.102-0.051  c0.088-0.043,0.174-0.089,0.253-0.143c0.01-0.007,0.018-0.015,0.027-0.021c0.324-0.232,0.563-0.549,0.701-0.91  c1.252-3.25,5.09-4.023,8.339-3.347c2.538,0.528,4.854,2.929,5.389,5.584c1.164,5.772-2.279,10.724-6.295,14.371l-5.858-5.858  c-0.781-0.781-2.047-0.781-2.828,0c-0.781,0.781-0.781,2.047,0,2.828l5.561,5.561C414.561,63.782,412.146,65.087,411.005,65.664z"/>
<g>
	<path d="M554.252,39.545c-1.034-5.128-5.394-9.602-10.368-10.638c-4.889-1.018-10.566-0.081-13.884,3.869   c-3.318-3.95-8.996-4.887-13.884-3.869c-4.975,1.036-9.335,5.51-10.369,10.638c-3.93,19.493,23.047,31.646,23.321,31.764   c0.257,0.11,0.523,0.162,0.786,0.162c0.049,0,0.096-0.017,0.146-0.021c0.049,0.003,0.095,0.021,0.145,0.021   c0.263,0,0.53-0.052,0.787-0.162C531.205,71.192,558.183,59.038,554.252,39.545z M530.001,67.321   c-3.899-1.941-23.274-12.394-20.333-26.985c0.72-3.57,3.842-6.8,7.264-7.513c4.343-0.904,9.483,0.159,11.195,4.566   c0.176,0.475,0.528,0.875,1.012,1.105c0.025,0.012,0.048,0.026,0.073,0.037c0.023,0.01,0.042,0.024,0.066,0.033   c0.059,0.023,0.12,0.032,0.18,0.049c0.047,0.014,0.094,0.029,0.142,0.039c0.073,0.015,0.145,0.022,0.217,0.028   c0.062,0.006,0.122,0.012,0.184,0.012c0.061,0,0.121-0.006,0.181-0.012c0.073-0.006,0.146-0.014,0.219-0.029   c0.048-0.01,0.094-0.025,0.141-0.038c0.06-0.017,0.121-0.026,0.181-0.049c0.024-0.009,0.043-0.023,0.066-0.034   c0.025-0.011,0.048-0.024,0.072-0.036c0.485-0.231,0.837-0.632,1.013-1.107c1.711-4.406,6.851-5.469,11.194-4.565   c3.42,0.712,6.543,3.942,7.263,7.513C553.278,54.95,533.833,65.414,530.001,67.321z"/>
	<circle cx="520.571" cy="46.069" r="3.25"/>
	<circle cx="539.258" cy="46.069" r="3.25"/>
	<path d="M534.289,53.651c-4.115,3.967-7.851,0.722-8.559,0.029c-0.781-0.774-2.042-0.772-2.821,0.005   c-0.782,0.78-0.783,2.047-0.002,2.829c1.417,1.419,4.101,3.08,7.233,3.08c2.183,0,4.584-0.807,6.925-3.063   c0.795-0.767,0.818-2.033,0.052-2.828C536.351,52.907,535.084,52.884,534.289,53.651z"/>
</g>
<path d="M674.252,39.545c-1.034-5.128-5.394-9.603-10.368-10.638c-4.889-1.018-10.567-0.081-13.884,3.869  c-3.318-3.95-8.996-4.887-13.884-3.869c-4.975,1.036-9.335,5.51-10.369,10.638c-3.93,19.493,23.047,31.646,23.321,31.764  c0.257,0.11,0.523,0.162,0.786,0.162c0.05,0,0.096-0.018,0.146-0.021c0.049,0.003,0.095,0.021,0.145,0.021  c0.263,0,0.53-0.052,0.787-0.162C651.205,71.192,678.183,59.038,674.252,39.545z M650.001,67.32  c-3.899-1.941-23.273-12.394-20.333-26.985c0.72-3.57,3.842-6.8,7.264-7.512c4.212-0.877,9.165,0.105,11.022,4.185l-0.044,6.477  l-3.17,3.17c-0.726,0.726-0.785,1.883-0.135,2.679l5.715,7.003l-3.545,3.102c-0.832,0.728-0.916,1.991-0.188,2.822  c0.395,0.452,0.949,0.683,1.506,0.683c0.467,0,0.937-0.163,1.316-0.495l5-4.375c0.811-0.71,0.914-1.935,0.232-2.77l-5.794-7.1  l2.472-2.472c0.372-0.372,0.582-0.875,0.586-1.4l0.049-7.119c1.78-4.255,6.832-5.283,11.116-4.391  c3.42,0.712,6.543,3.942,7.263,7.513C673.278,54.95,653.833,65.415,650.001,67.32z"/>
<g>
	<path d="M794.838,33.735c-0.03-0.854-0.599-1.594-1.416-1.843l-22.818-6.951c-0.38-0.116-0.785-0.116-1.165,0l-22.819,6.951   c-0.308,0.094-0.563,0.273-0.786,0.486c-0.067,0.061-0.137,0.118-0.196,0.187c-0.019,0.024-0.034,0.05-0.051,0.075   c-0.267,0.345-0.426,0.767-0.426,1.214v30.62c0,0.83,0.513,1.574,1.289,1.869l22.799,8.671c0.042,0.016,0.086,0.023,0.13,0.036   c0.009,0.003,0.019,0.005,0.028,0.008c0.182,0.052,0.367,0.086,0.553,0.086c0.003,0,0.007-0.001,0.01-0.001s0.007,0.001,0.01,0.001   c0.186,0,0.371-0.034,0.553-0.086c0.009-0.003,0.019-0.005,0.028-0.008c0.043-0.013,0.087-0.02,0.13-0.036l22.799-8.671   c0.776-0.295,1.289-1.039,1.289-1.869V34.22C794.812,34.062,794.844,33.902,794.838,33.735z M770.021,28.945l16.666,5.077   l-3.784,1.45l-12.931,4.918l-16.617-6.368L770.021,28.945z M767.959,70.246l-18.799-7.149V36.755l18.799,7.149V70.246z    M790.779,63.096l-18.799,7.149V43.941l12.508-4.793l6.291-2.393V63.096z"/>
	<path d="M754.134,45.846l5.833,2.25c0.237,0.091,0.48,0.134,0.719,0.134c0.803,0,1.561-0.487,1.866-1.281   c0.398-1.03-0.115-2.188-1.146-2.586l-5.833-2.25c-1.031-0.397-2.188,0.116-2.585,1.146   C752.59,44.29,753.104,45.448,754.134,45.846z"/>
</g>
<g>
	<path d="M903.538,36.708c0-3.019-1.176-5.858-3.312-7.993c-2.135-2.135-4.974-3.311-7.994-3.311c-3.019,0-5.857,1.176-7.991,3.31   L867.77,45.188c-2.135,2.135-3.312,4.974-3.312,7.993s1.176,5.858,3.312,7.994c2.135,2.135,4.974,3.311,7.993,3.311   c3.02,0,5.858-1.176,7.992-3.311l16.473-16.472C902.363,42.567,903.539,39.729,903.538,36.708z M880.926,58.346   c-1.379,1.38-3.212,2.139-5.164,2.139c-1.951,0-3.785-0.76-5.165-2.139c-1.379-1.38-2.14-3.214-2.14-5.166s0.76-3.785,2.14-5.165   l6.069-6.069c0.015,0.002,0.029,0.008,0.045,0.01c0.278,0.034,4.64,0.627,7.899,3.428l-2.911,2.759   c-0.802,0.76-0.835,2.026-0.076,2.828c0.394,0.415,0.922,0.624,1.452,0.624c0.494,0,0.989-0.182,1.375-0.548l2.638-2.5   c0.404,0.814,0.706,1.73,0.881,2.754L880.926,58.346z M897.399,41.874l-6.166,6.166c-0.316-0.838-0.704-1.613-1.15-2.331   l6.368-6.036c0.802-0.76,0.835-2.026,0.076-2.828c-0.76-0.802-2.026-0.835-2.828-0.076l-6.197,5.874   c-2.292-2.073-5.062-3.365-7.471-4.062l7.039-7.039c1.378-1.379,3.211-2.138,5.162-2.138c1.952,0,3.786,0.76,5.166,2.139   c1.38,1.38,2.14,3.214,2.14,5.166C899.539,38.66,898.779,40.494,897.399,41.874z"/>
	<path d="M904.513,52.539c-6.081,0-11.028,4.947-11.028,11.028c0,6.082,4.947,11.029,11.028,11.029   c6.082,0,11.029-4.948,11.029-11.029C915.542,57.486,910.594,52.539,904.513,52.539z M904.513,56.539   c0.882,0,1.723,0.17,2.501,0.468l-8.588,10.06c-0.596-1.032-0.942-2.225-0.942-3.5C897.484,59.691,900.637,56.539,904.513,56.539z    M904.513,70.596c-1.146,0-2.226-0.282-3.183-0.771l8.863-10.382c0.844,1.16,1.349,2.582,1.349,4.124   C911.542,67.443,908.389,70.596,904.513,70.596z"/>
</g>
<path d="M1029.351,56.749c-0.927-0.601-2.165-0.336-2.766,0.591c-4.819,7.438-9.782,11.65-14.801,12.605v-18.61h10.769  c1.104,0,2-0.896,2-2s-0.896-2-2-2h-10.769v-7.404c2.996-0.869,5.194-3.633,5.194-6.905c0-3.967-3.227-7.194-7.194-7.194  c-3.966,0-7.193,3.228-7.193,7.194c0,3.272,2.198,6.035,5.193,6.905v7.404h-10.769c-1.104,0-2,0.896-2,2s0.896,2,2,2h10.769v18.692  c-0.01-0.001-0.021-0.002-0.031-0.003c-7.759-1.224-13.43-9.826-14.085-12.27c-0.286-1.067-1.382-1.7-2.45-1.414  c-1.067,0.286-1.7,1.383-1.414,2.45c0.96,3.581,7.742,13.672,17.326,15.185c0.842,0.133,1.68,0.199,2.513,0.199  c7.171,0,13.989-4.919,20.3-14.66C1030.543,58.588,1030.278,57.349,1029.351,56.749z M1006.591,33.027  c0-1.761,1.433-3.194,3.193-3.194c1.761,0,3.194,1.433,3.194,3.194c0,1.761-1.433,3.193-3.194,3.193  C1008.023,36.22,1006.591,34.788,1006.591,33.027z"/>
<path d="M1130,29.844c-11.114,0-20.155,9.042-20.155,20.156s9.042,20.156,20.155,20.156c11.114,0,20.156-9.042,20.156-20.156  S1141.114,29.844,1130,29.844z M1146.156,50c0,2.384-0.532,4.641-1.463,6.68L1132,47.937V33.981  C1139.966,34.971,1146.156,41.771,1146.156,50z M1128,33.981v13.957l-12.692,8.742c-0.931-2.039-1.463-4.296-1.463-6.68  C1113.845,41.771,1120.034,34.971,1128,33.981z M1117.405,60.093L1128,52.795v13.224  C1123.729,65.488,1119.973,63.292,1117.405,60.093z M1132,66.019V52.794l10.596,7.298C1140.027,63.292,1136.271,65.488,1132,66.019z  "/>
<g>
	<path d="M1265.811,30.424h-29.918c-4.132,0-7.493,3.361-7.493,7.493v20.207c0,4.132,3.361,7.493,7.493,7.493h17.87l6.866,10.719   c0.375,0.584,1.015,0.921,1.684,0.921c0.185,0,0.372-0.025,0.557-0.079c0.851-0.247,1.438-1.024,1.443-1.91l0.054-9.651h1.444   c4.132,0,7.493-3.361,7.493-7.493V37.917C1273.304,33.785,1269.942,30.424,1265.811,30.424z M1269.304,58.124   c0,1.926-1.567,3.493-3.493,3.493h-3.433c-1.1,0-1.994,0.889-2,1.989l-0.027,4.879l-3.809-5.947   c-0.368-0.574-1.002-0.921-1.684-0.921h-18.964c-1.926,0-3.493-1.567-3.493-3.493V37.917c0-1.926,1.567-3.493,3.493-3.493h29.918   c1.926,0,3.493,1.567,3.493,3.493V58.124z"/>
	<circle cx="1241.227" cy="47.424" r="2.833"/>
	<circle cx="1250.852" cy="47.424" r="2.833"/>
	<circle cx="1260.476" cy="47.424" r="2.833"/>
</g>
<path d="M1395.413,36.359h-12.082V31.03c0-4.167-3.391-7.557-7.558-7.557h-30.268c-4.167,0-7.557,3.39-7.557,7.557v20.444  c0,4.167,3.39,7.557,7.557,7.557h1.485l0.054,9.788c0.005,0.886,0.592,1.663,1.443,1.91c0.184,0.054,0.372,0.079,0.557,0.079  c0.669,0,1.31-0.337,1.684-0.921l6.953-10.855h5.831v1.028c0,3.66,2.978,6.638,6.639,6.638h14.919l5.706,8.908  c0.375,0.584,1.015,0.921,1.684,0.921c0.185,0,0.373-0.025,0.557-0.079c0.851-0.247,1.438-1.024,1.443-1.91l0.043-7.84h0.91  c3.66,0,6.638-2.978,6.638-6.638V42.997C1402.051,39.337,1399.073,36.359,1395.413,36.359z M1356.587,55.031  c-0.682,0-1.316,0.347-1.684,0.921l-3.896,6.083l-0.027-5.015c-0.006-1.1-0.9-1.989-2-1.989h-3.474  c-1.961,0-3.557-1.596-3.557-3.557V31.03c0-1.961,1.595-3.557,3.557-3.557h30.268c1.962,0,3.558,1.596,3.558,3.557v5.329h-9.18  c-3.661,0-6.639,2.978-6.639,6.638v12.034H1356.587z M1398.051,60.06c0,1.455-1.183,2.638-2.638,2.638h-2.899  c-1.101,0-1.994,0.889-2,1.989l-0.017,3.067l-2.649-4.135c-0.368-0.574-1.002-0.921-1.684-0.921h-16.013  c-1.455,0-2.639-1.183-2.639-2.638V42.997c0-1.455,1.184-2.638,2.639-2.638h25.262c1.455,0,2.638,1.183,2.638,2.638V60.06z"/>
<path d="M1516.875,57.759c0-2.891-1.271-5.501-3.304-7.371v-4.427c0-5.539-4.912-10.045-10.949-10.045h-3.951l4.734-4.411  c0.808-0.753,0.853-2.019,0.1-2.827s-2.019-0.853-2.827-0.1l-7.333,6.833c-0.16,0.149-0.282,0.323-0.382,0.505h-4.572  c-6.038,0-10.95,4.506-10.95,10.045v1.52h-3.471c-5.98,0-10.845,4.611-10.845,10.278c0,4.02,2.455,7.493,6.013,9.179  c0.829,2.894,3.493,5.021,6.649,5.021c2.74,0,5.106-1.605,6.227-3.921h17.916c1.12,2.316,3.487,3.921,6.227,3.921  c3.643,0,6.63-2.831,6.895-6.407C1515.382,63.666,1516.875,60.882,1516.875,57.759z M1509.571,45.961v2.094  c-1.112-0.366-2.3-0.574-3.542-0.574h-9.19v-7.565h5.783C1506.454,39.916,1509.571,42.628,1509.571,45.961z M1481.441,45.961  c0-3.333,3.118-6.045,6.95-6.045h4.448v7.565h-11.397V45.961z M1473.97,51.481h32.059c3.775,0,6.846,2.816,6.846,6.278  c0,1.221-0.384,2.361-1.044,3.326c-1.252-1.792-3.327-2.968-5.673-2.968c-3.475,0-6.353,2.578-6.84,5.92h-16.69  c-0.488-3.343-3.365-5.92-6.84-5.92c-2.88,0-5.353,1.77-6.394,4.278c-1.384-1.148-2.269-2.792-2.269-4.636  C1467.125,54.297,1470.196,51.481,1473.97,51.481z M1475.788,67.958c-1.611,0-2.921-1.31-2.921-2.92s1.31-2.921,2.921-2.921  c1.61,0,2.92,1.311,2.92,2.921S1477.398,67.958,1475.788,67.958z M1506.158,67.958c-1.611,0-2.921-1.31-2.921-2.92  s1.31-2.921,2.921-2.921s2.921,1.311,2.921,2.921S1507.769,67.958,1506.158,67.958z"/>
<g>
	<g>
		<path d="M1637.133,70.083h-54.267c-1.104,0-2-0.896-2-2V31.917c0-1.104,0.896-2,2-2h54.267c1.104,0,2,0.896,2,2v36.167    C1639.133,69.188,1638.238,70.083,1637.133,70.083z M1584.867,66.083h50.267V33.917h-50.267V66.083z"/>
	</g>
	<g>
		<g>
			<path d="M1607.2,44.875h-17.1c-1.104,0-2-0.896-2-2s0.896-2,2-2h17.1c1.104,0,2,0.896,2,2S1608.304,44.875,1607.2,44.875z"/>
		</g>
		<g>
			<path d="M1607.2,52.375h-17.1c-1.104,0-2-0.896-2-2s0.896-2,2-2h17.1c1.104,0,2,0.896,2,2S1608.304,52.375,1607.2,52.375z"/>
		</g>
		<g>
			<path d="M1607.2,59.709h-17.1c-1.104,0-2-0.896-2-2s0.896-2,2-2h17.1c1.104,0,2,0.896,2,2S1608.304,59.709,1607.2,59.709z"/>
		</g>
	</g>
	<g>
		<circle cx="1623.325" cy="44.792" r="4.751"/>
	</g>
	<g>
		<path d="M1631.255,59.5c0.002-0.068,0.011-0.135,0.011-0.204c0-4.386-3.556-7.941-7.941-7.941s-7.941,3.555-7.941,7.941    c0,0.069,0.009,0.135,0.01,0.204H1631.255z"/>
	</g>
</g>
<g>
	<path fill="#000000" d="M3195.005,69.116c-0.498-2.042-1.923-3.277-2.382-3.548c-0.455-0.27-1.122-0.413-1.929-0.413   c-1.021,0-2.181,0.226-3.185,0.617c-0.025,0.01-0.047,0.018-0.071,0.028c-0.471,0.2-0.976,0.301-1.502,0.301   c-0.72,0-1.282-0.187-1.49-0.27l-0.049-0.02c-1.026-0.414-2.247-0.657-3.284-0.657c-0.807,0-1.475,0.143-1.93,0.413   c-0.459,0.271-1.882,1.507-2.382,3.548c-0.402,1.645-0.072,3.337,0.982,5.031c1.702,2.733,2.303,3.898,2.625,4.524   c0.241,0.466,0.298,0.577,0.551,0.843c0.276,0.288,1.256,1.039,2.465,1.039c0.76,0,1.492-0.298,2.176-0.88l0.304-0.258l0.303,0.258   c0.685,0.583,1.418,0.879,2.178,0.88h0.001c1.206,0,2.187-0.751,2.463-1.039c0.253-0.266,0.312-0.376,0.551-0.843   c0.323-0.626,0.924-1.792,2.626-4.524C3195.077,72.453,3195.407,70.761,3195.005,69.116z"/>
	<path fill="#000000" d="M3186.699,64.701l0.011-0.012c0,0,6.714,0.906,5.564-7.815l-0.01,0.013   C3183.648,58.652,3186.699,64.701,3186.699,64.701z"/>
	<path fill="#000000" d="M3180.496,61.489l0.007,0.006c0.935,4.557,4.134,2.944,4.134,2.944l-0.007-0.005   C3184.631,64.434,3185.111,60.879,3180.496,61.489z"/>
	<circle fill="#000000" cx="3167.703" cy="23.716" r="2.014"/>
	<path fill="#000000" d="M3171.561,44.833h-11.599c-0.655,0-1.188,0.47-1.188,1.046c0,0.576,0.534,1.045,1.188,1.045h11.599   c0.654,0,1.187-0.469,1.187-1.045C3172.748,45.303,3172.215,44.833,3171.561,44.833z"/>
	<path fill="#000000" d="M3171.561,48.505h-11.599c-0.655,0-1.188,0.468-1.188,1.046c0,0.576,0.534,1.045,1.188,1.045h11.599   c0.654,0,1.187-0.469,1.187-1.045C3172.748,48.973,3172.215,48.505,3171.561,48.505z"/>
	<path fill="#000000" d="M3171.56,41.17h-11.598c-0.655,0-1.188,0.469-1.188,1.044c0,0.578,0.534,1.047,1.188,1.047h11.598   c0.655,0,1.188-0.469,1.188-1.047C3172.748,41.639,3172.215,41.17,3171.56,41.17z"/>
	<path fill="#000000" d="M3176.633,41.37c0-0.33-0.27-0.599-0.6-0.599h-1.689c-0.331,0-0.599,0.269-0.599,0.599v1.69   c0,0.331,0.269,0.601,0.599,0.601h1.689c0.33,0,0.6-0.27,0.6-0.601V41.37z M3175.923,42.949h-1.469v-1.468h1.469V42.949z"/>
	<path fill="#000000" d="M3176.633,45.08c0-0.331-0.27-0.6-0.6-0.6h-1.689c-0.331,0-0.599,0.269-0.599,0.6v1.689   c0,0.332,0.269,0.601,0.599,0.601h1.689c0.33,0,0.6-0.269,0.6-0.601V45.08z M3175.923,46.659h-1.469v-1.47h1.469V46.659z"/>
	<path fill="#000000" d="M3176.033,48.106h-1.689c-0.331,0-0.599,0.269-0.599,0.6v1.689c0,0.331,0.269,0.6,0.599,0.6h1.689   c0.33,0,0.6-0.269,0.6-0.6v-1.689C3176.633,48.375,3176.363,48.106,3176.033,48.106z M3175.923,50.285h-1.469v-1.47h1.469V50.285z"/>
	<path fill="#000000" d="M3175.665,72.364h-22.317c-1.039,0-1.885-1.031-1.885-2.298V32.008c0-1.267,0.846-2.295,1.885-2.295h5.426   v1.894h-1.342c-2.178,0-3.952,1.906-3.952,4.245v27.234c0,2.341,1.774,4.244,3.952,4.244l13.205,0.054c0,0,0.984-0.057,1.389-0.46   l9.439-9.438c0.363-0.362,0.463-1.269,0.463-1.269V35.852c0-2.339-1.773-4.245-3.952-4.245h-1.343v2.603h1.343   c0.744,0,1.351,0.737,1.351,1.643v20.412h-3.994c-2.341,0-4.246,1.774-4.246,3.953v4.512h-13.655c-0.744,0-1.35-0.737-1.35-1.642   V35.852c0-0.906,0.606-1.643,1.35-1.643h1.342v2.185c0,1.082,0.693,1.897,1.61,1.897h14.64c0.917,0,1.61-0.815,1.61-1.897v-6.681   h5.425c1.041,0,1.886,1.028,1.886,2.295V60.79c0.237,0.148,0.449,0.319,0.631,0.528c0.203,0.233,0.347,0.481,0.455,0.729   c-0.061-0.788,0.024-1.712,0.469-2.634c0.43-0.888,1.127-1.636,2.082-2.247V32.008c0-3.271-2.477-5.932-5.523-5.932h-5.425v-1.607   c0-1.08-0.692-1.895-1.61-1.895h-1.515c-0.55-2.701-2.943-4.741-5.804-4.741c-2.86,0-5.254,2.04-5.806,4.741h-1.515   c-0.917,0-1.61,0.814-1.61,1.895v1.607h-5.426c-3.044,0-5.521,2.661-5.521,5.932v38.058c0,3.272,2.477,5.934,5.521,5.934h24.165   c-0.239-0.394-0.508-0.833-0.814-1.326C3176.22,73.906,3175.876,73.134,3175.665,72.364z M3172.978,60.22   c0-1.184,1.171-2.147,2.612-2.147h2.618l-5.23,5.231V60.22z M3161.145,24.941h3.005v-1.183c0-1.961,1.594-3.556,3.554-3.556   c1.959,0,3.554,1.595,3.554,3.556v1.183h3.006v10.98h-13.119V24.941z"/>
</g>
<g>
	<circle fill="#000000" cx="3289.947" cy="23.671" r="2.072"/>
	<path fill="#000000" d="M3310.395,37.899v-5.698c0-3.364-2.548-6.101-5.681-6.101h-5.581v-1.653c0-1.113-0.713-1.949-1.656-1.949   h-1.559c-0.566-2.779-3.027-4.875-5.97-4.875s-5.404,2.097-5.971,4.875h-1.559c-0.943,0-1.656,0.836-1.656,1.949V26.1h-5.581   c-3.133,0-5.681,2.737-5.681,6.101v39.147c0,3.366,2.548,6.104,5.681,6.104h4.687h20.167h4.688c3.133,0,5.681-2.737,5.681-6.104   V37.899C3310.401,37.899,3310.397,37.899,3310.395,37.899z M3283.201,24.934h3.092v-1.218c0-2.016,1.639-3.656,3.656-3.656   c2.015,0,3.656,1.64,3.656,3.656v1.218h3.09v11.293h-13.495V24.934z M3282.419,38.663h15.059c0.942,0,1.656-0.837,1.656-1.95   v-2.248h1.38c0.766,0,1.389,0.759,1.389,1.69v20.997h-4.107c-2.408,0-4.367,1.824-4.367,4.066v4.641h-14.045   c-0.766,0-1.39-0.759-1.39-1.689V36.155c0-0.931,0.624-1.69,1.39-1.69h1.38v2.248C3280.763,37.826,3281.476,38.663,3282.419,38.663   z M3300.752,59.012l-5.379,5.38v-3.173c0-1.216,1.206-2.207,2.687-2.207H3300.752z M3304.723,73.711h-6.586h-16.368h-6.586   c-1.07,0-1.941-1.059-1.941-2.363V32.201c0-1.302,0.871-2.362,1.941-2.362h5.581v1.949h-1.38c-2.241,0-4.065,1.959-4.065,4.367   v28.014c0,2.407,1.824,4.365,4.065,4.365l13.582,0.054c0,0,1.012-0.057,1.429-0.474l9.708-9.709   c0.373-0.373,0.478-1.302,0.478-1.302V36.155c0-2.407-1.825-4.367-4.066-4.367h-1.38v-1.949h5.581c1.07,0,1.94,1.06,1.94,2.362   v29.605c0.004,0.001,0.006,0.005,0.01,0.007v9.535C3306.664,72.652,3305.794,73.711,3304.723,73.711z"/>
	<polygon fill="#000000" points="3281.522,52.114 3281.522,39.903 3279.889,39.903 3279.889,52.114 3279.889,53.359    3279.889,53.668 3299.877,53.668 3299.877,52.114  "/>
	<polyline fill="#000000" stroke="#1D1D1B" stroke-width="0.4972" stroke-miterlimit="10" points="3282.223,50.947 3284.633,48.458    3287.876,48.458 3289.222,45.036 3293.811,45.036 3298.01,41.458  "/>
	<path opacity="0.25" fill="#000000" stroke="#1D1D1B" stroke-width="0.4972" stroke-miterlimit="10" d="M3283.895,50.947   c0.117-0.116,2.139-1.399,2.139-1.399l4.744-0.194l1.206-2.84l0.31-3.032l3.89-3.033"/>
	<path fill="#000000" d="M3299.877,55.255c0,0.253-0.206,0.457-0.458,0.457h-19.072c-0.252,0-0.458-0.204-0.458-0.457l0,0   c0-0.253,0.206-0.458,0.458-0.458h19.072C3299.672,54.798,3299.877,55.002,3299.877,55.255L3299.877,55.255z"/>
	<path fill="#000000" d="M3299.877,57.355c0,0.253-0.206,0.457-0.458,0.457h-19.072c-0.252,0-0.458-0.204-0.458-0.457l0,0   c0-0.254,0.206-0.458,0.458-0.458h19.072C3299.672,56.897,3299.877,57.102,3299.877,57.355L3299.877,57.355z"/>
	<path fill="#000000" d="M3295.341,58.927h-14.994c-0.252,0-0.458,0.205-0.458,0.458c0,0.253,0.206,0.458,0.458,0.458h14.532   C3294.989,59.511,3295.142,59.203,3295.341,58.927z"/>
	<path fill="#000000" d="M3294.44,61.835c0.021-0.27,0.063-0.511,0.112-0.748h-14.205c-0.252,0-0.458,0.207-0.458,0.458   c0,0.253,0.206,0.457,0.458,0.457h14.095C3294.443,61.948,3294.436,61.893,3294.44,61.835z"/>
	<path fill="#000000" d="M3294.518,63.625c0.023-0.172,0.021-0.339,0.012-0.507h-14.183c-0.252,0-0.458,0.207-0.458,0.46   c0,0.252,0.206,0.458,0.458,0.458h14.171C3294.511,63.897,3294.5,63.76,3294.518,63.625z"/>
</g>
<g>
	<g>
		<path fill="#000000" d="M2467.392,61.141c-0.196,0.178-0.394,0.354-0.6,0.523c-0.129,0.111-0.257,0.221-0.382,0.328    c-0.048,0.042-0.099,0.064-0.148,0.079c-0.099,0.072-0.19,0.153-0.292,0.222c-0.103,0.07-0.207,0.062-0.294,0.016v7.203    c0,1.275-0.853,2.312-1.9,2.312h-17.966v-0.002h-17.194c-1.048,0-1.901-1.039-1.901-2.312V31.185c0-1.275,0.853-2.312,1.901-2.312    h16.527v0.003h8.939v6.348c0,3.066,2.68,5.561,5.975,5.561h5.62v13.379c0.646-0.874,1.46-1.617,2.21-2.418    c0.35-0.422,0.704-0.841,1.045-1.271c0.111-0.139,0.28-0.123,0.406-0.038v-9.583c0,0-0.142-1.273-0.653-1.783l-13.282-13.283    c-0.57-0.569-1.954-0.649-1.954-0.649l-7.64,0.03v-0.027l-17.194,0.069c-3.066,0-5.562,2.679-5.562,5.973V69.51    c0,3.293,2.496,5.974,5.562,5.974h16.527v0.002h18.633c3.067,0,5.562-2.679,5.562-5.973V59.227    C2468.75,59.895,2468.07,60.541,2467.392,61.141z M2456.742,30.881l7.36,7.361h-3.684c-2.028,0-3.677-1.356-3.677-3.021V30.881z"/>
		<path fill="#000000" d="M2453.96,40.76c-1.589-1.383-2.594-3.36-2.594-5.562v-3.216h-19.904c-1.036,0-1.883,0.848-1.883,1.883    v5.011c0,1.036,0.847,1.884,1.883,1.884H2453.96z"/>
		<path fill="#000000" d="M2448.853,44.164c0,0.381,0.31,0.691,0.692,0.691h13.235c0.383,0,0.692-0.31,0.692-0.691    c0-0.384-0.31-0.693-0.692-0.693h-13.235C2449.163,43.471,2448.853,43.78,2448.853,44.164z"/>
		<path fill="#000000" d="M2462.78,46.365h-13.235c-0.382,0-0.692,0.31-0.692,0.692c0,0.382,0.31,0.691,0.692,0.691h13.235    c0.383,0,0.692-0.309,0.692-0.691C2463.472,46.675,2463.163,46.365,2462.78,46.365z"/>
		<path fill="#000000" d="M2462.78,49.258h-13.235c-0.382,0-0.692,0.311-0.692,0.693c0,0.382,0.31,0.692,0.692,0.692h13.235    c0.383,0,0.692-0.31,0.692-0.692C2463.472,49.568,2463.163,49.258,2462.78,49.258z"/>
		<path fill="#000000" d="M2462.78,52.151h-13.235c-0.382,0-0.692,0.31-0.692,0.693c0,0.382,0.31,0.692,0.692,0.692h13.235    c0.383,0,0.692-0.31,0.692-0.692C2463.472,52.461,2463.163,52.151,2462.78,52.151z"/>
		<path fill="#000000" d="M2462.78,55.046h-13.235c-0.382,0-0.692,0.309-0.692,0.691c0,0.383,0.31,0.692,0.692,0.692h13.235    c0.383,0,0.692-0.31,0.692-0.692C2463.472,55.355,2463.163,55.046,2462.78,55.046z"/>
		<path fill="#000000" d="M2431.188,49.009c-0.518,0-0.942,0.423-0.942,0.942v5.538c0,0.517,0.424,0.941,0.942,0.941h1.993    c0.518,0,0.942-0.424,0.942-0.941v-5.538c0-0.519-0.424-0.942-0.942-0.942H2431.188z"/>
		<path fill="#000000" d="M2436.947,45.465c-0.518,0-0.942,0.424-0.942,0.942v9.082c0,0.517,0.424,0.941,0.942,0.941h2.214    c0.519,0,0.942-0.424,0.942-0.941v-9.082c0-0.518-0.424-0.942-0.942-0.942H2436.947z"/>
		<path fill="#000000" d="M2443.039,43.472c-0.518,0-0.942,0.423-0.942,0.942v11.075c0,0.517,0.424,0.941,0.942,0.941h2.214    c0.518,0,0.942-0.424,0.942-0.941V44.414c0-0.519-0.424-0.942-0.942-0.942H2443.039z"/>
		<path fill="#000000" d="M2456.135,67.761h-11.961h-1.273h-11.961c-0.382,0-0.693,0.311-0.693,0.693    c0,0.382,0.311,0.692,0.693,0.692h11.961h1.273h11.961c0.382,0,0.692-0.311,0.692-0.692    C2456.827,68.071,2456.517,67.761,2456.135,67.761z"/>
		<path fill="#000000" d="M2460.822,59.081h-29.883c-0.382,0-0.693,0.311-0.693,0.692c0,0.383,0.311,0.692,0.693,0.692h29.194    C2460.331,59.989,2460.552,59.523,2460.822,59.081z"/>
		<path fill="#000000" d="M2459.314,61.975h-28.375c-0.382,0-0.693,0.31-0.693,0.693c0,0.381,0.311,0.691,0.693,0.691h27.756    C2458.868,62.883,2459.081,62.424,2459.314,61.975z"/>
		<path fill="#000000" d="M2458.166,66.083c-0.003-0.005-0.005-0.009-0.008-0.014c-0.207-0.041-0.38-0.274-0.244-0.493    c0.149-0.236,0.295-0.473,0.443-0.708h-27.418c-0.382,0-0.693,0.31-0.693,0.693c0,0.382,0.311,0.691,0.693,0.691h27.285    C2458.193,66.2,2458.171,66.143,2458.166,66.083z"/>
		<path fill="#000000" d="M2462.226,64.868h-0.234c-0.031,0.02-0.062,0.038-0.094,0.059c-0.703,0.521-1.448,0.958-2.241,1.325h2.569    c0.383,0,0.692-0.309,0.692-0.691C2462.918,65.178,2462.608,64.868,2462.226,64.868z"/>
	</g>
	<path fill="#000000" d="M2485.762,46.743c1.64-1.641,1.641-4.311,0-5.953l-2.092-2.093c-0.795-0.794-1.852-1.231-2.977-1.231   s-2.182,0.437-2.977,1.231l-0.151,0.153l-0.833-0.833l-7.076,8.537l-11.024,11.024l-3.842,8.058   c-0.364,0.767-0.617,1.303-0.728,1.713l-0.024-0.005c-0.027,0.154-0.044,0.312-0.044,0.474c0,1.466,1.192,2.659,2.658,2.659   c0.143,0,0.279-0.015,0.415-0.038l0.471-0.12l-0.364-1.042l0.487,0.991l9.221-4.44l11.024-11.024l0.729,0.73l7.808-7.806   l-0.833-0.833L2485.762,46.743z M2476.732,44.594l3.132,3.132l-1.229,1.228l-3.131-3.131L2476.732,44.594z M2472.944,49.843   l1.671,1.67l-8.852,8.852l-1.671-1.672L2472.944,49.843z M2460.919,63.542l0.451-0.937l0.488,0.488L2460.919,63.542z"/>
	<path fill="#000000" d="M2484.821,41.729l-2.093-2.091c-1.123-1.123-2.95-1.123-4.073,0l-1.092,1.092l-0.833-0.833l-5.927,5.928   l0.73,0.73l-11.804,11.804l-0.219,0.455c0,0-4.179,8.757-4.166,8.767c-0.014,0.077-0.024,0.157-0.024,0.238   c0,0.734,0.595,1.33,1.33,1.33c0.066,0,0.13-0.009,0.194-0.02c0.07-0.017,0.14-0.037,0.211-0.052   c0.014-0.005,0.028-0.007,0.043-0.011l-0.016,0.008h0l8.562-4.124l0.455-0.219l0.594-0.593l11.211-11.211l0.73,0.73l5.928-5.927   l-0.833-0.833l1.091-1.09C2485.944,44.68,2485.944,42.854,2484.821,41.729z M2459.536,65.677l-0.754-0.756l2.202-4.582l3.142,3.143   L2459.536,65.677z M2465.764,62.245l-3.551-3.551l10.731-10.731l3.551,3.551L2465.764,62.245z M2478.635,50.835l-5.012-5.012   l3.108-3.108l5.012,5.012L2478.635,50.835z M2483.411,44.394l-1.091,1.09l-3.346-3.347l1.091-1.09c0.346-0.345,0.909-0.345,1.254,0   l2.092,2.092C2483.757,43.485,2483.757,44.047,2483.411,44.394z"/>
</g>
<g>
	<path fill="#000000" d="M2595.118,34.246l-2.958,0.002c-1.588,0-2.879,1.294-2.878,2.882l0.001,1.543l-1.178,0.001l0.005,8.382   l1.034-0.001l0.012,16.694l0.166,0.477c0,0,3.243,9.144,3.26,9.142c0.045,0.064,0.094,0.128,0.151,0.185   c0.52,0.52,1.36,0.519,1.88-0.001c0.047-0.046,0.086-0.098,0.124-0.15c0.038-0.062,0.072-0.125,0.112-0.187   c0.006-0.013,0.015-0.025,0.021-0.038l-0.006,0.017c0,0,0,0,0,0l3.133-8.973l0.166-0.477v-0.838l-0.01-15.856h1.032l-0.006-8.383   L2598,38.668v-1.543C2598,35.537,2596.707,34.245,2595.118,34.246z M2594.196,69.059l-1.067,0.001l-1.687-4.796l4.444-0.003   L2594.196,69.059z M2596.168,62.228l-5.021,0.004l-0.01-15.176l5.021-0.004L2596.168,62.228z M2597.19,45.057l-7.088,0.004   l-0.003-4.396l7.088-0.004L2597.19,45.057z M2596.007,37.126l0,1.543l-4.732,0.002l0-1.542c-0.001-0.488,0.396-0.887,0.885-0.887   l2.959-0.002C2595.608,36.24,2596.007,36.636,2596.007,37.126z"/>
	<g>
		<path fill="#000000" d="M2584.716,39.628l-13.283-13.281c-0.571-0.57-1.953-0.649-1.953-0.649l-7.641,0.029V25.7l-17.193,0.068    c-3.067,0-5.562,2.68-5.562,5.975v38.325c0,3.294,2.495,5.973,5.562,5.973h16.527v0.003h18.633c3.066,0,5.561-2.679,5.561-5.973    V41.412C2585.368,41.412,2585.227,40.14,2584.716,39.628z M2572.773,31.438l7.36,7.36h-3.684c-2.028,0-3.677-1.355-3.677-3.021    V31.438z M2581.708,70.07c0,1.274-0.853,2.312-1.9,2.312h-17.967V72.38h-17.193c-1.049,0-1.901-1.038-1.901-2.312V31.743    c0-1.275,0.852-2.312,1.901-2.312h16.527v0.002h8.939v6.35c0,3.065,2.681,5.561,5.974,5.561h5.621V70.07z"/>
		<path fill="#000000" d="M2567.398,35.756V32.54h-19.904c-1.037,0-1.884,0.848-1.884,1.883v5.011c0,1.035,0.847,1.882,1.884,1.882    h22.496C2568.401,39.935,2567.398,37.957,2567.398,35.756z"/>
		<g>
			<path fill="#000000" d="M2579.504,44.722c0,0.382-0.311,0.692-0.693,0.692h-13.234c-0.382,0-0.692-0.31-0.692-0.692l0,0     c0-0.383,0.31-0.693,0.692-0.693h13.234C2579.193,44.029,2579.504,44.338,2579.504,44.722L2579.504,44.722z"/>
			<path fill="#000000" d="M2579.504,47.616c0,0.381-0.311,0.691-0.693,0.691h-13.234c-0.382,0-0.692-0.311-0.692-0.691l0,0     c0-0.383,0.31-0.694,0.692-0.694h13.234C2579.193,46.922,2579.504,47.232,2579.504,47.616L2579.504,47.616z"/>
			<path fill="#000000" d="M2579.504,50.509c0,0.382-0.311,0.691-0.693,0.691h-13.234c-0.382,0-0.692-0.309-0.692-0.691l0,0     c0-0.383,0.31-0.693,0.692-0.693h13.234C2579.193,49.815,2579.504,50.126,2579.504,50.509L2579.504,50.509z"/>
			<path fill="#000000" d="M2579.504,53.401c0,0.384-0.311,0.693-0.693,0.693h-13.234c-0.382,0-0.692-0.309-0.692-0.693l0,0     c0-0.382,0.31-0.691,0.692-0.691h13.234C2579.193,52.709,2579.504,53.019,2579.504,53.401L2579.504,53.401z"/>
			<path fill="#000000" d="M2579.504,56.295c0,0.382-0.311,0.692-0.693,0.692h-13.234c-0.382,0-0.692-0.311-0.692-0.692l0,0     c0-0.383,0.31-0.693,0.692-0.693h13.234C2579.193,55.602,2579.504,55.913,2579.504,56.295L2579.504,56.295z"/>
		</g>
		<g>
			<path fill="#000000" d="M2550.154,56.045c0,0.519-0.425,0.942-0.942,0.942h-1.993c-0.518,0-0.941-0.424-0.941-0.942v-5.537     c0-0.518,0.423-0.942,0.941-0.942h1.993c0.518,0,0.942,0.424,0.942,0.942V56.045z"/>
			<path fill="#000000" d="M2556.135,56.045c0,0.519-0.424,0.942-0.942,0.942h-2.215c-0.517,0-0.941-0.424-0.941-0.942v-9.08     c0-0.519,0.424-0.943,0.941-0.943h2.215c0.518,0,0.942,0.424,0.942,0.943V56.045z"/>
			<path fill="#000000" d="M2562.227,56.045c0,0.519-0.424,0.942-0.942,0.942h-2.214c-0.518,0-0.942-0.424-0.942-0.942V44.972     c0-0.519,0.424-0.943,0.942-0.943h2.214c0.518,0,0.942,0.424,0.942,0.943V56.045z"/>
		</g>
		<path fill="#000000" d="M2560.897,60.331c0,0.382-0.31,0.692-0.693,0.692h-13.234c-0.382,0-0.692-0.31-0.692-0.692l0,0    c0-0.383,0.31-0.692,0.692-0.692h13.234C2560.587,59.639,2560.897,59.948,2560.897,60.331L2560.897,60.331z"/>
		<path fill="#000000" d="M2560.897,63.225c0,0.382-0.31,0.692-0.693,0.692h-13.234c-0.382,0-0.692-0.31-0.692-0.692l0,0    c0-0.382,0.31-0.692,0.692-0.692h13.234C2560.587,62.532,2560.897,62.842,2560.897,63.225L2560.897,63.225z"/>
		<path fill="#000000" d="M2560.897,66.118c0,0.381-0.31,0.691-0.693,0.691h-13.234c-0.382,0-0.692-0.31-0.692-0.691l0,0    c0-0.383,0.31-0.693,0.692-0.693h13.234C2560.587,65.425,2560.897,65.735,2560.897,66.118L2560.897,66.118z"/>
		<path fill="#000000" d="M2560.897,69.01c0,0.383-0.31,0.692-0.693,0.692h-13.234c-0.382,0-0.692-0.309-0.692-0.692l0,0    c0-0.382,0.31-0.692,0.692-0.692h13.234C2560.587,68.318,2560.897,68.628,2560.897,69.01L2560.897,69.01z"/>
		<path fill="#000000" d="M2572.858,60.331c0,0.382-0.311,0.692-0.692,0.692h-13.234c-0.383,0-0.693-0.31-0.693-0.692l0,0    c0-0.383,0.31-0.692,0.693-0.692h13.234C2572.548,59.639,2572.858,59.948,2572.858,60.331L2572.858,60.331z"/>
		<path fill="#000000" d="M2572.858,63.225c0,0.382-0.311,0.692-0.692,0.692h-13.234c-0.383,0-0.693-0.31-0.693-0.692l0,0    c0-0.382,0.31-0.692,0.693-0.692h13.234C2572.548,62.532,2572.858,62.842,2572.858,63.225L2572.858,63.225z"/>
		<path fill="#000000" d="M2572.858,66.118c0,0.381-0.311,0.691-0.692,0.691h-13.234c-0.383,0-0.693-0.31-0.693-0.691l0,0    c0-0.383,0.31-0.693,0.693-0.693h13.234C2572.548,65.425,2572.858,65.735,2572.858,66.118L2572.858,66.118z"/>
		<path fill="#000000" d="M2572.858,69.01c0,0.383-0.311,0.692-0.692,0.692h-13.234c-0.383,0-0.693-0.309-0.693-0.692l0,0    c0-0.382,0.31-0.692,0.693-0.692h13.234C2572.548,68.318,2572.858,68.628,2572.858,69.01L2572.858,69.01z"/>
		<path fill="#000000" d="M2578.95,60.331c0,0.382-0.311,0.692-0.692,0.692h-13.235c-0.382,0-0.692-0.31-0.692-0.692l0,0    c0-0.383,0.31-0.692,0.692-0.692h13.235C2578.639,59.639,2578.95,59.948,2578.95,60.331L2578.95,60.331z"/>
		<path fill="#000000" d="M2578.95,63.225c0,0.382-0.311,0.692-0.692,0.692h-13.235c-0.382,0-0.692-0.31-0.692-0.692l0,0    c0-0.382,0.31-0.692,0.692-0.692h13.235C2578.639,62.532,2578.95,62.842,2578.95,63.225L2578.95,63.225z"/>
		<path fill="#000000" d="M2578.95,66.118c0,0.381-0.311,0.691-0.692,0.691h-13.235c-0.382,0-0.692-0.31-0.692-0.691l0,0    c0-0.383,0.31-0.693,0.692-0.693h13.235C2578.639,65.425,2578.95,65.735,2578.95,66.118L2578.95,66.118z"/>
	</g>
</g>
<g>
	<path fill="#000000" d="M2710.104,76.426l-0.002-2.958c-0.001-1.589-1.294-2.88-2.883-2.879l-1.543,0.001l-0.001-1.178   l-8.382,0.006l0.001,1.034l-16.694,0.011l-0.476,0.167c0,0-9.145,3.242-9.143,3.259c-0.064,0.045-0.128,0.094-0.185,0.152   c-0.519,0.52-0.519,1.361,0.002,1.879c0.046,0.047,0.098,0.087,0.149,0.125c0.063,0.038,0.127,0.073,0.187,0.112   c0.014,0.006,0.025,0.015,0.039,0.021l-0.017-0.006l0,0l8.973,3.133l0.476,0.166l0.839-0.001l15.855-0.01l0.001,1.033l8.382-0.006   l-0.001-1.177l1.544-0.001C2708.812,79.308,2710.104,78.014,2710.104,76.426z M2675.291,75.504l-0.001-1.067l4.796-1.687   l0.003,4.443L2675.291,75.504z M2682.122,77.477l-0.004-5.021l15.177-0.011l0.003,5.021L2682.122,77.477z M2699.292,78.499   l-0.004-7.088l4.396-0.004l0.005,7.089L2699.292,78.499z M2707.223,77.314l-1.542,0.001l-0.003-4.731l1.542-0.002   c0.49,0,0.888,0.398,0.888,0.887l0.001,2.959C2708.11,76.916,2707.713,77.314,2707.223,77.314z"/>
	<g>
		<path fill="#000000" d="M2714.074,30.49l-13.282-13.281c-0.569-0.569-1.952-0.649-1.952-0.649l-7.641,0.031v-0.028l-17.194,0.068    c-3.065,0-5.562,2.68-5.562,5.975V60.93c0,3.293,2.497,5.973,5.562,5.973h16.527v0.003h18.633c3.067,0,5.562-2.679,5.562-5.974    V32.275C2714.727,32.275,2714.585,31.002,2714.074,30.49z M2702.131,22.301l7.361,7.36h-3.683c-2.029,0-3.679-1.354-3.679-3.02    V22.301z M2711.065,60.933c0,1.275-0.852,2.312-1.9,2.312h-17.966v-0.003h-17.194c-1.049,0-1.9-1.038-1.9-2.312V22.605    c0-1.275,0.852-2.312,1.9-2.312h16.527v0.003h8.939v6.349c0,3.066,2.679,5.562,5.974,5.562h5.62V60.933z"/>
		<path fill="#000000" d="M2696.756,26.618v-3.215h-19.903c-1.036,0-1.884,0.848-1.884,1.883v5.01c0,1.035,0.848,1.883,1.884,1.883    h22.497C2697.76,30.798,2696.756,28.82,2696.756,26.618z"/>
		<g>
			<path fill="#000000" d="M2708.862,35.583c0,0.383-0.311,0.693-0.692,0.693h-13.235c-0.382,0-0.692-0.31-0.692-0.693l0,0     c0-0.382,0.311-0.691,0.692-0.691h13.235C2708.552,34.893,2708.862,35.201,2708.862,35.583L2708.862,35.583z"/>
			<path fill="#000000" d="M2708.862,38.478c0,0.382-0.311,0.692-0.692,0.692h-13.235c-0.382,0-0.692-0.31-0.692-0.692l0,0     c0-0.382,0.311-0.693,0.692-0.693h13.235C2708.552,37.785,2708.862,38.096,2708.862,38.478L2708.862,38.478z"/>
			<path fill="#000000" d="M2708.862,41.371c0,0.383-0.311,0.692-0.692,0.692h-13.235c-0.382,0-0.692-0.309-0.692-0.692l0,0     c0-0.383,0.311-0.692,0.692-0.692h13.235C2708.552,40.678,2708.862,40.988,2708.862,41.371L2708.862,41.371z"/>
			<path fill="#000000" d="M2708.862,44.264c0,0.383-0.311,0.692-0.692,0.692h-13.235c-0.382,0-0.692-0.309-0.692-0.692l0,0     c0-0.382,0.311-0.691,0.692-0.691h13.235C2708.552,43.572,2708.862,43.882,2708.862,44.264L2708.862,44.264z"/>
			<path fill="#000000" d="M2708.862,47.158c0,0.381-0.311,0.692-0.692,0.692h-13.235c-0.382,0-0.692-0.311-0.692-0.692l0,0     c0-0.383,0.311-0.693,0.692-0.693h13.235C2708.552,46.465,2708.862,46.775,2708.862,47.158L2708.862,47.158z"/>
		</g>
		<g>
			<path fill="#000000" d="M2679.513,46.908c0,0.518-0.424,0.942-0.942,0.942h-1.992c-0.518,0-0.943-0.424-0.943-0.942v-5.538     c0-0.518,0.426-0.941,0.943-0.941h1.992c0.519,0,0.942,0.424,0.942,0.941V46.908z"/>
			<path fill="#000000" d="M2685.492,46.908c0,0.518-0.423,0.942-0.941,0.942h-2.214c-0.519,0-0.942-0.424-0.942-0.942v-9.081     c0-0.518,0.424-0.942,0.942-0.942h2.214c0.519,0,0.941,0.425,0.941,0.942V46.908z"/>
			<path fill="#000000" d="M2691.585,46.908c0,0.518-0.424,0.942-0.941,0.942h-2.215c-0.518,0-0.941-0.424-0.941-0.942V35.834     c0-0.518,0.424-0.941,0.941-0.941h2.215c0.518,0,0.941,0.423,0.941,0.941V46.908z"/>
		</g>
		<path fill="#000000" d="M2690.255,51.193c0,0.382-0.31,0.691-0.691,0.691h-13.235c-0.382,0-0.693-0.309-0.693-0.691l0,0    c0-0.383,0.312-0.692,0.693-0.692h13.235C2689.945,50.501,2690.255,50.811,2690.255,51.193L2690.255,51.193z"/>
		<path fill="#000000" d="M2690.255,54.087c0,0.382-0.31,0.692-0.691,0.692h-13.235c-0.382,0-0.693-0.31-0.693-0.692l0,0    c0-0.382,0.312-0.692,0.693-0.692h13.235C2689.945,53.395,2690.255,53.705,2690.255,54.087L2690.255,54.087z"/>
		<path fill="#000000" d="M2690.255,56.98c0,0.381-0.31,0.692-0.691,0.692h-13.235c-0.382,0-0.693-0.311-0.693-0.692l0,0    c0-0.383,0.312-0.693,0.693-0.693h13.235C2689.945,56.287,2690.255,56.598,2690.255,56.98L2690.255,56.98z"/>
		<path fill="#000000" d="M2690.255,59.874c0,0.382-0.31,0.691-0.691,0.691h-13.235c-0.382,0-0.693-0.31-0.693-0.691l0,0    c0-0.383,0.312-0.693,0.693-0.693h13.235C2689.945,59.181,2690.255,59.491,2690.255,59.874L2690.255,59.874z"/>
		<path fill="#000000" d="M2702.217,51.193c0,0.382-0.311,0.691-0.692,0.691h-13.234c-0.383,0-0.692-0.309-0.692-0.691l0,0    c0-0.383,0.31-0.692,0.692-0.692h13.234C2701.906,50.501,2702.217,50.811,2702.217,51.193L2702.217,51.193z"/>
		<path fill="#000000" d="M2702.217,54.087c0,0.382-0.311,0.692-0.692,0.692h-13.234c-0.383,0-0.692-0.31-0.692-0.692l0,0    c0-0.382,0.31-0.692,0.692-0.692h13.234C2701.906,53.395,2702.217,53.705,2702.217,54.087L2702.217,54.087z"/>
		<path fill="#000000" d="M2702.217,56.98c0,0.381-0.311,0.692-0.692,0.692h-13.234c-0.383,0-0.692-0.311-0.692-0.692l0,0    c0-0.383,0.31-0.693,0.692-0.693h13.234C2701.906,56.287,2702.217,56.598,2702.217,56.98L2702.217,56.98z"/>
		<path fill="#000000" d="M2702.217,59.874c0,0.382-0.311,0.691-0.692,0.691h-13.234c-0.383,0-0.692-0.31-0.692-0.691l0,0    c0-0.383,0.31-0.693,0.692-0.693h13.234C2701.906,59.181,2702.217,59.491,2702.217,59.874L2702.217,59.874z"/>
		<path fill="#000000" d="M2708.308,51.193c0,0.382-0.31,0.691-0.692,0.691h-13.234c-0.382,0-0.692-0.309-0.692-0.691l0,0    c0-0.383,0.311-0.692,0.692-0.692h13.234C2707.998,50.501,2708.308,50.811,2708.308,51.193L2708.308,51.193z"/>
		<path fill="#000000" d="M2708.308,54.087c0,0.382-0.31,0.692-0.692,0.692h-13.234c-0.382,0-0.692-0.31-0.692-0.692l0,0    c0-0.382,0.311-0.692,0.692-0.692h13.234C2707.998,53.395,2708.308,53.705,2708.308,54.087L2708.308,54.087z"/>
		<path fill="#000000" d="M2708.308,56.98c0,0.381-0.31,0.692-0.692,0.692h-13.234c-0.382,0-0.692-0.311-0.692-0.692l0,0    c0-0.383,0.311-0.693,0.692-0.693h13.234C2707.998,56.287,2708.308,56.598,2708.308,56.98L2708.308,56.98z"/>
	</g>
</g>
<g>
	<path fill="#000000" d="M2913.468,24.916v36.427h-12.458l0.171,1.817c0.009,0.1,0.243,2.479,1.242,4.884   c1.861,4.485,4.775,5.426,6.892,5.426l45.852-0.032c2.702-0.161,4.829-1.605,6.008-4.137c0.272-0.585,0.465-1.168,0.607-1.705   c0,0,0.362-2.329,0.362-4.26c0-1.931,0-38.42,0-38.42H2913.468z M2905.516,66.829c-0.317-0.75-0.541-1.511-0.698-2.164h8.65v0.536   c-0.013,0.255-0.105,1.545-0.685,2.754c-0.717,1.497-1.819,2.193-3.468,2.193C2908.722,70.147,2906.916,70.147,2905.516,66.829z    M2954.667,70.147c-0.345,0-39.305,0-39.305,0c0.165-0.269,0.322-0.547,0.461-0.847c0.958-2.058,0.97-4.116,0.97-4.135   l-0.002-0.893l0,0V28.239h42.031v33.104l-0.001,3.795c0,0-0.1,1.596-0.685,2.816C2957.419,69.451,2956.315,70.147,2954.667,70.147z   "/>
	<path fill="#000000" d="M2907.047,25.651l-2.546,0.002c-1.367,0.001-2.479,1.114-2.478,2.48l0.001,1.329h-1.014l0.005,7.214h0.889   l0.009,14.367l0.144,0.409c0,0,2.791,7.87,2.805,7.868c0.039,0.056,0.081,0.11,0.13,0.16c0.447,0.446,1.171,0.446,1.618-0.002   c0.041-0.04,0.074-0.085,0.106-0.129c0.032-0.054,0.063-0.109,0.097-0.16c0.005-0.012,0.013-0.022,0.019-0.034l-0.005,0.014h0.001   l2.696-7.722l0.143-0.41v-0.722l-0.01-13.645l0.889-0.001l-0.005-7.214l-1.014,0.001l0-1.329   C2909.526,26.762,2908.414,25.65,2907.047,25.651z M2906.253,55.612h-0.918l-1.452-4.127l3.825-0.003L2906.253,55.612z    M2907.951,49.733l-4.322,0.002l-0.008-13.061l4.321-0.002L2907.951,49.733z M2908.83,34.957l-6.1,0.004l-0.003-3.784l6.1-0.003   L2908.83,34.957z M2907.812,28.131l0,1.327l-4.072,0.003l-0.001-1.328c-0.001-0.421,0.342-0.764,0.763-0.764l2.546-0.002   C2907.468,27.367,2907.811,27.709,2907.812,28.131z"/>
	<path fill="#000000" d="M2954.891,42.635c0,0.382-0.31,0.692-0.692,0.692h-13.234c-0.383,0-0.693-0.31-0.693-0.692l0,0   c0-0.383,0.31-0.693,0.693-0.693h13.234C2954.582,41.942,2954.891,42.251,2954.891,42.635L2954.891,42.635z"/>
	<path fill="#000000" d="M2954.891,45.528c0,0.383-0.31,0.692-0.692,0.692h-13.234c-0.383,0-0.693-0.31-0.693-0.692l0,0   c0-0.382,0.31-0.692,0.693-0.692h13.234C2954.582,44.836,2954.891,45.146,2954.891,45.528L2954.891,45.528z"/>
	<path fill="#000000" d="M2954.891,48.422c0,0.382-0.31,0.692-0.692,0.692h-13.234c-0.383,0-0.693-0.31-0.693-0.692l0,0   c0-0.383,0.31-0.693,0.693-0.693h13.234C2954.582,47.729,2954.891,48.039,2954.891,48.422L2954.891,48.422z"/>
	<path fill="#000000" d="M2954.891,51.315c0,0.382-0.31,0.691-0.692,0.691h-13.234c-0.383,0-0.693-0.309-0.693-0.691l0,0   c0-0.383,0.31-0.693,0.693-0.693h13.234C2954.582,50.622,2954.891,50.933,2954.891,51.315L2954.891,51.315z"/>
	<path fill="#000000" d="M2954.891,54.209c0,0.382-0.31,0.692-0.692,0.692h-13.234c-0.383,0-0.693-0.311-0.693-0.692l0,0   c0-0.383,0.31-0.693,0.693-0.693h13.234C2954.582,53.516,2954.891,53.826,2954.891,54.209L2954.891,54.209z"/>
	<path fill="#000000" d="M2925.542,53.958c0,0.518-0.423,0.943-0.942,0.943h-1.993c-0.518,0-0.942-0.425-0.942-0.943v-5.537   c0-0.518,0.424-0.942,0.942-0.942h1.993c0.519,0,0.942,0.425,0.942,0.942V53.958z"/>
	<path fill="#000000" d="M2931.523,53.958c0,0.518-0.424,0.943-0.942,0.943h-2.214c-0.518,0-0.942-0.425-0.942-0.943v-9.081   c0-0.519,0.424-0.941,0.942-0.941h2.214c0.518,0,0.942,0.423,0.942,0.941V53.958z"/>
	<path fill="#000000" d="M2937.614,53.958c0,0.518-0.423,0.943-0.941,0.943h-2.214c-0.518,0-0.942-0.425-0.942-0.943V42.885   c0-0.519,0.424-0.942,0.942-0.942h2.214c0.518,0,0.941,0.423,0.941,0.942V53.958z"/>
	<path fill="#000000" d="M2936.285,58.245c0,0.381-0.31,0.692-0.692,0.692h-13.234c-0.382,0-0.693-0.311-0.693-0.692l0,0   c0-0.383,0.311-0.693,0.693-0.693h13.234C2935.975,57.551,2936.285,57.861,2936.285,58.245L2936.285,58.245z"/>
	<path fill="#000000" d="M2936.285,61.138c0,0.382-0.31,0.692-0.692,0.692h-13.234c-0.382,0-0.693-0.31-0.693-0.692l0,0   c0-0.383,0.311-0.693,0.693-0.693h13.234C2935.975,60.445,2936.285,60.755,2936.285,61.138L2936.285,61.138z"/>
	<path fill="#000000" d="M2936.285,64.031c0,0.382-0.31,0.692-0.692,0.692h-13.234c-0.382,0-0.693-0.31-0.693-0.692l0,0   c0-0.381,0.311-0.692,0.693-0.692h13.234C2935.975,63.338,2936.285,63.649,2936.285,64.031L2936.285,64.031z"/>
	<path fill="#000000" d="M2936.285,66.925c0,0.382-0.31,0.691-0.692,0.691h-13.234c-0.382,0-0.693-0.31-0.693-0.691l0,0   c0-0.382,0.311-0.693,0.693-0.693h13.234C2935.975,66.231,2936.285,66.542,2936.285,66.925L2936.285,66.925z"/>
	<path fill="#000000" d="M2948.246,58.245c0,0.381-0.31,0.692-0.692,0.692h-13.235c-0.382,0-0.692-0.311-0.692-0.692l0,0   c0-0.383,0.31-0.693,0.692-0.693h13.235C2947.937,57.551,2948.246,57.861,2948.246,58.245L2948.246,58.245z"/>
	<path fill="#000000" d="M2948.246,61.138c0,0.382-0.31,0.692-0.692,0.692h-13.235c-0.382,0-0.692-0.31-0.692-0.692l0,0   c0-0.383,0.31-0.693,0.692-0.693h13.235C2947.937,60.445,2948.246,60.755,2948.246,61.138L2948.246,61.138z"/>
	<path fill="#000000" d="M2948.246,64.031c0,0.382-0.31,0.692-0.692,0.692h-13.235c-0.382,0-0.692-0.31-0.692-0.692l0,0   c0-0.381,0.31-0.692,0.692-0.692h13.235C2947.937,63.338,2948.246,63.649,2948.246,64.031L2948.246,64.031z"/>
	<path fill="#000000" d="M2948.246,66.925c0,0.382-0.31,0.691-0.692,0.691h-13.235c-0.382,0-0.692-0.31-0.692-0.691l0,0   c0-0.382,0.31-0.693,0.692-0.693h13.235C2947.937,66.231,2948.246,66.542,2948.246,66.925L2948.246,66.925z"/>
	<path fill="#000000" d="M2954.337,58.245c0,0.381-0.31,0.692-0.692,0.692h-13.234c-0.383,0-0.692-0.311-0.692-0.692l0,0   c0-0.383,0.31-0.693,0.692-0.693h13.234C2954.027,57.551,2954.337,57.861,2954.337,58.245L2954.337,58.245z"/>
	<path fill="#000000" d="M2954.337,61.138c0,0.382-0.31,0.692-0.692,0.692h-13.234c-0.383,0-0.692-0.31-0.692-0.692l0,0   c0-0.383,0.31-0.693,0.692-0.693h13.234C2954.027,60.445,2954.337,60.755,2954.337,61.138L2954.337,61.138z"/>
	<path fill="#000000" d="M2954.337,64.031c0,0.382-0.31,0.692-0.692,0.692h-13.234c-0.383,0-0.692-0.31-0.692-0.692l0,0   c0-0.381,0.31-0.692,0.692-0.692h13.234C2954.027,63.338,2954.337,63.649,2954.337,64.031L2954.337,64.031z"/>
	<path fill="#000000" d="M2953.351,30.453h-10.565h-9.338h-10.565c-1.036,0-1.884,0.848-1.884,1.884v5.01   c0,1.036,0.848,1.884,1.884,1.884h7.971h14.525h7.972c1.036,0,1.884-0.848,1.884-1.884v-5.01   C2955.235,31.301,2954.387,30.453,2953.351,30.453z"/>
</g>
<g>
	<path fill="#000000" d="M2826.972,58.527c-0.196,0.179-0.394,0.355-0.6,0.524c-0.128,0.11-0.257,0.22-0.381,0.327   c-0.049,0.042-0.099,0.065-0.149,0.078c-0.099,0.073-0.19,0.153-0.292,0.223c-0.103,0.07-0.206,0.06-0.293,0.016v7.203   c0,1.274-0.853,2.312-1.9,2.312h-17.967v-0.002h-17.193c-1.048,0-1.901-1.039-1.901-2.313V28.573c0-1.276,0.853-2.313,1.901-2.313   h16.527v0.002h8.939v6.35c0,3.065,2.68,5.561,5.975,5.561h5.62v13.379c0.646-0.874,1.46-1.618,2.21-2.419   c0.349-0.422,0.703-0.84,1.044-1.271c0.111-0.14,0.28-0.123,0.406-0.038v-9.583c0,0-0.142-1.272-0.653-1.783l-13.281-13.282   c-0.571-0.569-1.954-0.649-1.954-0.649l-7.641,0.03v-0.027l-17.193,0.068c-3.067,0-5.562,2.679-5.562,5.976v38.324   c0,3.294,2.496,5.973,5.562,5.973h16.527v0.004h18.633c3.066,0,5.561-2.681,5.561-5.975V56.614   C2828.331,57.282,2827.65,57.928,2826.972,58.527z M2816.322,28.267l7.36,7.361h-3.684c-2.028,0-3.677-1.355-3.677-3.021V28.267z"/>
	<path fill="#000000" d="M2813.54,38.146c-1.59-1.381-2.594-3.359-2.594-5.561v-3.216h-19.903c-1.036,0-1.884,0.848-1.884,1.883   v5.01c0,1.037,0.848,1.883,1.884,1.883H2813.54z"/>
	<path fill="#000000" d="M2808.433,41.551c0,0.382,0.31,0.692,0.692,0.692h13.235c0.381,0,0.692-0.31,0.692-0.692   c0-0.382-0.311-0.693-0.692-0.693h-13.235C2808.743,40.858,2808.433,41.168,2808.433,41.551z"/>
	<path fill="#000000" d="M2822.36,43.752h-13.235c-0.382,0-0.692,0.31-0.692,0.693c0,0.381,0.31,0.691,0.692,0.691h13.235   c0.381,0,0.692-0.311,0.692-0.691C2823.052,44.062,2822.742,43.752,2822.36,43.752z"/>
	<path fill="#000000" d="M2822.36,46.645h-13.235c-0.382,0-0.692,0.31-0.692,0.693c0,0.382,0.31,0.692,0.692,0.692h13.235   c0.381,0,0.692-0.31,0.692-0.692C2823.052,46.955,2822.742,46.645,2822.36,46.645z"/>
	<path fill="#000000" d="M2822.36,49.539h-13.235c-0.382,0-0.692,0.31-0.692,0.692c0,0.381,0.31,0.692,0.692,0.692h13.235   c0.381,0,0.692-0.311,0.692-0.692C2823.052,49.849,2822.742,49.539,2822.36,49.539z"/>
	<path fill="#000000" d="M2822.36,52.431h-13.235c-0.382,0-0.692,0.311-0.692,0.693c0,0.383,0.31,0.692,0.692,0.692h13.235   c0.381,0,0.692-0.309,0.692-0.692C2823.052,52.742,2822.742,52.431,2822.36,52.431z"/>
	<path fill="#000000" d="M2815.714,65.148h-11.961h-1.273h-11.961c-0.382,0-0.693,0.31-0.693,0.691c0,0.383,0.311,0.693,0.693,0.693   h11.961h1.273h11.961c0.382,0,0.693-0.31,0.693-0.693C2816.407,65.458,2816.097,65.148,2815.714,65.148z"/>
	<path fill="#000000" d="M2820.401,56.468h-29.883c-0.382,0-0.693,0.31-0.693,0.692c0,0.383,0.311,0.692,0.693,0.692h29.195   C2819.91,57.376,2820.132,56.91,2820.401,56.468z"/>
	<path fill="#000000" d="M2818.894,59.36h-28.375c-0.382,0-0.693,0.311-0.693,0.694c0,0.381,0.311,0.691,0.693,0.691h27.756   C2818.448,60.27,2818.662,59.811,2818.894,59.36z"/>
	<path fill="#000000" d="M2817.746,63.47c-0.003-0.005-0.005-0.01-0.008-0.014c-0.206-0.041-0.38-0.275-0.244-0.493   c0.149-0.236,0.296-0.473,0.443-0.709h-27.419c-0.382,0-0.693,0.309-0.693,0.693c0,0.382,0.311,0.691,0.693,0.691h27.285   C2817.773,63.587,2817.75,63.53,2817.746,63.47z"/>
	<path fill="#000000" d="M2821.806,62.254h-0.235c-0.031,0.019-0.062,0.039-0.093,0.059c-0.703,0.522-1.448,0.958-2.241,1.326h2.569   c0.382,0,0.692-0.31,0.692-0.691C2822.498,62.563,2822.188,62.254,2821.806,62.254z"/>
	<path fill="#000000" d="M2845.341,44.129c1.641-1.641,1.641-4.31,0-5.952l-2.093-2.093c-0.794-0.794-1.851-1.231-2.977-1.231   c-1.125,0-2.182,0.437-2.977,1.231l-0.151,0.151l-0.833-0.832l-7.077,8.537l-11.023,11.023l-3.841,8.058   c-0.363,0.767-0.617,1.302-0.728,1.712l-0.024-0.004c-0.027,0.154-0.045,0.312-0.045,0.473c0,1.465,1.193,2.658,2.659,2.658   c0.142,0,0.28-0.015,0.416-0.037l0.47-0.12l-0.363-1.042l0.487,0.993l9.22-4.441l11.024-11.023l0.73,0.73l7.808-7.808l-0.833-0.832   L2845.341,44.129z M2836.312,41.98l3.132,3.133l-1.229,1.228l-3.132-3.132L2836.312,41.98z M2832.525,47.229l1.671,1.671   l-8.852,8.852l-1.671-1.672L2832.525,47.229z M2820.5,60.929l0.45-0.936l0.488,0.487L2820.5,60.929z"/>
	<path fill="#000000" d="M2844.401,39.115l-2.093-2.091c-1.123-1.122-2.95-1.122-4.073,0l-1.091,1.091l-0.833-0.833l-5.928,5.927   l0.729,0.73l-11.804,11.804l-0.219,0.455c0,0-4.179,8.755-4.165,8.766c-0.014,0.078-0.024,0.158-0.024,0.238   c0,0.734,0.596,1.33,1.33,1.33c0.066,0,0.131-0.01,0.193-0.02c0.071-0.017,0.142-0.037,0.211-0.052   c0.014-0.004,0.029-0.007,0.043-0.011l-0.017,0.007c0,0,0,0,0,0l8.562-4.123l0.455-0.219l0.592-0.593l11.212-11.211l0.73,0.73   l5.928-5.927l-0.833-0.833l1.092-1.091C2845.524,42.066,2845.524,40.24,2844.401,39.115z M2819.116,63.063l-0.754-0.756   l2.201-4.582l3.144,3.142L2819.116,63.063z M2825.344,59.632l-3.551-3.551l10.731-10.731l3.55,3.551L2825.344,59.632z    M2838.215,48.221l-5.012-5.011l3.109-3.108l5.011,5.012L2838.215,48.221z M2842.991,41.78l-1.09,1.091l-3.347-3.347l1.092-1.091   c0.345-0.345,0.908-0.345,1.253,0l2.092,2.093C2843.337,40.872,2843.337,41.434,2842.991,41.78z"/>
	<g>
		<g>
			<path fill="#000000" d="M2798.852,47.503l-6.312,2.05c-1.132-3.485,0.775-7.23,4.261-8.362c0.697-0.228,1.317-0.326,2.05-0.326     V47.503z"/>
		</g>
		<g>
			<path fill="#000000" d="M2798.688,47.338l-3.901,5.369c-1.187-0.862-1.958-1.924-2.411-3.318L2798.688,47.338z"/>
			<path fill="#000000" d="M2794.819,52.904l-0.115-0.083c-1.215-0.882-1.997-1.96-2.462-3.389l-0.043-0.135l6.861-2.229     L2794.819,52.904z M2792.556,49.479c0.435,1.258,1.139,2.228,2.201,3.029l3.56-4.9L2792.556,49.479z"/>
		</g>
		<g>
			<path fill="#000000" d="M2798.681,47.338V40.7c3.665,0,6.638,2.972,6.638,6.638c0,3.664-2.973,6.636-6.638,6.636     c-1.466,0-2.714-0.406-3.901-1.268L2798.681,47.338z"/>
			<path fill="#000000" d="M2798.681,54.116c-1.503,0-2.768-0.411-3.984-1.295l-0.115-0.083l3.958-5.447v-6.733h0.141     c3.738,0,6.779,3.042,6.779,6.78C2805.46,51.075,2802.419,54.116,2798.681,54.116z M2794.98,52.674     c1.129,0.79,2.31,1.158,3.701,1.158c3.582,0,6.495-2.915,6.495-6.495c0-3.535-2.837-6.418-6.353-6.495v6.539L2794.98,52.674z"/>
		</g>
	</g>
	<g>
		<g>
			<path fill="#000000" d="M2798.852,47.503l-6.312,2.05c-1.132-3.485,0.775-7.23,4.261-8.362c0.697-0.228,1.317-0.326,2.05-0.326     V47.503z"/>
		</g>
		<g>
			<path fill="#000000" d="M2798.688,47.338l-3.901,5.369c-1.187-0.862-1.958-1.924-2.411-3.318L2798.688,47.338z"/>
			<path fill="#000000" d="M2794.819,52.904l-0.115-0.083c-1.215-0.882-1.997-1.96-2.462-3.389l-0.043-0.135l6.861-2.229     L2794.819,52.904z M2792.556,49.479c0.435,1.258,1.139,2.228,2.201,3.029l3.56-4.9L2792.556,49.479z"/>
		</g>
		<g>
			<path fill="#000000" d="M2798.681,47.338V40.7c3.665,0,6.638,2.972,6.638,6.638c0,3.664-2.973,6.636-6.638,6.636     c-1.466,0-2.714-0.406-3.901-1.268L2798.681,47.338z"/>
			<path fill="#000000" d="M2798.681,54.116c-1.503,0-2.768-0.411-3.984-1.295l-0.115-0.083l3.958-5.447v-6.733h0.141     c3.738,0,6.779,3.042,6.779,6.78C2805.46,51.075,2802.419,54.116,2798.681,54.116z M2794.98,52.674     c1.129,0.79,2.31,1.158,3.701,1.158c3.582,0,6.495-2.915,6.495-6.495c0-3.535-2.837-6.418-6.353-6.495v6.539L2794.98,52.674z"/>
		</g>
	</g>
</g>
<g>
	<path fill="#000000" d="M3034.003,24.249v36.427h-12.458l0.172,1.816c0.01,0.1,0.243,2.479,1.241,4.885   c1.861,4.485,4.775,5.426,6.892,5.426l45.853-0.033c2.702-0.161,4.828-1.604,6.008-4.137c0.272-0.585,0.467-1.167,0.606-1.705   c0,0,0.363-2.328,0.363-4.259s0-38.421,0-38.421H3034.003z M3026.051,66.163c-0.315-0.75-0.54-1.51-0.697-2.164h8.649v0.536   c-0.013,0.254-0.104,1.543-0.685,2.754c-0.716,1.496-1.819,2.193-3.469,2.193C3029.257,69.481,3027.451,69.481,3026.051,66.163z    M3075.202,69.481c-0.346,0-39.306,0-39.306,0c0.165-0.269,0.322-0.547,0.462-0.847c0.958-2.059,0.97-4.116,0.97-4.136   l-0.002-0.893l0,0V27.572h42.03v33.104v3.795c0,0-0.101,1.596-0.686,2.817C3077.954,68.784,3076.852,69.481,3075.202,69.481z"/>
	<path fill="#000000" d="M3027.582,24.985l-2.547,0.001c-1.366,0.001-2.478,1.114-2.477,2.48v1.328l-1.014,0.001l0.006,7.214h0.889   l0.01,14.367l0.144,0.41c0,0,2.791,7.871,2.806,7.868c0.039,0.056,0.081,0.11,0.13,0.159c0.447,0.447,1.172,0.446,1.618,0   c0.04-0.041,0.074-0.085,0.106-0.13c0.032-0.053,0.062-0.109,0.097-0.16c0.005-0.011,0.013-0.022,0.019-0.034l-0.005,0.015l0,0   l2.696-7.722l0.143-0.411V49.65l-0.009-13.646h0.888l-0.004-7.214l-1.014,0.001l-0.001-1.329   C3030.062,26.095,3028.949,24.983,3027.582,24.985z M3026.788,54.946h-0.918l-1.452-4.127l3.825-0.002L3026.788,54.946z    M3028.485,49.067l-4.321,0.002l-0.009-13.061l4.321-0.002L3028.485,49.067z M3029.365,34.29l-6.101,0.004l-0.002-3.784l6.1-0.004   L3029.365,34.29z M3028.348,27.464v1.327l-4.072,0.003l-0.001-1.328c-0.001-0.421,0.342-0.763,0.762-0.763l2.547-0.001   C3028.004,26.701,3028.347,27.042,3028.348,27.464z"/>
	<path fill="#000000" d="M3075.428,41.968c0,0.382-0.311,0.692-0.692,0.692H3061.5c-0.382,0-0.692-0.31-0.692-0.692l0,0   c0-0.383,0.311-0.693,0.692-0.693h13.235C3075.117,41.275,3075.428,41.585,3075.428,41.968L3075.428,41.968z"/>
	<path fill="#000000" d="M3075.428,44.861c0,0.383-0.311,0.693-0.692,0.693H3061.5c-0.382,0-0.692-0.31-0.692-0.693l0,0   c0-0.382,0.311-0.691,0.692-0.691h13.235C3075.117,44.17,3075.428,44.479,3075.428,44.861L3075.428,44.861z"/>
	<path fill="#000000" d="M3075.428,47.755c0,0.382-0.311,0.692-0.692,0.692H3061.5c-0.382,0-0.692-0.311-0.692-0.692l0,0   c0-0.382,0.311-0.692,0.692-0.692h13.235C3075.117,47.063,3075.428,47.373,3075.428,47.755L3075.428,47.755z"/>
	<path fill="#000000" d="M3075.428,50.649c0,0.38-0.311,0.691-0.692,0.691H3061.5c-0.382,0-0.692-0.311-0.692-0.691l0,0   c0-0.383,0.311-0.693,0.692-0.693h13.235C3075.117,49.956,3075.428,50.266,3075.428,50.649L3075.428,50.649z"/>
	<path fill="#000000" d="M3075.428,53.542c0,0.383-0.311,0.692-0.692,0.692H3061.5c-0.382,0-0.692-0.309-0.692-0.692l0,0   c0-0.382,0.311-0.692,0.692-0.692h13.235C3075.117,52.85,3075.428,53.159,3075.428,53.542L3075.428,53.542z"/>
	<path fill="#000000" d="M3056.82,57.577c0,0.383-0.31,0.693-0.691,0.693h-13.235c-0.383,0-0.692-0.311-0.692-0.693l0,0   c0-0.382,0.31-0.692,0.692-0.692h13.235C3056.511,56.884,3056.82,57.195,3056.82,57.577L3056.82,57.577z"/>
	<path fill="#000000" d="M3056.82,60.472c0,0.382-0.31,0.691-0.691,0.691h-13.235c-0.383,0-0.692-0.31-0.692-0.691l0,0   c0-0.383,0.31-0.693,0.692-0.693h13.235C3056.511,59.779,3056.82,60.088,3056.82,60.472L3056.82,60.472z"/>
	<path fill="#000000" d="M3056.82,63.364c0,0.383-0.31,0.693-0.691,0.693h-13.235c-0.383,0-0.692-0.31-0.692-0.693l0,0   c0-0.381,0.31-0.691,0.692-0.691h13.235C3056.511,62.673,3056.82,62.982,3056.82,63.364L3056.82,63.364z"/>
	<path fill="#000000" d="M3056.82,66.258c0,0.381-0.31,0.692-0.691,0.692h-13.235c-0.383,0-0.692-0.311-0.692-0.692l0,0   c0-0.382,0.31-0.693,0.692-0.693h13.235C3056.511,65.565,3056.82,65.876,3056.82,66.258L3056.82,66.258z"/>
	<path fill="#000000" d="M3068.782,57.577c0,0.383-0.311,0.693-0.692,0.693h-13.234c-0.383,0-0.693-0.311-0.693-0.693l0,0   c0-0.382,0.311-0.692,0.693-0.692h13.234C3068.472,56.884,3068.782,57.195,3068.782,57.577L3068.782,57.577z"/>
	<path fill="#000000" d="M3068.782,60.472c0,0.382-0.311,0.691-0.692,0.691h-13.234c-0.383,0-0.693-0.31-0.693-0.691l0,0   c0-0.383,0.311-0.693,0.693-0.693h13.234C3068.472,59.779,3068.782,60.088,3068.782,60.472L3068.782,60.472z"/>
	<path fill="#000000" d="M3068.782,63.364c0,0.383-0.311,0.693-0.692,0.693h-13.234c-0.383,0-0.693-0.31-0.693-0.693l0,0   c0-0.381,0.311-0.691,0.693-0.691h13.234C3068.472,62.673,3068.782,62.982,3068.782,63.364L3068.782,63.364z"/>
	<path fill="#000000" d="M3068.782,66.258c0,0.381-0.311,0.692-0.692,0.692h-13.234c-0.383,0-0.693-0.311-0.693-0.692l0,0   c0-0.382,0.311-0.693,0.693-0.693h13.234C3068.472,65.565,3068.782,65.876,3068.782,66.258L3068.782,66.258z"/>
	<path fill="#000000" d="M3074.873,57.577c0,0.383-0.31,0.693-0.692,0.693h-13.235c-0.381,0-0.691-0.311-0.691-0.693l0,0   c0-0.382,0.311-0.692,0.691-0.692h13.235C3074.563,56.884,3074.873,57.195,3074.873,57.577L3074.873,57.577z"/>
	<path fill="#000000" d="M3074.873,60.472c0,0.382-0.31,0.691-0.692,0.691h-13.235c-0.381,0-0.691-0.31-0.691-0.691l0,0   c0-0.383,0.311-0.693,0.691-0.693h13.235C3074.563,59.779,3074.873,60.088,3074.873,60.472L3074.873,60.472z"/>
	<path fill="#000000" d="M3074.873,63.364c0,0.383-0.31,0.693-0.692,0.693h-13.235c-0.381,0-0.691-0.31-0.691-0.693l0,0   c0-0.381,0.311-0.691,0.691-0.691h13.235C3074.563,62.673,3074.873,62.982,3074.873,63.364L3074.873,63.364z"/>
	<path fill="#000000" d="M3073.887,29.787h-10.565h-9.339h-10.564c-1.036,0-1.883,0.847-1.883,1.883v5.01   c0,1.037,0.847,1.884,1.883,1.884h7.971h14.525h7.973c1.036,0,1.883-0.847,1.883-1.884v-5.01   C3075.77,30.633,3074.923,29.787,3073.887,29.787z"/>
	<g>
		<g>
			<path fill="#000000" d="M3050.655,47.921l-6.312,2.05c-1.133-3.486,0.775-7.229,4.262-8.362c0.696-0.227,1.316-0.326,2.05-0.326     V47.921z"/>
		</g>
		<g>
			<path fill="#000000" d="M3050.492,47.754l-3.9,5.37c-1.187-0.862-1.958-1.925-2.411-3.319L3050.492,47.754z"/>
			<path fill="#000000" d="M3046.623,53.322l-0.115-0.083c-1.215-0.883-1.998-1.96-2.462-3.39l-0.044-0.135l6.861-2.229     L3046.623,53.322z M3044.36,49.896c0.435,1.26,1.138,2.228,2.2,3.029l3.561-4.9L3044.36,49.896z"/>
		</g>
		<g>
			<path fill="#000000" d="M3050.485,47.754v-6.636c3.666,0,6.638,2.971,6.638,6.636c0,3.666-2.972,6.638-6.638,6.638     c-1.466,0-2.715-0.407-3.901-1.268L3050.485,47.754z"/>
			<path fill="#000000" d="M3050.485,54.533c-1.502,0-2.769-0.411-3.984-1.294l-0.114-0.084l3.957-5.447v-6.731h0.142     c3.737,0,6.779,3.04,6.779,6.778C3057.265,51.492,3054.223,54.533,3050.485,54.533z M3046.783,53.091     c1.13,0.791,2.311,1.16,3.702,1.16c3.581,0,6.495-2.915,6.495-6.496c0-3.535-2.837-6.417-6.354-6.493V47.8L3046.783,53.091z"/>
		</g>
	</g>
</g>
<g>
	<path fill="#000000" d="M2326.292,37.055c0.057,0.258,0.16,0.433,0.278,0.433h4.166c0.118,0,0.222-0.175,0.278-0.434   c2.036-0.789,3.458-2.603,3.458-4.975h-11.638C2322.833,34.453,2324.256,36.265,2326.292,37.055z"/>
	<polygon fill="#000000" points="2335.214,28.388 2334.472,27.797 2330.832,31.438 2332.164,31.438  "/>
	<path fill="#000000" d="M2311.108,56.501h25.498c0.323,0,0.585-0.263,0.585-0.587c0-0.323-0.262-0.585-0.585-0.585h-25.498   c-0.323,0-0.586,0.262-0.586,0.585C2310.522,56.238,2310.785,56.501,2311.108,56.501z"/>
	<path fill="#000000" d="M2311.108,53.986h25.498c0.323,0,0.585-0.263,0.585-0.586c0-0.324-0.262-0.587-0.585-0.587h-25.498   c-0.323,0-0.586,0.263-0.586,0.587C2310.522,53.723,2310.785,53.986,2311.108,53.986z"/>
	<path fill="#000000" d="M2311.108,51.47h25.498c0.323,0,0.585-0.263,0.585-0.585c0-0.325-0.262-0.587-0.585-0.587h-25.498   c-0.323,0-0.586,0.262-0.586,0.587C2310.522,51.207,2310.785,51.47,2311.108,51.47z"/>
	<path fill="#000000" d="M2311.108,48.954h25.498c0.323,0,0.585-0.262,0.585-0.587c0-0.322-0.262-0.585-0.585-0.585h-25.498   c-0.323,0-0.586,0.263-0.586,0.585C2310.522,48.692,2310.785,48.954,2311.108,48.954z"/>
	<path fill="#000000" d="M2311.108,46.439h25.498c0.323,0,0.585-0.262,0.585-0.587c0-0.322-0.262-0.584-0.585-0.584h-25.498   c-0.323,0-0.586,0.263-0.586,0.584C2310.522,46.177,2310.785,46.439,2311.108,46.439z"/>
	<path fill="#000000" d="M2311.108,43.922h25.498c0.323,0,0.585-0.262,0.585-0.586c0-0.323-0.262-0.586-0.585-0.586h-25.498   c-0.323,0-0.586,0.263-0.586,0.586C2310.522,43.66,2310.785,43.922,2311.108,43.922z"/>
	<path fill="#000000" d="M2311.108,41.408h25.498c0.323,0,0.585-0.262,0.585-0.586c0-0.325-0.262-0.587-0.585-0.587h-25.498   c-0.323,0-0.586,0.262-0.586,0.587C2310.522,41.146,2310.785,41.408,2311.108,41.408z"/>
	<path fill="#000000" d="M2354.457,58.251l5.79-8.454c0.831-1.164,0.559-2.788-0.605-3.62c-1.128-0.802-2.821-0.515-3.619,0.607   l-7.447,10.439c-1.71-0.201-3.534-0.344-5.443-0.425c0.262,0.01,0.537,0.009,0.797,0.022V27.984c0-3.305-2.503-5.993-5.578-5.993   l-18.636-0.074c0,0-1.387,0.08-1.959,0.652l-13.32,13.318c-0.512,0.512-0.654,1.789-0.654,1.789v25.168   c-1.308,0.263-2.522,0.741-3.516,1.447c-1.628,1.159-2.552,2.803-2.535,4.509c0.034,3.378,3.587,6.024,8.09,6.024l0.113,0   c1.638-0.015,3.04-0.406,4.14-1.095c0.688,3.455,2.88,5.518,5.947,5.518c0.364,0,0.737-0.031,1.112-0.092   c1.698-0.278,3.119-1.147,4-2.445c0.787-1.159,1.13-2.633,1.024-4.304h1.195c3.112,3.567,8.099,6.863,15.991,7.137   c0.33,0.011,0.658,0.018,0.978,0.018c8.188,0,13.012-3.669,15.644-6.815c3.053-3.655,4.362-8.035,4.359-9.878   c0.002-0.035,0.009-0.066,0.009-0.1C2360.336,60.217,2357.26,58.969,2354.457,58.251z M2357.583,47.898   c0.129-0.181,0.33-0.285,0.553-0.285c0.099,0,0.246,0.022,0.394,0.125c0.304,0.218,0.375,0.643,0.146,0.961l-10.858,15.854   c-0.003,0-0.008,0-0.011,0.001c-0.235-0.04-0.439-0.041-0.552-0.041c-0.428,0-0.879,0.06-1.316,0.117   c-0.107,0.014-0.215,0.029-0.321,0.041L2357.583,47.898z M2316.415,27.675v4.352c0,1.67-1.653,3.029-3.688,3.029h-3.694   L2316.415,27.675z M2305.909,71.951h-0.085c-2.811,0-5.199-1.456-5.216-3.18c-0.011-1.031,0.826-1.781,1.327-2.136   c1.006-0.717,2.431-1.136,3.993-1.151c2.509,0,3.903,1.133,3.923,3.194C2309.872,70.763,2308.472,71.926,2305.909,71.951z    M2318.758,75.094c-0.558,0.821-1.443,1.119-2.089,1.226c-0.22,0.035-0.438,0.054-0.646,0.054c-2.167,0-2.932-1.877-3.189-3.452   c-0.24-1.458-0.073-2.935,0.458-4.048c0.264-0.555,0.86-1.508,1.876-1.676c0.102-0.017,0.203-0.024,0.305-0.024   c1.427,0,3.264,1.796,3.741,4.699C2319.435,73.217,2319.277,74.331,2318.758,75.094z M2314.702,64.363   c-0.998,0.165-1.913,0.658-2.675,1.402c-0.854-1.609-2.451-2.688-4.571-3.033V37.608h5.635c3.303,0,5.991-2.502,5.991-5.577v-6.367   h19.271c1.051,0,1.906,1.04,1.906,2.319v28.734c0.152,0,0.298,0.012,0.45,0.013c-0.431-0.008-0.854-0.021-1.291-0.021   c-4.929,0-9.583,0.405-13.221,1.134h-15.088c-0.323,0-0.586,0.263-0.586,0.586s0.263,0.586,0.586,0.586h10.87   c-0.881,0.357-1.682,0.798-2.296,1.343h-8.574c-0.323,0-0.586,0.263-0.586,0.585c0,0.325,0.263,0.587,0.586,0.587h7.673   c-0.176,0.375-0.282,0.782-0.282,1.236c0,0.037,0.006,0.071,0.009,0.108h-7.4c-0.323,0-0.586,0.262-0.586,0.585   s0.263,0.585,0.586,0.585h7.658c0.154,0.526,0.393,1.25,0.743,2.099C2318.165,64.782,2316.459,64.072,2314.702,64.363z    M2322.934,62.768c2.019-0.949,7.682-2.225,16.483-2.225c2.457,0,4.646,0.104,6.601,0.269l-2.867,4.021l-0.052,0.079   c-1.161,0.05-2.383,0.081-3.681,0.081C2330.616,64.992,2324.953,63.715,2322.934,62.768z M2339.479,75.714   c-8.628-0.299-13.038-4.775-15.216-8.46c0.447,0.118,0.888,0.222,1.31,0.314c3.719,0.81,8.635,1.256,13.844,1.256   c5.208,0,10.126-0.446,13.844-1.256c0.586-0.128,1.209-0.276,1.833-0.455C2353.196,70.979,2348.898,76.048,2339.479,75.714z    M2350.379,64.206l1.747-2.552c1.745,0.361,3.021,0.76,3.773,1.114C2354.914,63.231,2353.05,63.772,2350.379,64.206z"/>
</g>
<g>
	<path fill="#000000" d="M3669.247,24.083h-27.852h-1.318c-0.007,0-0.731-0.065-1.763-0.065c-2.911,0-7.819,0.499-7.988,3.853   v41.816c0,2.761,2.125,5.009,4.738,5.009h31.066c2.126,0,3.987-1.421,4.559-3.467c1.944-0.624,3.295-2.465,3.295-4.511V28.819   C3673.983,26.208,3671.858,24.083,3669.247,24.083z M3666.129,27.324h-31.567c-0.323,0-0.548-0.164-0.548-0.312   s0.225-0.312,0.548-0.312h34.684c1.168,0,2.119,0.951,2.119,2.119v37.899c0,0.505-0.179,0.986-0.5,1.366V32.06   C3670.866,29.448,3668.741,27.324,3666.129,27.324z M3666.129,29.941c1.168,0,2.119,0.951,2.119,2.119v37.899   c0,1.168-0.95,2.119-2.119,2.119h-26.044l-5.022-0.137c-1.169,0-2.12-1.012-2.12-2.255V29.61c0.787,0.133,1.875,0.211,3.387,0.243   l0,0.027L3666.129,29.941z"/>
	<g>
		<path fill="#000000" d="M3649.485,57.013c0,0.381-0.31,0.692-0.692,0.692h-13.234c-0.383,0-0.693-0.311-0.693-0.692l0,0    c0-0.383,0.31-0.693,0.693-0.693h13.234C3649.175,56.32,3649.485,56.63,3649.485,57.013L3649.485,57.013z"/>
		<path fill="#000000" d="M3649.485,59.906c0,0.383-0.31,0.692-0.692,0.692h-13.234c-0.383,0-0.693-0.31-0.693-0.692l0,0    c0-0.382,0.31-0.691,0.693-0.691h13.234C3649.175,59.214,3649.485,59.524,3649.485,59.906L3649.485,59.906z"/>
		<path fill="#000000" d="M3649.485,62.8c0,0.382-0.31,0.692-0.692,0.692h-13.234c-0.383,0-0.693-0.31-0.693-0.692l0,0    c0-0.382,0.31-0.693,0.693-0.693h13.234C3649.175,62.107,3649.485,62.417,3649.485,62.8L3649.485,62.8z"/>
		<path fill="#000000" d="M3649.485,65.693c0,0.382-0.31,0.691-0.692,0.691h-13.234c-0.383,0-0.693-0.31-0.693-0.691l0,0    c0-0.383,0.31-0.694,0.693-0.694h13.234C3649.175,65,3649.485,65.31,3649.485,65.693L3649.485,65.693z"/>
		<path fill="#000000" d="M3649.485,68.586c0,0.382-0.31,0.692-0.692,0.692h-13.234c-0.383,0-0.693-0.31-0.693-0.692l0,0    c0-0.383,0.31-0.692,0.693-0.692h13.234C3649.175,67.895,3649.485,68.204,3649.485,68.586L3649.485,68.586z"/>
	</g>
	<rect x="3651.49" y="56.32" fill="#000000" width="14.619" height="12.958"/>
	<rect x="3634.865" y="44.497" fill="#000000" width="14.619" height="10.065"/>
	<path fill="#000000" d="M3666.109,45.19c0,0.381-0.311,0.691-0.692,0.691h-13.235c-0.382,0-0.692-0.31-0.692-0.691l0,0   c0-0.383,0.31-0.693,0.692-0.693h13.235C3665.799,44.497,3666.109,44.808,3666.109,45.19L3666.109,45.19z"/>
	<path fill="#000000" d="M3666.109,48.083c0,0.382-0.311,0.691-0.692,0.691h-13.235c-0.382,0-0.692-0.309-0.692-0.691l0,0   c0-0.383,0.31-0.693,0.692-0.693h13.235C3665.799,47.391,3666.109,47.7,3666.109,48.083L3666.109,48.083z"/>
	<path fill="#000000" d="M3666.109,50.976c0,0.383-0.311,0.693-0.692,0.693h-13.235c-0.382,0-0.692-0.31-0.692-0.693l0,0   c0-0.382,0.31-0.691,0.692-0.691h13.235C3665.799,50.285,3666.109,50.594,3666.109,50.976L3666.109,50.976z"/>
	<path fill="#000000" d="M3666.109,53.871c0,0.382-0.311,0.692-0.692,0.692h-13.235c-0.382,0-0.692-0.31-0.692-0.692l0,0   c0-0.383,0.31-0.693,0.692-0.693h13.235C3665.799,53.177,3666.109,53.488,3666.109,53.871L3666.109,53.871z"/>
	<path fill="#000000" d="M3665.417,41.405h-4.996h-8.239h-3.39h-1.606h-11.628c-0.383,0-0.693,0.31-0.693,0.693   c0,0.382,0.31,0.691,0.693,0.691h11.628h1.606h3.39h8.239h4.996c0.383,0,0.692-0.31,0.692-0.691   C3666.109,41.714,3665.8,41.405,3665.417,41.405z"/>
	<rect x="3651.49" y="31.381" fill="#000000" width="14.619" height="8.45"/>
	<path fill="#000000" d="M3649.484,33.82c0,0.704-0.31,1.274-0.692,1.274h-13.234c-0.383,0-0.693-0.57-0.693-1.274l0,0   c0-0.703,0.31-1.273,0.693-1.273h13.234C3649.175,32.547,3649.484,33.118,3649.484,33.82L3649.484,33.82z"/>
	<path fill="#000000" d="M3649.484,37.393c0,0.704-0.31,1.273-0.692,1.273h-13.234c-0.383,0-0.693-0.569-0.693-1.273l0,0   c0-0.704,0.31-1.274,0.693-1.274h13.234C3649.175,36.119,3649.484,36.689,3649.484,37.393L3649.484,37.393z"/>
</g>
<g>
	<path fill="#000000" d="M3546.346,24.586h-27.851h-1.318c-0.007,0-0.732-0.065-1.763-0.065c-2.91,0-7.818,0.499-7.988,3.853v41.816   c0,2.761,2.125,5.009,4.737,5.009h31.066c2.127,0,3.988-1.421,4.559-3.467c1.944-0.624,3.295-2.465,3.295-4.511V29.322   C3551.083,26.71,3548.958,24.586,3546.346,24.586z M3548.466,67.221c0,0.505-0.18,0.986-0.5,1.366V42.991   c-0.297,1.083-1.901,1.211-2.283,0.022c-0.093-0.289-0.209-0.556-0.334-0.815v28.265c0,1.168-0.951,2.119-2.12,2.119h-26.044   l-0.007-0.137h-5.015c-1.168,0-2.12-1.012-2.12-2.255V30.113c0.787,0.133,1.875,0.211,3.387,0.243l-0.001,0.027l21.797,0.043   c-0.8-0.252-1.577-0.564-2.289-0.951c-0.668-0.361-0.714-1.122-0.377-1.65h-20.899c-0.323,0-0.548-0.164-0.548-0.312   s0.225-0.312,0.548-0.312h34.684c1.169,0,2.12,0.951,2.12,2.119V67.221z"/>
	<path fill="#000000" d="M3545.375,42.531l-0.026,1.584c1.069-0.083,1.549-0.146,2.617-0.181v-1.339c0,0-0.124-1.199-0.571-1.678   l-11.634-12.505c-0.5-0.536-1.711-0.61-1.711-0.61l-1.711,0.006c-0.001,1.169-0.062,1.441-0.209,2.613l2.448-0.018l0.028,6.892   c0,2.887,2.347,5.235,5.233,5.235L3545.375,42.531z M3536.934,37.292v-4.085l6.448,6.928h-3.227   C3538.378,40.135,3536.934,38.86,3536.934,37.292z"/>
	<path fill="#000000" d="M3510.458,74.773c0.186-0.373,0.366-0.747,0.54-1.124c-0.553,0.315-1.284,0.116-1.607-0.434   c-0.202,0.124-0.441,0.165-0.679,0.149C3509.193,73.972,3509.789,74.455,3510.458,74.773z"/>
	<g>
		<path fill="#000000" d="M3526.807,57.469c0,0.384-0.311,0.693-0.692,0.693h-13.235c-0.382,0-0.693-0.309-0.693-0.693l0,0    c0-0.382,0.311-0.691,0.693-0.691h13.235C3526.496,56.778,3526.807,57.087,3526.807,57.469L3526.807,57.469z"/>
		<path fill="#000000" d="M3526.807,60.363c0,0.382-0.311,0.692-0.692,0.692h-13.235c-0.382,0-0.693-0.31-0.693-0.692l0,0    c0-0.383,0.311-0.693,0.693-0.693h13.235C3526.496,59.67,3526.807,59.98,3526.807,60.363L3526.807,60.363z"/>
		<path fill="#000000" d="M3526.807,63.256c0,0.382-0.311,0.692-0.692,0.692h-13.235c-0.382,0-0.693-0.31-0.693-0.692l0,0    c0-0.383,0.311-0.692,0.693-0.692h13.235C3526.496,62.564,3526.807,62.873,3526.807,63.256L3526.807,63.256z"/>
		<path fill="#000000" d="M3526.807,66.15c0,0.383-0.311,0.692-0.692,0.692h-13.235c-0.382,0-0.693-0.309-0.693-0.692l0,0    c0-0.383,0.311-0.693,0.693-0.693h13.235C3526.496,65.457,3526.807,65.767,3526.807,66.15L3526.807,66.15z"/>
		<path fill="#000000" d="M3526.807,69.044c0,0.381-0.311,0.691-0.692,0.691h-13.235c-0.382,0-0.693-0.31-0.693-0.691l0,0    c0-0.383,0.311-0.693,0.693-0.693h13.235C3526.496,68.351,3526.807,68.661,3526.807,69.044L3526.807,69.044z"/>
	</g>
	<rect x="3528.812" y="56.778" fill="#000000" width="14.619" height="12.958"/>
	<rect x="3512.187" y="44.956" fill="#000000" width="14.62" height="10.063"/>
	<path fill="#000000" d="M3543.431,45.646c0,0.383-0.31,0.692-0.692,0.692h-13.235c-0.382,0-0.692-0.31-0.692-0.692l0,0   c0-0.382,0.31-0.691,0.692-0.691h13.235C3543.121,44.956,3543.431,45.265,3543.431,45.646L3543.431,45.646z"/>
	<path fill="#000000" d="M3543.431,48.541c0,0.381-0.31,0.692-0.692,0.692h-13.235c-0.382,0-0.692-0.311-0.692-0.692l0,0   c0-0.383,0.31-0.692,0.692-0.692h13.235C3543.121,47.848,3543.431,48.158,3543.431,48.541L3543.431,48.541z"/>
	<path fill="#000000" d="M3543.431,51.434c0,0.381-0.31,0.692-0.692,0.692h-13.235c-0.382,0-0.692-0.311-0.692-0.692l0,0   c0-0.383,0.31-0.693,0.692-0.693h13.235C3543.121,50.741,3543.431,51.051,3543.431,51.434L3543.431,51.434z"/>
	<path fill="#000000" d="M3543.431,54.326c0,0.383-0.31,0.693-0.692,0.693h-13.235c-0.382,0-0.692-0.31-0.692-0.693l0,0   c0-0.381,0.31-0.691,0.692-0.691h13.235C3543.121,53.635,3543.431,53.945,3543.431,54.326L3543.431,54.326z"/>
	<path fill="#000000" d="M3536.729,43.074c-0.51-0.279-1.196-0.696-1.745-1.212h-22.104c-0.382,0-0.693,0.31-0.693,0.692   c0,0.382,0.311,0.692,0.693,0.692h24.247C3536.994,43.188,3536.855,43.143,3536.729,43.074z"/>
	<path fill="#000000" d="M3537.352,40.289h1.225c-1.008-0.374-1.871-1.026-2.454-2.15c0.041,0.361,0.115,0.708,0.226,1.037   C3536.598,39.575,3536.932,39.924,3537.352,40.289z"/>
	<path fill="#000000" d="M3533.21,31.838h-4.399v8.451h4.95C3532.732,37.896,3533.431,34.343,3533.21,31.838z"/>
	<path fill="#000000" d="M3526.807,34.278c0,0.703-0.311,1.273-0.693,1.273h-13.234c-0.382,0-0.693-0.57-0.693-1.273l0,0   c0-0.704,0.311-1.274,0.693-1.274h13.234C3526.496,33.004,3526.807,33.574,3526.807,34.278L3526.807,34.278z"/>
	<path fill="#000000" d="M3526.807,37.85c0,0.703-0.311,1.273-0.693,1.273h-13.234c-0.382,0-0.693-0.57-0.693-1.273l0,0   c0-0.705,0.311-1.275,0.693-1.275h13.234C3526.496,36.575,3526.807,37.146,3526.807,37.85L3526.807,37.85z"/>
</g>
<g>
	<path fill="#000000" d="M3799.989,33.915l-1.413-0.204v-1.489c0-1.698-1.316-3.221-2.998-3.465l-21.636-3.141   c-0.58-0.085-1.215-0.102-1.646-0.102c-0.819,0-1.634,0.062-2.235,0.173l-27.535,5.039c-1.645,0.301-2.933,1.847-2.933,3.519   v27.356c-0.625,13.765,2.286,13.992,3.244,14.066c0.139,0.011,0.291,0.018,0.451,0.018c0.336,0,0.709-0.033,1.087-0.152   c0.75-0.174,6.843-1.609,10.583-2.732l20.268-6.095c0.624-0.188,1.934-0.237,2.565-0.1l21.678,4.723   c0.224,0.05,0.449,0.074,0.672,0.074c1.623,0,2.846-1.25,2.846-2.905V37.378C3802.986,35.681,3801.67,34.16,3799.989,33.915z    M3743.397,72.648c-0.494-0.961-0.818-4.137-0.838-7.761c0.024-0.235,0.044-0.467,0.057-0.703c0.001-0.015,0.006-0.022,0.008-0.035   V34.243c0-0.213,0.239-0.5,0.448-0.538l27.534-5.039c0.423-0.077,1.055-0.124,1.69-0.124c0.467,0,0.897,0.025,1.21,0.071   l21.636,3.144c0.192,0.027,0.403,0.27,0.403,0.464v1.049l-17.193-2.498c-0.58-0.084-1.214-0.102-1.646-0.102   c-0.819,0-1.634,0.063-2.235,0.173l-27.534,5.038c-1.645,0.3-2.934,1.848-2.934,3.518v25.156c0,2.562,0,7.294-0.561,8.087   C3743.431,72.644,3743.416,72.645,3743.397,72.648z M3799.954,68.333l-21.518-4.69c-0.587-0.128-1.215-0.154-1.639-0.154   c-0.893,0-1.783,0.116-2.445,0.314l-18.35,5.515c-0.029,0.007-7.838,1.874-9.219,2.291c0.157-1.237,0.222-2.883,0.242-5.112   c0.003-0.002,0.006-0.004,0.009-0.005v-27.09c0-0.21,0.239-0.497,0.448-0.537l27.535-5.038c0.422-0.078,1.055-0.124,1.689-0.124   c0.469,0,0.898,0.025,1.211,0.071l21.637,3.143c0.191,0.027,0.402,0.271,0.402,0.463L3799.954,68.333z"/>
	<path fill="#000000" d="M3749.446,42.431c0-0.678,0.545-1.329,1.212-1.448l24.662-4.418c0.667-0.12,1.76-0.127,2.428-0.016   l18.862,3.111c0.668,0.11,1.216,0.754,1.216,1.431v3.622c0,0.677-0.548,1.144-1.217,1.038l-18.715-2.981   c-0.668-0.105-1.761-0.093-2.428,0.029l-24.809,4.553c-0.667,0.122-1.211-0.333-1.211-1.009V42.431z"/>
	<g>
		<path fill="#000000" d="M3796.321,48.461c0,0.5-0.365,0.849-0.814,0.781l-15.57-2.391c-0.45-0.069-0.818-0.514-0.822-0.995l0,0    c-0.003-0.481,0.359-0.816,0.809-0.748l15.582,2.324C3795.956,47.502,3796.321,47.962,3796.321,48.461L3796.321,48.461z"/>
		<path fill="#000000" d="M3796.321,52.246c0,0.5-0.365,0.847-0.813,0.773l-15.544-2.522c-0.449-0.073-0.816-0.521-0.82-1.003l0,0    c-0.004-0.481,0.358-0.812,0.807-0.741l15.556,2.46C3795.957,51.283,3796.321,51.746,3796.321,52.246L3796.321,52.246z"/>
		<path fill="#000000" d="M3796.321,56.029c0,0.501-0.364,0.844-0.812,0.767l-15.519-2.657c-0.448-0.078-0.815-0.528-0.819-1.01l0,0    c-0.003-0.48,0.357-0.81,0.806-0.735l15.532,2.594C3795.957,55.064,3796.321,55.53,3796.321,56.029L3796.321,56.029z"/>
		<path fill="#000000" d="M3796.321,59.814c0,0.5-0.363,0.84-0.811,0.759l-15.494-2.79c-0.448-0.079-0.813-0.535-0.818-1.016l0,0    c-0.003-0.482,0.357-0.807,0.806-0.727l15.505,2.726C3795.958,58.843,3796.321,59.314,3796.321,59.814L3796.321,59.814z"/>
		<path fill="#000000" d="M3796.321,63.599c0,0.5-0.362,0.837-0.81,0.752l-15.469-2.922c-0.446-0.086-0.812-0.543-0.815-1.023l0,0    c-0.004-0.481,0.355-0.805,0.802-0.721l15.482,2.859C3795.958,62.626,3796.321,63.098,3796.321,63.599L3796.321,63.599z"/>
	</g>
	<g>
		<path fill="#000000" d="M3776.275,45.461c0,0.499-0.405,1-0.905,1.119l-17.309,4.09c-0.5,0.117-0.905-0.203-0.905-0.717l0,0    c0-0.515,0.405-1.025,0.905-1.144l17.309-4.043C3775.87,44.649,3776.275,44.961,3776.275,45.461L3776.275,45.461z"/>
		<path fill="#000000" d="M3776.275,49.245c0,0.5-0.405,1.002-0.905,1.124l-17.309,4.187c-0.5,0.121-0.905-0.198-0.905-0.711l0,0    c0-0.515,0.405-1.028,0.905-1.148l17.309-4.14C3775.87,48.436,3776.275,48.744,3776.275,49.245L3776.275,49.245z"/>
		<path fill="#000000" d="M3776.275,53.028c0,0.501-0.405,1.006-0.905,1.13l-17.309,4.283c-0.5,0.124-0.905-0.191-0.905-0.707l0,0    c0-0.515,0.405-1.03,0.905-1.152l17.309-4.238C3775.87,52.222,3776.275,52.529,3776.275,53.028L3776.275,53.028z"/>
		<path fill="#000000" d="M3776.275,56.812c0,0.5-0.405,1.008-0.905,1.136l-17.309,4.38c-0.5,0.125-0.905-0.188-0.905-0.702l0,0    c0-0.515,0.405-1.034,0.905-1.158l17.309-4.334C3775.87,56.008,3776.275,56.313,3776.275,56.812L3776.275,56.812z"/>
		<path fill="#000000" d="M3776.275,60.597c0,0.5-0.405,1.01-0.905,1.139l-17.309,4.477c-0.5,0.131-0.905-0.181-0.905-0.695l0,0    c0-0.514,0.405-1.036,0.905-1.163l17.309-4.432C3775.87,59.795,3776.275,60.098,3776.275,60.597L3776.275,60.597z"/>
	</g>
	<path fill="#000000" d="M3750.191,51.568c0.019-0.677,0.579-1.329,1.246-1.448l3.209-0.574c0.667-0.118,1.194,0.338,1.17,1.016   l-0.545,15.897c-0.024,0.678-0.579,1.372-1.234,1.543l-3.127,0.817c-0.655,0.172-1.176-0.243-1.159-0.92L3750.191,51.568z"/>
</g>
<g>
	<path fill="#000000" d="M3404.511,58.072c0.129,0.59,0.363,0.989,0.634,0.989h9.501c0.271,0,0.507-0.399,0.638-0.992   c4.645-1.798,7.889-5.937,7.889-11.348h-26.553C3396.619,52.136,3399.865,56.271,3404.511,58.072z"/>
	<polygon fill="#000000" points="3414.866,45.259 3417.906,45.259 3424.866,38.3 3423.172,36.953  "/>
	<path fill="#000000" d="M3437.537,40.068c1.527,0,2.77-1.243,2.77-2.77v-6.49c0-1.527-1.242-2.77-2.77-2.77h-2.339v-1.545   c0-2.801-2.279-5.081-5.081-5.081h-29.878l-1.414,0c-0.008,0-0.785-0.07-1.891-0.07c-3.123,0-8.388,0.536-8.569,4.134v44.858   c0,2.963,2.28,5.374,5.082,5.374h33.326c2.283,0,4.279-1.525,4.891-3.72c2.058-0.66,3.492-2.592,3.531-4.749h2.343   c1.527,0,2.77-1.243,2.77-2.771v-6.488c0-1.528-1.242-2.771-2.77-2.771h-2.339v-1.817h2.339c1.527,0,2.77-1.244,2.77-2.77v-6.489   c0-1.527-1.242-2.77-2.77-2.77h-2.339v-1.297H3437.537z M3429.046,70.627c0,1.254-1.021,2.274-2.274,2.274h-27.938l-5.388-0.146   c-1.253,0-2.274-1.086-2.274-2.42V27.344c0.845,0.142,2.011,0.226,3.633,0.261l-0.001,0.029l31.967,0.064   c1.254,0,2.274,1.02,2.274,2.273V70.627z M3431.854,29.971c0-2.802-2.28-5.081-5.083-5.081h-33.862   c-0.347,0-0.588-0.177-0.588-0.335s0.241-0.334,0.588-0.334h37.207c1.248,0,2.262,1.011,2.272,2.256v1.389   c0,1.527,1.241,2.769,2.77,2.769h2.378c0.093,0,0.174,0.082,0.174,0.174v6.49c0,0.093-0.081,0.174-0.174,0.174h-2.378   c-1.528,0-2.77,1.242-2.77,2.77v0.075v0.875v0.91h0.001v11.292h-0.001v0.174v1.47v0.391h0.001V67.15   c0,0.542-0.192,1.057-0.536,1.464V39.651C3431.816,39.5,3431.854,29.971,3431.854,29.971z M3437.537,57.809   c0.093,0,0.174,0.081,0.174,0.173v6.488c0,0.093-0.081,0.175-0.174,0.175h-2.339v-6.836H3437.537z M3437.537,43.962   c0.093,0,0.174,0.081,0.174,0.173v6.489c0,0.093-0.081,0.174-0.174,0.174h-2.339v-6.837H3437.537z"/>
</g>
<g>
	<path fill="#000000" d="M2245.006,32.88l-2.626-2.626c-1.409-1.409-3.703-1.409-5.113,0l-1.369,1.369l-1.046-1.045l-7.439,7.439   l0.917,0.918l-14.816,14.816l-0.274,0.569c0,0-5.245,10.99-5.229,11.004c-0.016,0.098-0.028,0.197-0.028,0.298   c0,0.922,0.746,1.669,1.668,1.669c0.084,0,0.163-0.01,0.243-0.023c0.089-0.021,0.177-0.047,0.265-0.065   c0.017-0.006,0.036-0.01,0.054-0.016l-0.02,0.01l0,0l10.747-5.176l0.57-0.275l0.745-0.744l14.072-14.071l0.917,0.915l7.439-7.438   l-1.046-1.046l1.37-1.368C2246.416,36.583,2246.416,34.29,2245.006,32.88z M2213.27,62.937l-0.947-0.946l2.764-5.752l3.944,3.943   L2213.27,62.937z M2221.086,58.63l-4.456-4.456l13.468-13.47l4.458,4.458L2221.086,58.63z M2237.242,44.309l-6.291-6.291l3.9-3.9   l6.291,6.29L2237.242,44.309z M2243.235,36.224l-1.368,1.37l-4.2-4.201l1.369-1.37c0.434-0.434,1.14-0.434,1.574,0l2.625,2.627   C2243.671,35.083,2243.671,35.789,2243.235,36.224z"/>
	<rect x="2179.637" y="64.217" fill="#000000" width="6.152" height="3.075"/>
	<rect x="2189.021" y="64.217" fill="#000000" width="6.151" height="3.075"/>
	<rect x="2199.03" y="64.217" fill="#000000" width="6.151" height="3.075"/>
</g>
<g>
	<path fill="#000000" d="M1984.916,24.291h-25.671h-1.217c-0.006,0-0.675-0.06-1.623-0.06c-2.685,0-7.208,0.46-7.365,3.551v38.545   c0,2.547,1.959,4.619,4.366,4.619h28.638c1.961,0,3.676-1.31,4.201-3.197c1.793-0.575,3.038-2.272,3.038-4.158V28.657   C1989.283,26.25,1987.323,24.291,1984.916,24.291z M1983.996,66.579c0,1.077-0.876,1.954-1.952,1.954h-24.007l-4.631-0.126   c-1.075,0-1.953-0.933-1.953-2.079V29.386c0.727,0.123,1.729,0.195,3.123,0.224l-0.002,0.025l17.236,0.034c0,0,0,0,0,0h0.025   l2.231,0.004l0.026,6.332c0,2.662,2.163,4.827,4.821,4.827h5.081V66.579z M1976.239,36.004v-3.767l5.943,6.388h-2.973   C1977.571,38.625,1976.239,37.449,1976.239,36.004z M1986.87,63.591c0,0.465-0.165,0.909-0.46,1.259V42.127v-0.87v-0.365   c0,0-0.114-1.105-0.528-1.548l-10.723-11.525c-0.461-0.495-1.578-0.563-1.578-0.563l-1.577,0.007c0,0.006,0,0.011,0,0.017h-19.058   c-0.298,0-0.506-0.152-0.506-0.288c0-0.135,0.208-0.288,0.506-0.288h31.97c1.078,0,1.954,0.877,1.954,1.954V63.591z"/>
	<path fill="#000000" d="M1966.267,53.965h-12.199c-0.353,0-0.639,0.286-0.639,0.637c0,0.354,0.286,0.639,0.639,0.639h12.199   c0.353,0,0.639-0.285,0.639-0.639C1966.905,54.25,1966.619,53.965,1966.267,53.965z"/>
	<path fill="#000000" d="M1966.267,56.632h-12.199c-0.353,0-0.639,0.285-0.639,0.639c0,0.352,0.286,0.637,0.639,0.637h12.199   c0.353,0,0.639-0.286,0.639-0.637C1966.905,56.917,1966.619,56.632,1966.267,56.632z"/>
	<path fill="#000000" d="M1966.267,59.299h-12.199c-0.353,0-0.639,0.285-0.639,0.638c0,0.351,0.286,0.639,0.639,0.639h12.199   c0.353,0,0.639-0.288,0.639-0.639C1966.905,59.584,1966.619,59.299,1966.267,59.299z"/>
	<path fill="#000000" d="M1966.267,61.966h-12.199c-0.353,0-0.639,0.285-0.639,0.638s0.286,0.637,0.639,0.637h12.199   c0.353,0,0.639-0.284,0.639-0.637S1966.619,61.966,1966.267,61.966z"/>
	<path fill="#000000" d="M1966.267,64.633h-12.199c-0.353,0-0.639,0.286-0.639,0.639c0,0.351,0.286,0.637,0.639,0.637h12.199   c0.353,0,0.639-0.286,0.639-0.637C1966.905,64.919,1966.619,64.633,1966.267,64.633z"/>
	<rect x="1968.754" y="53.965" fill="#000000" width="13.474" height="11.944"/>
	<rect x="1953.429" y="43.066" fill="#000000" width="13.477" height="9.279"/>
	<path fill="#000000" d="M1968.753,43.705c0,0.353,0.286,0.639,0.639,0.639h12.199c0.352,0,0.637-0.286,0.637-0.639   c0-0.352-0.285-0.639-0.637-0.639h-12.199C1969.039,43.066,1968.753,43.353,1968.753,43.705z"/>
	<path fill="#000000" d="M1981.591,45.734h-12.199c-0.353,0-0.639,0.286-0.639,0.638s0.286,0.638,0.639,0.638h12.199   c0.352,0,0.637-0.286,0.637-0.638S1981.942,45.734,1981.591,45.734z"/>
	<path fill="#000000" d="M1981.591,48.4h-12.199c-0.353,0-0.639,0.286-0.639,0.64c0,0.353,0.286,0.637,0.639,0.637h12.199   c0.352,0,0.637-0.284,0.637-0.637C1982.228,48.686,1981.942,48.4,1981.591,48.4z"/>
	<path fill="#000000" d="M1981.591,51.069h-12.199c-0.353,0-0.639,0.284-0.639,0.638c0,0.352,0.286,0.639,0.639,0.639h12.199   c0.352,0,0.637-0.287,0.637-0.639C1982.228,51.353,1981.942,51.069,1981.591,51.069z"/>
	<polygon fill="#000000" points="1954.672,34.866 1954.681,34.866 1956.584,37.55 1957.553,37.352 1957.553,32.277 1956.275,32.277    1956.31,34.849 1956.301,34.849 1954.475,32.277 1953.429,32.277 1953.429,37.438 1954.706,37.438  "/>
	<polygon fill="#000000" points="1961.619,36.238 1960.009,36.238 1960.009,35.423 1961.285,35.423 1961.285,34.284    1960.009,34.284 1960.009,33.478 1961.466,33.478 1961.466,32.277 1958.585,32.277 1958.585,37.438 1961.619,37.438  "/>
	<polygon fill="#000000" points="1964.469,37.438 1965.385,34.327 1965.394,34.327 1966.269,37.438 1967.7,37.438 1968.874,32.277    1967.512,32.277 1967.006,35.296 1966.997,35.296 1966.183,32.277 1964.717,32.277 1963.86,35.296 1963.851,35.296    1963.319,32.148 1961.94,32.405 1963.088,37.438  "/>
	<path fill="#000000" d="M1970.748,36.298c-0.404,0-0.799-0.163-1.141-0.344l-0.472,1.202c0.574,0.282,1.08,0.385,1.74,0.385   c1.124,0,1.886-0.822,1.886-1.869c0-0.642-0.462-1.089-1.089-1.319l-0.566-0.206c-0.248-0.094-0.487-0.146-0.487-0.412   c0-0.231,0.223-0.342,0.573-0.342c0.353,0,0.695,0.162,0.951,0.29l0.472-1.157c-0.462-0.205-0.873-0.352-1.499-0.352   c-0.969,0-1.903,0.617-1.903,1.672c0,0.856,0.454,1.26,1.071,1.492l0.549,0.205c0.334,0.128,0.497,0.197,0.497,0.429   C1971.33,36.187,1971.116,36.298,1970.748,36.298z"/>
	<path fill="#000000" d="M1954.068,40.828h19.94c-0.091-0.117-0.178-0.243-0.258-0.381c-0.206-0.238-0.384-0.495-0.51-0.781   c-0.016-0.038-0.025-0.076-0.041-0.114h-19.132c-0.354,0-0.64,0.287-0.64,0.639C1953.429,40.542,1953.715,40.828,1954.068,40.828z"/>
</g>
<g>
	<polygon fill="#000000" points="2081.105,34.949 2079.539,34.949 2079.539,42.679 2081.453,42.679 2081.4,38.826 2081.412,38.826    2084.263,42.845 2085.714,42.55 2085.714,34.949 2083.801,34.949 2083.854,38.801 2083.839,38.801  "/>
	<polygon fill="#000000" points="2091.572,36.746 2091.572,34.949 2087.259,34.949 2087.259,42.679 2091.805,42.679    2091.805,40.882 2089.393,40.882 2089.393,39.66 2091.305,39.66 2091.305,37.953 2089.393,37.953 2089.393,36.746  "/>
	<polygon fill="#000000" points="2097.444,38.016 2097.458,38.016 2098.769,42.679 2100.911,42.679 2102.671,34.949    2100.629,34.949 2099.872,39.469 2099.859,39.469 2098.638,34.949 2096.443,34.949 2095.159,39.469 2095.146,39.469    2094.351,34.753 2092.284,35.142 2094.004,42.679 2096.071,42.679  "/>
	<path fill="#000000" d="M2105.477,40.971c-0.604,0-1.196-0.243-1.708-0.515l-0.707,1.801c0.861,0.422,1.617,0.576,2.607,0.576   c1.681,0,2.825-1.235,2.825-2.799c0-0.962-0.695-1.631-1.632-1.977l-0.85-0.31c-0.372-0.141-0.731-0.217-0.731-0.614   c0-0.349,0.336-0.515,0.862-0.515c0.527,0,1.039,0.245,1.425,0.437l0.705-1.732c-0.692-0.311-1.309-0.528-2.245-0.528   c-1.451,0-2.853,0.924-2.853,2.502c0,1.286,0.683,1.888,1.606,2.237l0.822,0.306c0.5,0.193,0.743,0.295,0.743,0.642   C2106.348,40.804,2106.028,40.971,2105.477,40.971z"/>
	<path fill="#000000" d="M2112.865,44.148h-16.032h-7.52h-15.076c-0.418,0-0.756,0.337-0.756,0.753c0,0.417,0.338,0.754,0.756,0.754   h16.031h7.521h15.076c0.417,0,0.754-0.338,0.754-0.754C2113.619,44.484,2113.282,44.148,2112.865,44.148z"/>
	<path fill="#000000" d="M2089.313,31.693h-15.076c-0.418,0-0.756,0.339-0.756,0.754c0,0.417,0.338,0.752,0.756,0.752h16.031h7.521   h15.076c0.417,0,0.754-0.337,0.754-0.752c0-0.417-0.337-0.754-0.754-0.754h-16.032H2089.313z"/>
	<rect x="2073.821" y="47.952" fill="#000000" width="18.463" height="10.958"/>
	<path fill="#000000" d="M2109.876,48.335h-14.41c-0.417,0-0.754,0.337-0.754,0.752c0,0.418,0.337,0.754,0.754,0.754h14.41   c0.415,0,0.752-0.336,0.752-0.754C2110.628,48.673,2110.291,48.335,2109.876,48.335z"/>
	<path fill="#000000" d="M2109.876,51.484h-14.41c-0.417,0-0.754,0.338-0.754,0.756c0,0.416,0.337,0.755,0.754,0.755h14.41   c0.415,0,0.752-0.339,0.752-0.755C2110.628,51.822,2110.291,51.484,2109.876,51.484z"/>
	<path fill="#000000" d="M2109.876,54.636h-14.41c-0.417,0-0.754,0.336-0.754,0.752c0,0.417,0.337,0.755,0.754,0.755h14.41   c0.415,0,0.752-0.337,0.752-0.755C2110.628,54.973,2110.291,54.636,2109.876,54.636z"/>
	<path fill="#000000" d="M2109.876,57.785h-14.41c-0.417,0-0.754,0.336-0.754,0.755c0,0.415,0.337,0.752,0.754,0.752h14.41   c0.415,0,0.752-0.338,0.752-0.752C2110.628,58.122,2110.291,57.785,2109.876,57.785z"/>
	<path fill="#000000" d="M2109.876,60.935h-7.845c-0.038-0.005-0.075-0.011-0.113-0.011h-12.935h-1.477h-12.933   c-0.415,0-0.753,0.336-0.753,0.754c0,0.415,0.338,0.753,0.753,0.753h12.933h1.477h6.354c0.042,0.007,0.085,0.013,0.129,0.013h14.41   c0.415,0,0.752-0.337,0.752-0.754C2110.628,61.273,2110.291,60.935,2109.876,60.935z"/>
	<path fill="#000000" d="M2109.876,64.313h-7.827c-0.043-0.008-0.087-0.013-0.131-0.013h-12.935h-1.477h-12.933   c-0.415,0-0.753,0.336-0.753,0.754c0,0.415,0.338,0.753,0.753,0.753h12.933h1.477h6.355c0.042,0.007,0.084,0.012,0.127,0.012h14.41   c0.415,0,0.752-0.336,0.752-0.754C2110.628,64.651,2110.291,64.313,2109.876,64.313z"/>
	<path fill="#000000" d="M2116.192,26.882h-4.35h-1.916h-33.381h-1.917h-4.349h-2.85v2.848v5.97h-4.278h-2.85v2.851v6.366v5.208   v15.738c0,2.644,2.116,4.828,4.832,5.122c0.024,0.012,0.049,0.024,0.074,0.036c0.055-0.004,0.106-0.013,0.161-0.018   c0.128,0.008,0.256,0.018,0.386,0.018h2.308h43.217h2.308c3.008,0,5.453-2.315,5.453-5.158V41.305v-9.266V29.73v-2.848H2116.192z    M2067.468,57.951l-0.055,2.461l-0.148,5.47c0,1.271-0.861,2.179-2.216,2.179c-1.007-0.287-1.748-1.159-1.748-2.198l-0.148-5.468   v-10.27v-1.433V38.551h4.278v2.754h0.016l0.021,12.191V57.951z M2116.192,34.345v6.96v19.089l-0.149,5.468   c0,1.271-1.101,2.307-2.455,2.307h-5.247h-35.334h-0.664h-0.724h-1.927c0.363-0.69,0.57-1.466,0.57-2.288v-7.314l0.017-7.905h0.001   v-0.501l0.019-9.409c-0.005,0.017-0.013,0.034-0.019,0.052v-5.284v-5.79h4.409c0,0.001,0,0.002,0,0.002h36.409   c0,0-0.001-0.001-0.001-0.002h5.095V34.345z"/>
</g>
<g>
	<path d="M1745.524,32.871c-1.848-7.001-8.143-11.933-15.524-11.933c-7.382,0-13.677,4.931-15.524,11.933   c-6.603,0.875-11.737,6.343-11.737,12.843c0,7.154,6.099,12.974,13.595,12.974h27.332c7.497,0,13.595-5.82,13.595-12.974   C1757.261,39.214,1752.127,33.746,1745.524,32.871z M1743.666,54.688h-27.332c-5.291,0-9.595-4.026-9.595-8.974   c0-4.852,4.224-8.873,9.415-8.964c0.968-0.017,1.784-0.724,1.939-1.679c0.953-5.871,5.96-10.133,11.907-10.133   s10.954,4.262,11.907,10.133c0.155,0.955,0.971,1.663,1.939,1.679c5.191,0.091,9.415,4.112,9.415,8.964   C1753.261,50.662,1748.956,54.688,1743.666,54.688z"/>
	<circle cx="1719.188" cy="65.375" r="2.938"/>
	<circle cx="1730" cy="65.375" r="2.938"/>
	<circle cx="1740.812" cy="65.375" r="2.938"/>
	<circle cx="1724.312" cy="74.125" r="2.938"/>
	<circle cx="1735.125" cy="74.125" r="2.938"/>
</g>
<g>
	<path d="M1871.19,47.204c-1.848-7.002-8.144-11.933-15.524-11.933c-1.191,0-2.35,0.141-3.471,0.386   c-2.633-3.642-6.9-6.025-11.729-6.025c-7.995,0-14.5,6.505-14.5,14.5c0,3.856,1.531,7.348,3.997,9.946   c-0.988,1.793-1.557,3.822-1.557,5.969c0,7.154,6.099,12.974,13.595,12.974h27.332c7.496,0,13.595-5.82,13.595-12.974   C1882.927,53.547,1877.793,48.08,1871.19,47.204z M1840.466,33.632c3.077,0,5.834,1.343,7.755,3.459   c-3.917,2.041-6.901,5.653-8.078,10.113c-2.979,0.395-5.653,1.73-7.697,3.668c-1.539-1.826-2.479-4.171-2.479-6.74   C1829.966,38.343,1834.676,33.632,1840.466,33.632z M1869.332,69.021H1842c-5.29,0-9.595-4.026-9.595-8.974   c0-4.852,4.224-8.873,9.415-8.964c0.968-0.017,1.784-0.724,1.939-1.679c0.953-5.872,5.96-10.133,11.906-10.133   s10.954,4.262,11.907,10.133c0.155,0.955,0.971,1.663,1.938,1.679c5.191,0.091,9.415,4.112,9.415,8.964   C1878.927,64.995,1874.623,69.021,1869.332,69.021z"/>
	<path d="M1826.449,27.787l-4-3.917c-0.79-0.773-2.056-0.759-2.828,0.03c-0.773,0.789-0.76,2.055,0.029,2.828l4,3.917   c0.39,0.381,0.895,0.571,1.399,0.571c0.519,0,1.037-0.201,1.429-0.601C1827.251,29.826,1827.238,28.56,1826.449,27.787z"/>
	<path d="M1820.911,44.395l-5.598,0.059c-1.104,0.011-1.99,0.916-1.979,2.021c0.011,1.098,0.905,1.979,2,1.979   c0.007,0,0.015,0,0.021,0l5.598-0.059c1.104-0.012,1.99-0.917,1.979-2.021S1822.011,44.381,1820.911,44.395z"/>
	<path d="M1843.495,26.724c0.007,0,0.015,0,0.021,0c1.104-0.011,1.991-0.916,1.979-2.021l-0.059-5.599   c-0.011-1.104-0.905-1.991-2.021-1.979c-1.104,0.011-1.991,0.916-1.979,2.021l0.059,5.599   C1841.507,25.842,1842.4,26.724,1843.495,26.724z"/>
</g>
</svg>
