<svg xmlns="http://www.w3.org/2000/svg" xmlns:xlink="http://www.w3.org/1999/xlink" version="1.1" id="&#1057;&#1083;&#1086;&#1081;_1" x="0px" y="0px" width="100px" height="100px" viewBox="5.0 -10.0 100.0 135.0" enable-background="new 0 0 100 100" xml:space="preserve">
<g>
	<g>
		<rect x="73" y="29" width="2" height="1"/>
	</g>
</g>
<g>
	<g>
		<rect x="69" y="29" width="2" height="1"/>
	</g>
</g>
<g>
	<g>
		<rect x="65" y="29" width="2" height="1"/>
	</g>
</g>
<g>
	<g>
		<rect x="61" y="29" width="2" height="1"/>
	</g>
</g>
<g>
	<g>
		<rect x="57" y="29" width="2" height="1"/>
	</g>
</g>
<g>
	<g>
		<rect x="53" y="29" width="2" height="1"/>
	</g>
</g>
<g>
	<g>
		<rect x="49" y="29" width="2" height="1"/>
	</g>
</g>
<g>
	<g>
		<rect x="45" y="29" width="2" height="1"/>
	</g>
</g>
<g>
	<g>
		<rect x="41" y="29" width="2" height="1"/>
	</g>
</g>
<g>
	<g>
		<rect x="37" y="29" width="2" height="1"/>
	</g>
</g>
<g>
	<g>
		<rect x="33" y="29" width="2" height="1"/>
	</g>
</g>
<g>
	<g>
		<rect x="29" y="29" width="2" height="1"/>
	</g>
</g>
<g>
	<g>
		<rect x="25" y="29" width="2" height="1"/>
	</g>
</g>
<g>
	<g>
		<rect x="73" y="39" width="2" height="1"/>
	</g>
</g>
<g>
	<g>
		<rect x="69" y="39" width="2" height="1"/>
	</g>
</g>
<g>
	<g>
		<rect x="65" y="39" width="2" height="1"/>
	</g>
</g>
<g>
	<g>
		<rect x="61" y="39" width="2" height="1"/>
	</g>
</g>
<g>
	<g>
		<rect x="57" y="39" width="2" height="1"/>
	</g>
</g>
<g>
	<g>
		<rect x="53" y="39" width="2" height="1"/>
	</g>
</g>
<g>
	<g>
		<rect x="49" y="39" width="2" height="1"/>
	</g>
</g>
<g>
	<g>
		<rect x="45" y="39" width="2" height="1"/>
	</g>
</g>
<g>
	<g>
		<rect x="41" y="39" width="2" height="1"/>
	</g>
</g>
<g>
	<g>
		<rect x="37" y="39" width="2" height="1"/>
	</g>
</g>
<g>
	<g>
		<rect x="33" y="39" width="2" height="1"/>
	</g>
</g>
<g>
	<g>
		<rect x="29" y="39" width="2" height="1"/>
	</g>
</g>
<g>
	<g>
		<rect x="25" y="39" width="2" height="1"/>
	</g>
</g>
<g>
	<g>
		<rect x="73" y="49" width="2" height="1"/>
	</g>
</g>
<g>
	<g>
		<rect x="69" y="49" width="2" height="1"/>
	</g>
</g>
<g>
	<g>
		<rect x="65" y="49" width="2" height="1"/>
	</g>
</g>
<g>
	<g>
		<rect x="61" y="49" width="2" height="1"/>
	</g>
</g>
<g>
	<g>
		<rect x="57" y="49" width="2" height="1"/>
	</g>
</g>
<g>
	<g>
		<rect x="53" y="49" width="2" height="1"/>
	</g>
</g>
<g>
	<g>
		<rect x="45" y="49" width="2" height="1"/>
	</g>
</g>
<g>
	<g>
		<rect x="41" y="49" width="2" height="1"/>
	</g>
</g>
<g>
	<g>
		<rect x="37" y="49" width="2" height="1"/>
	</g>
</g>
<g>
	<g>
		<rect x="33" y="49" width="2" height="1"/>
	</g>
</g>
<g>
	<g>
		<rect x="29" y="49" width="2" height="1"/>
	</g>
</g>
<g>
	<g>
		<rect x="25" y="49" width="2" height="1"/>
	</g>
</g>
<g>
	<g>
		<rect x="73" y="59" width="2" height="1"/>
	</g>
</g>
<g>
	<g>
		<rect x="69" y="59" width="2" height="1"/>
	</g>
</g>
<g>
	<g>
		<rect x="65" y="59" width="2" height="1"/>
	</g>
</g>
<g>
	<g>
		<rect x="61" y="59" width="2" height="1"/>
	</g>
</g>
<g>
	<g>
		<rect x="57" y="59" width="2" height="1"/>
	</g>
</g>
<g>
	<g>
		<rect x="41" y="59" width="2" height="1"/>
	</g>
</g>
<g>
	<g>
		<rect x="37" y="59" width="2" height="1"/>
	</g>
</g>
<g>
	<g>
		<rect x="33" y="59" width="2" height="1"/>
	</g>
</g>
<g>
	<g>
		<rect x="29" y="59" width="2" height="1"/>
	</g>
</g>
<g>
	<g>
		<rect x="25" y="59" width="2" height="1"/>
	</g>
</g>
<g>
	<g>
		<rect x="29" y="69" width="2" height="1"/>
	</g>
</g>
<g>
	<g>
		<rect x="25" y="69" width="2" height="1"/>
	</g>
</g>
<g>
	<polygon points="68,59 62,72 56,65 50,44 44,66 38,62 32,74 26,77 32,76 38,69 44,71 50,53 56,69 62,74 68,64 74,71 74,67  "/>
</g>
<g>
	<polygon points="74,79 26,79 26,78 32,77 38,73 44,76 50,62 56,72 62,78 68,68 74,78  "/>
</g>
<g>
	<g>
		<polygon points="67.538,60 68.375,60 68,59   "/>
	</g>
</g>
<g>
	<path d="M80,12H68c0-2.757-2.243-5-5-5H37c-2.757,0-5,2.243-5,5H20c-3.309,0-6,2.691-6,6v67c0,3.309,2.691,6,6,6h60   c3.309,0,6-2.691,6-6V18C86,14.691,83.309,12,80,12z M38,13h24v4H38V13z M80,85H20V18h12c0,2.757,2.243,5,5,5h26   c2.757,0,5-2.243,5-5h12V85z"/>
</g>
</svg>
