<svg xmlns="http://www.w3.org/2000/svg" xmlns:xlink="http://www.w3.org/1999/xlink" version="1.1" id="Capa_8" x="0px" y="0px" width="100px" height="100px" viewBox="5.0 -10.0 100.0 135.0" enable-background="new 0 0 100 100" xml:space="preserve">
<g>
	<path d="M22.468,41.387c-1.01,3.395-1.447,6.487-1.447,10.139c0,19.571,15.634,35.562,35.069,36.137V52.313L22.468,41.387z"/>
	<path d="M58.255,54.859V100c9.922-0.186,18.406-2.941,26.533-8.621L58.255,54.859z"/>
	<path d="M58.925,52.095l15.97,21.978c9.319-7.284,13.124-19.002,9.869-30.374L58.925,52.095z"/>
	<path d="M58.255,15.387v34.648l32.954-10.708C86.136,25.075,73.378,15.81,58.255,15.387z"/>
	<g>
		<polygon points="20.206,38.374 56.09,2.489 56.09,0.703 18.857,37.937   "/>
		<path d="M16.849,37.284L54.133,0c-0.631,0.035-1.27,0.051-1.894,0.107L15.502,36.845L16.849,37.284z"/>
		<path d="M13.494,36.193L49.19,0.495c-0.721,0.107-1.437,0.226-2.147,0.362L12.146,35.756L13.494,36.193z"/>
		<polygon points="30.273,41.646 56.09,15.828 56.09,14.042 28.926,41.207   "/>
		<polygon points="43.7,46.008 56.09,33.617 56.09,31.831 42.351,45.571   "/>
		<polygon points="53.766,49.28 56.09,46.957 56.09,45.17 52.419,48.842   "/>
		<polygon points="50.412,48.188 56.09,42.51 56.09,40.724 49.063,47.751   "/>
		<polygon points="56.09,50.035 56.09,49.618 55.776,49.932   "/>
		<path d="M26.847,9.497c-4.314,3.112-8.122,6.917-11.301,11.301L26.847,9.497z"/>
		<polygon points="23.563,39.465 56.09,6.936 56.09,5.149 22.216,39.027   "/>
		<polygon points="47.055,47.099 56.09,38.063 56.09,36.278 45.708,46.661   "/>
		<polygon points="40.343,44.918 56.09,29.17 56.09,27.384 38.996,44.479   "/>
		<polygon points="36.986,43.827 56.09,24.723 56.09,22.937 35.64,43.389   "/>
		<polygon points="33.631,42.736 56.09,20.276 56.09,18.49 32.283,42.298   "/>
		<polygon points="26.919,40.556 56.09,11.384 56.09,9.598 25.571,40.118   "/>
		<path d="M10.137,35.104L43.619,1.622c-0.85,0.223-1.689,0.471-2.521,0.735L8.79,34.665L10.137,35.104z"/>
		<path d="M9.767,31.025L36.925,3.867c-1.128,0.47-2.232,0.984-3.318,1.532L11.354,27.654C10.792,28.753,10.257,29.875,9.767,31.025    z"/>
	</g>
</g>
</svg>
