<?xml version="1.0" encoding="utf-8"?>
<!-- Generator: Adobe Illustrator 17.0.0, SVG Export Plug-In . SVG Version: 6.00 Build 0)  -->
<!DOCTYPE svg PUBLIC "-//W3C//DTD SVG 1.1//EN" "http://www.w3.org/Graphics/SVG/1.1/DTD/svg11.dtd">
<svg version="1.1" id="Layer_1" xmlns="http://www.w3.org/2000/svg" xmlns:xlink="http://www.w3.org/1999/xlink" x="0px" y="0px"
	 width="32px" height="32px" viewBox="0 0 32 32" enable-background="new 0 0 32 32" xml:space="preserve">
<g>
	<path d="M11.667,24.084c-0.557,0-1.039-0.248-1.152-0.794l-1.561-7.473l-1.028,1.775c-0.211,0.358-0.597,0.613-1.012,0.613H1.229
		c-0.649,0-1.176-0.527-1.176-1.175c0-0.649,0.527-1.177,1.176-1.177h5.013l2.235-3.777c0.247-0.417,0.721-0.644,1.205-0.562
		c0.479,0.08,0.86,0.446,0.958,0.921l0.945,4.567L13.74,5.046c0.101-0.56,0.588-0.949,1.158-0.949c0.001,0,0.004,0,0.005,0
		c0.571,0,1.058,0.396,1.154,0.958l2.3,13.421l0.74-1.875c0.176-0.45,0.61-0.749,1.093-0.749h10.434
		c0.649,0,1.175,0.527,1.175,1.177c0,0.648-0.526,1.175-1.175,1.175h-9.635l-1.99,5.03c-0.193,0.49-0.682,0.787-1.215,0.737
		c-0.523-0.055-0.948-0.452-1.037-0.971l-1.877-10.966L12.824,23.26c-0.1,0.554-0.579,0.824-1.142,0.824
		C11.677,24.084,11.672,24.084,11.667,24.084z"/>
</g>
</svg>
