<?xml version="1.0" encoding="utf-8"?>
<!-- Generator: Adobe Illustrator 16.0.0, SVG Export Plug-In . SVG Version: 6.00 Build 0)  -->
<!DOCTYPE svg PUBLIC "-//W3C//DTD SVG 1.1//EN" "http://www.w3.org/Graphics/SVG/1.1/DTD/svg11.dtd">
<svg version="1.1" id="Layer_1" xmlns="http://www.w3.org/2000/svg" xmlns:xlink="http://www.w3.org/1999/xlink" x="0px" y="0px"
	 width="48px" height="48px" viewBox="0 0 48 48" enable-background="new 0 0 48 48" xml:space="preserve">
<g>
	<path d="M37.521,20.483c-1.712-2.402-4.031-4.271-6.713-5.461v-3.169h0.817c2.257,0,4.067-1.869,4.067-4.126v-2.55
		c0-2.258-1.81-4.05-4.067-4.05h-15.27c-2.257,0-4.125,1.792-4.125,4.05v2.55c0,2.257,1.868,4.126,4.125,4.126h0.759v3.186
		c-5.842,2.685-9.707,8.593-9.707,15.104c0,9.143,7.452,16.582,16.605,16.582c9.147,0,16.58-7.438,16.58-16.582
		C40.592,26.634,39.523,23.292,37.521,20.483z M24.017,42.864c-7.026,0-12.743-5.707-12.743-12.721
		c0-5.351,3.37-10.172,8.417-11.994c0.765-0.277,1.253-1.003,1.253-1.816V9.556c0-0.885-0.674-1.629-1.56-1.629h-2.609
		c-0.357,0-0.619-0.263-0.619-0.62v-1.71c0-0.357,0.262-0.638,0.619-0.638h14.429c0.358,0,0.658,0.281,0.658,0.638v1.71
		c0,0.357-0.3,0.62-0.658,0.62h-2.608c-0.885,0-1.618,0.745-1.618,1.629v6.778c0,0.821,0.528,1.553,1.304,1.823
		c5.137,1.785,8.458,6.49,8.458,11.986C36.74,37.157,31.034,42.864,24.017,42.864z"/>
	<circle cx="27.225" cy="25.683" r="2.212"/>
	<circle cx="23.292" cy="20.784" r="1.253"/>
	<path d="M23.144,29.635c0-1.974-1.601-3.576-3.575-3.576c-1.975,0-3.576,1.602-3.576,3.576c0,0.343,0.049,0.701,0.139,0.988h-2.955
		c0.206,5.842,4.97,10.463,10.831,10.463c5.863,0,10.626-4.622,10.832-10.463H23.005C23.095,30.336,23.144,29.978,23.144,29.635z"/>
</g>
</svg>
