<?xml version="1.0" encoding="utf-8"?>
<!-- Generator: Adobe Illustrator 17.0.0, SVG Export Plug-In . SVG Version: 6.00 Build 0)  -->
<!DOCTYPE svg PUBLIC "-//W3C//DTD SVG 1.1//EN" "http://www.w3.org/Graphics/SVG/1.1/DTD/svg11.dtd">
<svg version="1.1" id="Layer_1" xmlns="http://www.w3.org/2000/svg" xmlns:xlink="http://www.w3.org/1999/xlink" x="0px" y="0px"
	 width="32px" height="32px" viewBox="0 0 32 32" enable-background="new 0 0 32 32" xml:space="preserve">
<g>
	<path d="M19.091,16.999c-0.572,0-1.099,0.312-1.372,0.814l-3.23,5.939c-0.253,0.465-0.253,1.026,0,1.491l3.23,5.939
		c0.273,0.502,0.8,0.815,1.372,0.815h6.3c0.572,0,1.099-0.314,1.372-0.815l3.231-5.938c0.253-0.466,0.253-1.027,0-1.493
		l-3.231-5.939c-0.273-0.502-0.8-0.814-1.372-0.814H19.091z M25.092,28.367c-0.225,0.391-0.642,0.632-1.092,0.632h-3.517
		c-0.45,0-0.867-0.241-1.092-0.631l-1.868-3.239c-0.226-0.391-0.226-0.87,0-1.261l1.868-3.239c0.225-0.39,0.642-0.63,1.092-0.63H24
		c0.45,0,0.867,0.24,1.092,0.631l1.868,3.239c0.225,0.39,0.225,0.869,0,1.259L25.092,28.367z"/>
	<path d="M13.29,8.814c-0.273-0.502-0.8-0.815-1.372-0.815H5.616c-0.572,0-1.099,0.312-1.372,0.815l-3.23,5.939
		c-0.253,0.465-0.253,1.026,0,1.491l3.23,5.939c0.273,0.502,0.8,0.815,1.372,0.815h6.302c0.572,0,1.099-0.314,1.372-0.815
		l3.23-5.939c0.253-0.465,0.253-1.026,0-1.491L13.29,8.814z"/>
	<path d="M25.391,14.999c0.572,0,1.099-0.313,1.372-0.815l3.231-5.939c0.253-0.466,0.253-1.027,0-1.493l-3.231-5.938
		c-0.273-0.502-0.8-0.814-1.372-0.814h-6.3c-0.572,0-1.099,0.312-1.372,0.814l-3.23,5.939c-0.253,0.465-0.253,1.026,0,1.491
		l3.23,5.94c0.273,0.502,0.8,0.815,1.372,0.815H25.391z"/>
</g>
</svg>
